<svg width="81" height="80" viewBox="0 0 81 80" fill="none" xmlns="http://www.w3.org/2000/svg">
<circle cx="34.9427" cy="41.7996" r="23.637" fill="#B4F4D9" fill-opacity="0.6"/>
<path d="M22.8864 45.5079V45.5079C21.09 45.5079 19.6338 44.0516 19.6338 42.2552L19.6338 39.1987L19.6338 33.4888C19.6339 20.4594 30.1964 9.89697 43.2258 9.89697V9.89697C56.2554 9.89697 66.8179 20.4595 66.8178 33.489L66.8178 47.9005C66.8178 53.8656 61.9821 58.7013 56.017 58.7013V58.7013L52.6377 58.7013" stroke="#02AB81" stroke-width="3"/>
<path d="M65.2622 45.2822L58.7296 45.2842C56.9367 45.2847 55.4829 43.8314 55.4829 42.0385L55.4829 32.819C55.4829 31.0265 56.9361 29.5733 58.7286 29.5733L65.2622 29.5733" stroke="#02AB81" stroke-width="3"/>
<path d="M19.8191 29.7886H27.598C29.3906 29.7886 30.8437 31.2417 30.8437 33.0343L30.8437 42.2547C30.8437 44.0473 29.3906 45.5004 27.598 45.5004H22.3248" stroke="#02AB81" stroke-width="3"/>
<rect width="9.23928" height="8.07461" rx="1.07113" transform="matrix(-1 0 0 1 52.4648 53.7607)" stroke="#02AB81" stroke-width="3"/>
</svg>
