<svg width="275" height="177" viewBox="0 0 275 177" fill="none" xmlns="http://www.w3.org/2000/svg">
<g filter="url(#filter0_d_73_10513)">
<rect x="40" y="36" width="195" height="97" rx="19" fill="white" shape-rendering="crispEdges"/>
<g clip-path="url(#clip0_73_10513)">
<path d="M118.732 96.5705C119.263 97.2195 119.781 97.8782 120.341 98.5799C118.968 99.0137 117.656 99.4291 116.342 99.8413C107.323 102.674 98.3035 105.505 89.2851 108.344C89.1634 108.382 88.9834 108.321 88.9166 108.5C88.9446 108.212 89.1968 108.207 89.3875 108.147C96.2517 105.979 103.125 103.839 109.988 101.67C113.12 100.68 116.259 99.7111 119.39 98.7134C120.062 98.4992 120.064 98.4766 119.615 97.9148C119.291 97.5079 118.969 97.0979 118.638 96.6975C118.336 96.3327 118.079 95.9387 117.983 95.4759C117.883 94.9927 117.611 94.8495 117.142 94.8711C115.719 94.9346 114.307 94.8022 112.909 94.5471C110.777 94.1586 108.798 93.3955 107.081 92.0404C105.529 90.8146 104.543 89.2098 104.107 87.3016C103.504 84.6572 103.801 82.1247 105.319 79.816C106.37 78.2145 107.824 77.0747 109.552 76.2643C111.552 75.3269 113.66 74.8791 115.863 74.8759C117.638 74.8738 119.417 74.7866 121.16 75.272C122.684 75.695 122.691 75.6702 122.691 77.2566C122.69 78.2963 122.702 79.3371 122.686 80.3768C122.675 81.0258 122.524 81.128 121.938 80.8503C120.658 80.2444 119.319 79.8688 117.909 79.7428C116.474 79.6158 115.111 79.8677 113.873 80.6146C112.916 81.1926 112.251 82.0321 111.98 83.131C111.529 84.9617 111.645 86.7064 112.978 88.1777C114.08 89.3939 115.538 89.8394 117.13 89.9417C118.899 90.0547 120.594 89.706 122.259 89.1474C122.908 88.9289 122.91 88.9289 123.156 89.5488C123.197 89.6522 123.242 89.7566 123.337 89.8082C124.244 90.2979 124.918 91.0901 125.769 91.7262C125.87 91.5012 125.829 91.3043 125.829 91.1181C125.833 86.15 125.831 81.1818 125.831 76.2148C125.833 75.0922 125.836 75.0901 126.981 75.089C128.778 75.089 130.573 75.089 132.368 75.0901C133.434 75.0901 133.466 75.1213 133.466 76.1631C133.467 79.4458 133.466 82.7274 133.467 86.009C133.468 86.2016 133.449 86.3975 133.511 86.6913C133.899 86.1715 134.205 85.6947 134.529 85.233C135.961 83.1891 137.477 81.2098 139.072 79.2919C139.438 78.8506 139.483 78.4836 139.251 77.9842C138.206 75.7402 137.208 73.4767 136.191 71.2198C134.829 68.1943 133.466 65.17 132.107 62.1435C131.996 61.8981 131.886 61.6527 131.769 61.4105C131.38 60.6066 131.362 60.5915 130.455 60.6604C128.595 60.8014 126.732 60.8681 124.872 60.9908C122.673 61.1361 120.47 61.2437 118.27 61.374C116.678 61.4676 115.084 61.5548 113.491 61.6366C111.916 61.7184 110.34 61.8055 108.766 61.9078C107.336 62.0014 105.903 62.0768 104.47 62.1543C102.698 62.25 100.926 62.3598 99.1547 62.4492C97.6321 62.5266 96.1116 62.6214 94.5901 62.7021C92.9252 62.7914 91.2604 62.8872 89.5966 62.9851C88.1472 63.0702 86.6968 63.153 85.2474 63.2327C83.4931 63.3285 81.7388 63.4232 79.9856 63.5276C78.5901 63.6094 77.1935 63.7041 75.797 63.759C74.811 63.7977 73.8304 63.9312 72.8412 63.8935C72.6655 63.8871 72.4834 63.9613 72.3218 63.8343C73.95 63.7321 75.5782 63.6212 77.2065 63.5287C81.7 63.2714 86.1946 63.0217 90.6892 62.7699C96.4543 62.4459 102.219 62.122 107.986 61.7991C113.732 61.4762 119.48 61.1544 125.228 60.8315C127.108 60.726 128.989 60.6345 130.867 60.5054C131.338 60.4731 131.58 60.5775 131.789 61.0457C134.354 66.7963 136.948 72.535 139.535 78.2759C139.647 78.5234 139.738 78.7225 139.507 78.9991C137.391 81.5327 135.402 84.1642 133.555 86.9001C133.528 86.941 133.481 86.9712 133.436 87.0142C133.296 86.8474 133.368 86.6633 133.368 86.4987C133.363 82.9286 133.357 79.3597 133.372 75.7907C133.375 75.3731 133.269 75.2451 132.838 75.2505C130.755 75.2731 128.672 75.2752 126.589 75.2494C126.127 75.244 125.989 75.3409 125.991 75.8327C126.011 81.0333 126.003 86.235 126.003 91.4356V92.077C125.619 91.9134 125.395 91.6121 125.112 91.3925C124.465 90.8899 123.94 90.2334 123.147 89.9126C122.799 89.7706 123.095 89.3853 122.919 89.1076C122.238 89.3088 121.534 89.5435 120.817 89.7221C118.871 90.2065 116.921 90.341 114.986 89.6651C112.53 88.8062 111.32 86.6827 111.664 83.8532C111.94 81.5951 113.767 79.9086 116.168 79.6481C118.305 79.4167 120.298 79.8677 122.202 80.8094C122.293 80.8546 122.371 80.9526 122.537 80.8955C122.537 79.3188 122.532 77.7291 122.543 76.1405C122.545 75.8693 122.379 75.8306 122.187 75.7585C120.759 75.2214 119.273 75.0384 117.758 74.9878C114.91 74.891 112.128 75.1676 109.528 76.4376C106.657 77.8411 104.655 79.9947 104.129 83.2214C103.337 88.0776 105.632 91.9113 110.243 93.6559C112.546 94.5277 114.939 94.785 117.379 94.7182C117.781 94.7075 118.02 94.7344 118.063 95.2445C118.105 95.7418 118.408 96.1744 118.732 96.5705Z" fill="#02AB81"/>
<path d="M145.057 90.5489C145.118 90.6867 145.17 90.7932 144.944 90.861C143.44 91.3152 141.941 91.7856 140.44 92.2484C140.393 92.2624 140.335 92.2419 140.234 92.2344C141.312 90.5048 142.368 88.8107 143.473 87.0381C144.025 88.264 144.541 89.407 145.057 90.5489Z" fill="#02AB81"/>
<path d="M158.335 88.9939C157.835 89.9776 156.924 90.0529 155.975 89.9765C155.052 89.9022 154.371 89.3436 154.129 88.4923C153.952 87.8745 153.953 87.2514 154.129 86.6336C154.387 85.7284 155.16 85.1881 156.21 85.1634C157.5 85.1322 158.114 85.5153 158.511 86.6282C158.242 86.6885 158.01 86.7261 157.789 86.7939C157.48 86.8876 157.231 86.9392 157.031 86.5668C156.874 86.2762 156.541 86.2332 156.217 86.2935C155.857 86.3602 155.65 86.5991 155.559 86.9274C155.442 87.3482 155.464 87.783 155.541 88.2082C155.613 88.6042 155.867 88.8475 156.269 88.8873C156.662 88.9261 156.96 88.7668 157.141 88.3954C157.326 88.0144 157.809 87.9746 158.372 88.3126C158.745 88.5364 158.434 88.799 158.335 88.9939Z" fill="#02AB81"/>
<path d="M161.483 85.1631C159.928 85.1609 159.063 86.0338 159.065 87.5976C159.067 89.1572 159.923 89.9891 161.521 89.9881C163.078 89.987 163.922 89.1206 163.914 87.5331C163.907 86.0155 163.034 85.1642 161.483 85.1631ZM162.423 87.6816C162.422 87.6924 162.423 87.8355 162.408 87.9765C162.344 88.5695 162.024 88.8903 161.497 88.8935C160.978 88.8978 160.649 88.5814 160.56 87.9959C160.519 87.73 160.515 87.4663 160.555 87.1994C160.647 86.5881 160.995 86.2555 161.527 86.2803C162.06 86.3061 162.385 86.6699 162.422 87.2823C162.427 87.3716 162.423 87.461 162.423 87.6816Z" fill="#02AB81"/>
<path d="M167.776 74.1523C167.37 70.5177 165.329 68.1509 161.243 68.223C159.144 68.2596 157.044 68.2392 154.944 68.2198C154.54 68.2166 154.398 68.2984 154.403 68.7386C154.428 70.9966 154.415 73.2557 154.415 75.5138C154.415 77.7901 154.423 80.0664 154.407 82.3417C154.405 82.6969 154.506 82.7894 154.854 82.7841C156.146 82.7647 157.438 82.7916 158.73 82.7722C160.002 82.7528 161.275 82.8551 162.546 82.6732C165.277 82.2825 167.1 80.625 167.639 77.9494C167.893 76.6977 167.919 75.4212 167.776 74.1523ZM163.136 77.4715C162.902 78.7211 162.131 79.3529 160.809 79.4314C160.325 79.4594 159.839 79.4325 159.356 79.4637C159.027 79.4863 158.926 79.3862 158.933 79.0494C158.954 77.8665 158.941 76.6826 158.941 75.4998C158.941 74.3159 158.952 73.133 158.934 71.9502C158.928 71.6209 159.019 71.5003 159.354 71.5272C159.8 71.5638 160.25 71.5466 160.698 71.58C162.076 71.6854 162.881 72.3764 163.136 73.7293C163.372 74.9724 163.37 76.2295 163.136 77.4715Z" fill="#02AB81"/>
<path d="M169.891 85.7777C169.909 86.9971 169.869 88.2176 169.915 89.436C169.934 89.9741 169.64 89.9085 169.314 89.8988C169.01 89.8891 168.666 90.0086 168.696 89.4553C168.741 88.6212 168.708 87.7828 168.595 86.9325C168.372 87.7882 168.107 88.6374 167.941 89.5049C167.843 90.0129 167.521 89.8729 167.223 89.8999C166.912 89.9278 166.693 89.8955 166.609 89.507C166.417 88.618 166.171 87.7419 165.856 86.8626C165.856 87.6978 165.823 88.5351 165.869 89.3682C165.895 89.845 165.723 89.9472 165.296 89.9063C164.949 89.8729 164.608 90.0043 164.636 89.3951C164.693 88.1423 164.661 86.8852 164.647 85.6292C164.643 85.3375 164.709 85.2331 165.028 85.2256C166.557 85.189 166.551 85.1793 166.933 86.6506C167.035 87.0402 167.073 87.4535 167.312 87.8732C167.512 87.1048 167.696 86.4009 167.879 85.6959C167.902 85.6098 167.885 85.4849 167.939 85.4387C168.463 84.9812 169.088 85.3117 169.666 85.2514C170.056 85.2116 169.889 85.5893 169.891 85.7777Z" fill="#02AB81"/>
<path d="M174.784 86.5797C174.737 85.7725 174.28 85.2957 173.45 85.2591C172.681 85.2247 171.909 85.2538 171.139 85.229C170.833 85.2193 170.787 85.3517 170.793 85.61C170.807 86.2547 170.798 86.8994 170.798 87.5441C170.798 88.1888 170.813 88.8345 170.791 89.4782C170.78 89.7957 170.853 89.9539 171.201 89.9022C171.341 89.8807 171.49 89.8796 171.63 89.9022C172.132 89.9829 172.312 89.8204 172.287 89.278C172.24 88.2265 172.274 88.2254 173.3 88.1748C173.408 88.1694 173.517 88.164 173.621 88.1436C174.393 87.9875 174.83 87.3956 174.784 86.5797ZM172.655 87.2158C172.232 87.2556 172.23 87.0103 172.269 86.7735C172.256 86.4474 172.198 86.1718 172.646 86.2106C173.001 86.2396 173.328 86.287 173.335 86.7057C173.341 87.1308 173.003 87.1835 172.655 87.2158Z" fill="#02AB81"/>
<path d="M179.228 89.1012C179.242 89.8987 179.257 89.8987 178.447 89.8987C177.586 89.8987 176.726 89.8891 175.865 89.9041C175.588 89.9084 175.486 89.8266 175.493 89.5414C175.51 88.8795 175.499 88.2165 175.499 87.5535C175.499 86.9099 175.513 86.2641 175.492 85.6205C175.483 85.3116 175.589 85.232 175.89 85.2266C176.957 85.2083 176.957 85.1965 176.957 86.276C176.957 86.9562 176.979 87.6375 176.948 88.3166C176.931 88.6858 177.067 88.7708 177.405 88.7525C177.888 88.7278 178.373 88.759 178.857 88.7417C179.13 88.7321 179.223 88.8128 179.228 89.1012Z" fill="#02AB81"/>
<path d="M181.379 89.5423C181.388 89.8253 181.298 89.8985 181.019 89.906C179.882 89.9351 179.882 89.9459 179.882 88.8093C179.882 87.7718 179.891 86.7342 179.876 85.6967C179.872 85.3781 179.916 85.2221 180.303 85.2232C181.373 85.2264 181.373 85.2059 181.373 86.2704V87.6114C181.373 88.255 181.36 88.8997 181.379 89.5423Z" fill="#02AB81"/>
<path d="M181.389 81.2406C180.301 82.39 178.911 82.8302 177.395 82.9831C176.949 83.0283 176.499 83.0315 176.188 83.0476C175.012 83.0078 173.979 82.9389 172.964 82.6699C170.671 82.0629 169.661 80.0534 169.42 78.2614C169.383 77.987 169.491 77.9385 169.74 77.9256C170.903 77.8686 172.067 77.804 173.229 77.7071C173.583 77.677 173.714 77.7631 173.798 78.1183C174.172 79.6832 175.247 80.3699 176.831 80.0965C177.583 79.9663 178.156 79.441 178.237 78.806C178.312 78.2248 177.908 77.6533 177.189 77.3423C176.394 76.9989 175.539 76.8633 174.709 76.6459C173.718 76.3855 172.747 76.069 171.87 75.532C169.212 73.9025 169.327 70.2636 172.07 68.774C173.075 68.2283 174.161 68.04 175.278 67.9937C176.826 67.928 178.365 67.9625 179.806 68.6502C181.22 69.3251 181.86 70.5251 182.123 71.9921C182.167 72.2364 182.112 72.3376 181.836 72.3505C180.653 72.4043 179.471 72.471 178.292 72.5593C177.97 72.583 177.88 72.4689 177.794 72.1729C177.433 70.9244 175.998 70.3088 174.804 70.8695C174.404 71.0568 174.132 71.3646 174.145 71.8306C174.158 72.2633 174.453 72.5076 174.823 72.6486C175.781 73.0135 176.804 73.1254 177.785 73.4085C178.61 73.6474 179.43 73.895 180.209 74.2684C183.318 75.758 183.159 79.3721 181.389 81.2406Z" fill="#02AB81"/>
<path d="M185.675 86.3569C185.222 85.1472 185.222 85.1537 183.94 85.2279C183.726 85.2408 183.619 85.3097 183.548 85.5024C183.014 86.9414 182.474 88.3782 181.905 89.8979C182.347 89.8979 182.724 89.8807 183.098 89.9044C183.351 89.9205 183.477 89.8075 183.5 89.589C183.542 89.1876 183.773 89.1004 184.128 89.1402C184.341 89.165 184.56 89.165 184.773 89.1402C185.111 89.1004 185.32 89.1951 185.364 89.5632C185.386 89.7451 185.445 89.9076 185.693 89.9011C186.112 89.8893 186.531 89.8979 187.003 89.8979C186.539 88.6623 186.106 87.5096 185.675 86.3569ZM184.817 88.0725C184.576 88.1199 184.317 88.1231 184.072 88.0919C183.91 88.0715 184.011 87.9262 184.038 87.8347C184.16 87.4278 184.285 87.0221 184.439 86.5162C184.591 87.0124 184.716 87.4042 184.829 87.7981C184.855 87.8885 184.959 88.0446 184.817 88.0725Z" fill="#02AB81"/>
<path d="M191.944 89.4678C191.952 89.8294 191.827 89.879 191.494 89.9134C190.792 89.9866 190.328 89.7681 189.988 89.1277C189.694 88.5734 189.283 88.0816 188.924 87.5617C188.892 87.5736 188.86 87.5865 188.827 87.5994C188.827 88.2355 188.813 88.8737 188.834 89.5098C188.843 89.809 188.757 89.9026 188.448 89.9059C187.426 89.9198 187.428 89.9338 187.428 88.906C187.428 87.8146 187.436 86.7222 187.421 85.6309C187.417 85.3349 187.5 85.2553 187.806 85.2208C188.522 85.1379 189.014 85.3371 189.362 86.0119C189.659 86.5866 190.085 87.0946 190.534 87.7501C190.534 86.9332 190.547 86.2594 190.528 85.5878C190.519 85.3015 190.615 85.2337 190.892 85.2273C191.935 85.2025 191.935 85.1918 191.935 86.2454C191.935 87.3196 191.919 88.3937 191.944 89.4678Z" fill="#02AB81"/>
<path d="M196.91 85.7391C196.894 85.8435 196.897 85.9544 196.909 86.061C196.944 86.3451 196.82 86.4183 196.543 86.4258C195.471 86.457 195.472 86.4678 195.472 87.571C195.472 88.234 195.462 88.898 195.476 89.561C195.481 89.8172 195.395 89.8914 195.139 89.9054C193.998 89.9668 193.998 89.9765 193.998 88.8625C193.998 88.2167 193.966 87.5688 194.009 86.9263C194.038 86.4775 193.865 86.3602 193.466 86.4161C193.361 86.4312 193.248 86.4021 193.143 86.4215C192.597 86.5238 192.503 86.2665 192.503 85.7714C192.503 85.3033 192.657 85.1978 193.088 85.2258C193.642 85.2624 194.2 85.2344 194.756 85.2344C195.313 85.2344 195.873 85.2667 196.425 85.2247C196.852 85.1924 196.968 85.356 196.91 85.7391Z" fill="#02AB81"/>
<path d="M197.321 79.0093C197.287 79.0459 197.232 79.076 197.221 79.1191C196.649 81.2361 195.196 82.4028 193.113 82.8161C191.169 83.2014 189.225 83.1444 187.319 82.5535C185.274 81.9196 184.289 79.8682 184.108 78.172C184.084 77.9556 184.192 77.9416 184.353 77.9319C185.588 77.8598 186.824 77.7899 188.058 77.7016C188.347 77.6801 188.417 77.8114 188.475 78.0536C188.869 79.6841 189.932 80.3783 191.567 80.0888C192.253 79.9661 192.832 79.4409 192.912 78.8672C193 78.2215 192.666 77.7081 191.936 77.3701C191.133 76.9988 190.256 76.875 189.411 76.6479C188.527 76.4112 187.661 76.1281 186.849 75.6954C185.435 74.941 184.581 73.8022 184.639 72.1685C184.7 70.4464 185.629 69.2528 187.193 68.5661C188.612 67.9419 190.123 67.9397 191.634 67.9925C192.224 68.0129 192.81 68.0958 193.386 68.2443C195.494 68.7879 196.613 70.0988 196.835 72.3299C195.53 72.4052 194.224 72.472 192.92 72.5624C192.67 72.5796 192.568 72.5053 192.515 72.2718C192.197 70.8618 191.046 70.5895 189.904 70.7435C189.316 70.8231 188.88 71.2472 188.832 71.7239C188.787 72.1566 189.085 72.5322 189.718 72.7217C191.107 73.135 192.55 73.3524 193.917 73.8496C195.212 74.321 196.369 74.97 196.972 76.2971C197.116 76.6146 197.206 76.9568 197.321 77.2872C197.111 77.3023 197.105 77.1269 197.072 76.9999C196.706 75.5641 195.705 74.73 194.4 74.1897C193.184 73.686 191.9 73.4126 190.623 73.1188C190.184 73.0176 189.741 72.9326 189.349 72.7012C188.976 72.4817 188.664 72.1954 188.716 71.7229C188.766 71.2665 189.024 70.9232 189.46 70.7435C190.389 70.3603 192.145 70.525 192.582 71.9919C192.676 72.3062 192.874 72.4225 193.181 72.4052C194.183 72.3493 195.185 72.3094 196.185 72.2201C196.561 72.1857 196.684 72.0425 196.599 71.6648C196.262 70.173 195.45 69.072 193.97 68.5834C191.845 67.8816 189.692 67.8795 187.572 68.5898C186.067 69.0935 185.075 70.1214 184.824 71.7412C184.625 73.0316 185.051 74.109 186.028 74.9614C187.034 75.8396 188.291 76.1841 189.537 76.5328C190.347 76.7599 191.191 76.8697 191.964 77.2313C192.277 77.3777 192.572 77.5391 192.775 77.8318C193.402 78.7381 192.863 79.9597 191.709 80.1846C191.181 80.2868 190.63 80.2901 190.102 80.1663C189.186 79.951 188.661 79.3074 188.431 78.441C188.309 77.9814 188.075 77.8211 187.633 77.862C186.668 77.9502 185.699 77.9621 184.735 78.0579C184.342 78.0966 184.248 78.243 184.323 78.6035C184.737 80.5602 185.741 82.0261 187.768 82.533C189.835 83.0486 191.922 83.1207 193.973 82.4233C195.415 81.9336 196.432 80.9832 196.946 79.527C197.017 79.3268 197.013 79.048 197.321 79.0093Z" fill="#02AB81"/>
<path d="M95.4899 81.7609C95.4597 80.7083 94.8767 79.9947 93.7571 79.6471C92.9069 79.3823 92.0287 79.4017 91.1515 79.3791C90.853 79.3715 90.8519 79.5362 90.8541 79.7515C90.8606 80.4844 90.8563 81.2174 90.8563 81.9514C90.8563 82.7026 90.8573 83.4539 90.8552 84.2051C90.8552 84.3892 90.8358 84.5581 91.1149 84.5592C92.047 84.5624 92.978 84.571 93.8724 84.2471C95.0125 83.8359 95.5265 83.0417 95.4899 81.7609ZM95.4899 81.7609C95.4597 80.7083 94.8767 79.9947 93.7571 79.6471C92.9069 79.3823 92.0287 79.4017 91.1515 79.3791C90.853 79.3715 90.8519 79.5362 90.8541 79.7515C90.8606 80.4844 90.8563 81.2174 90.8563 81.9514C90.8563 82.7026 90.8573 83.4539 90.8552 84.2051C90.8552 84.3892 90.8358 84.5581 91.1149 84.5592C92.047 84.5624 92.978 84.571 93.8724 84.2471C95.0125 83.8359 95.5265 83.0417 95.4899 81.7609ZM95.4899 81.7609C95.4597 80.7083 94.8767 79.9947 93.7571 79.6471C92.9069 79.3823 92.0287 79.4017 91.1515 79.3791C90.853 79.3715 90.8519 79.5362 90.8541 79.7515C90.8606 80.4844 90.8563 81.2174 90.8563 81.9514C90.8563 82.7026 90.8573 83.4539 90.8552 84.2051C90.8552 84.3892 90.8358 84.5581 91.1149 84.5592C92.047 84.5624 92.978 84.571 93.8724 84.2471C95.0125 83.8359 95.5265 83.0417 95.4899 81.7609ZM95.4899 81.7609C95.4597 80.7083 94.8767 79.9947 93.7571 79.6471C92.9069 79.3823 92.0287 79.4017 91.1515 79.3791C90.853 79.3715 90.8519 79.5362 90.8541 79.7515C90.8606 80.4844 90.8563 81.2174 90.8563 81.9514C90.8563 82.7026 90.8573 83.4539 90.8552 84.2051C90.8552 84.3892 90.8358 84.5581 91.1149 84.5592C92.047 84.5624 92.978 84.571 93.8724 84.2471C95.0125 83.8359 95.5265 83.0417 95.4899 81.7609ZM95.4899 81.7609C95.4597 80.7083 94.8767 79.9947 93.7571 79.6471C92.9069 79.3823 92.0287 79.4017 91.1515 79.3791C90.853 79.3715 90.8519 79.5362 90.8541 79.7515C90.8606 80.4844 90.8563 81.2174 90.8563 81.9514C90.8563 82.7026 90.8573 83.4539 90.8552 84.2051C90.8552 84.3892 90.8358 84.5581 91.1149 84.5592C92.047 84.5624 92.978 84.571 93.8724 84.2471C95.0125 83.8359 95.5265 83.0417 95.4899 81.7609ZM95.4899 81.7609C95.4597 80.7083 94.8767 79.9947 93.7571 79.6471C92.9069 79.3823 92.0287 79.4017 91.1515 79.3791C90.853 79.3715 90.8519 79.5362 90.8541 79.7515C90.8606 80.4844 90.8563 81.2174 90.8563 81.9514C90.8563 82.7026 90.8573 83.4539 90.8552 84.2051C90.8552 84.3892 90.8358 84.5581 91.1149 84.5592C92.047 84.5624 92.978 84.571 93.8724 84.2471C95.0125 83.8359 95.5265 83.0417 95.4899 81.7609ZM139.535 78.2759C136.948 72.535 134.354 66.7963 131.789 61.0457C131.58 60.5775 131.338 60.4731 130.867 60.5054C128.989 60.6345 127.108 60.726 125.228 60.8315C119.48 61.1544 113.732 61.4762 107.986 61.7991C102.219 62.122 96.4543 62.4459 90.6892 62.7699C86.1946 63.0217 81.7 63.2714 77.2065 63.5287C75.5782 63.6212 73.95 63.7321 72.3218 63.8343V64.0496C72.8606 65.0968 73.1882 66.2269 73.5933 67.3247C78.5847 80.859 83.5653 94.3975 88.547 107.936C88.6138 108.119 88.6504 108.312 88.7011 108.5H88.9166C88.9834 108.321 89.1634 108.382 89.2851 108.344C98.3035 105.505 107.323 102.674 116.342 99.8413C117.656 99.4291 118.968 99.0137 120.341 98.5799C119.781 97.8782 119.263 97.2195 118.732 96.5705C118.408 96.1744 118.105 95.7418 118.063 95.2445C118.02 94.7344 117.781 94.7075 117.379 94.7182C114.939 94.785 112.546 94.5277 110.243 93.6559C105.632 91.9113 103.337 88.0776 104.129 83.2214C104.655 79.9947 106.657 77.8411 109.528 76.4376C112.128 75.1676 114.91 74.891 117.758 74.9878C119.273 75.0384 120.759 75.2214 122.187 75.7585C122.379 75.8306 122.545 75.8693 122.543 76.1405C122.532 77.7291 122.537 79.3188 122.537 80.8955C122.371 80.9526 122.293 80.8546 122.202 80.8094C120.298 79.8677 118.305 79.4167 116.168 79.6481C113.767 79.9086 111.94 81.5951 111.664 83.8532C111.32 86.6827 112.53 88.8062 114.986 89.6651C116.921 90.341 118.871 90.2065 120.817 89.7221C121.534 89.5435 122.238 89.3088 122.919 89.1076C123.095 89.3853 122.799 89.7706 123.147 89.9126C123.94 90.2334 124.465 90.8899 125.112 91.3925C125.395 91.6121 125.619 91.9134 126.003 92.077V91.4356C126.003 86.235 126.011 81.0333 125.991 75.8327C125.989 75.3409 126.127 75.244 126.589 75.2494C128.672 75.2752 130.755 75.2731 132.838 75.2505C133.269 75.2451 133.375 75.3731 133.372 75.7907C133.357 79.3597 133.363 82.9286 133.368 86.4987C133.368 86.6633 133.296 86.8474 133.436 87.0142C133.481 86.9712 133.528 86.941 133.555 86.9001C135.402 84.1642 137.391 81.5327 139.507 78.9991C139.738 78.7225 139.647 78.5234 139.535 78.2759ZM134.041 70.3351C133.698 71.8419 132.363 73.0301 130.717 73.3013C129.534 73.4972 128.391 73.396 127.325 72.8234C125.653 71.9258 124.941 70.2285 125.357 68.1987C125.692 66.5584 127.243 65.269 129.06 65.1259C129.273 65.1097 129.49 65.1237 129.704 65.1237C130.723 65.0645 131.658 65.3261 132.493 65.9051C133.872 66.8619 134.449 68.5366 134.041 70.3351ZM84.0696 94.4266C83.7162 94.4298 83.6267 94.3318 83.6278 93.9821C83.6429 90.9351 83.6364 87.8871 83.6364 84.8401C83.6364 81.8104 83.6407 78.7807 83.63 75.752C83.6289 75.4119 83.6634 75.2451 84.0782 75.2515C87.325 75.301 90.5739 75.174 93.8185 75.3387C95.6192 75.4302 97.3724 75.7574 99.0265 76.5226C101.037 77.4514 102.286 78.9453 102.477 81.198C102.678 83.5744 101.812 85.4773 99.8207 86.8237C98.1073 87.9818 96.1494 88.3886 94.1343 88.5856C93.241 88.6717 92.3433 88.718 91.4468 88.6706C91.0556 88.6502 90.9285 88.7459 90.9349 89.1635C90.9629 90.7586 90.9338 92.3536 90.9554 93.9498C90.9597 94.3265 90.853 94.4298 90.4769 94.4266C88.3412 94.4093 86.2054 94.4104 84.0696 94.4266ZM90.8563 81.9514C90.8563 82.7026 90.8573 83.4539 90.8552 84.2051C90.8552 84.3892 90.8358 84.5581 91.1149 84.5592C92.047 84.5624 92.978 84.571 93.8724 84.2471C95.0125 83.8359 95.5265 83.0417 95.4899 81.7609C95.4597 80.7083 94.8767 79.9947 93.7571 79.6471C92.9069 79.3823 92.0287 79.4017 91.1515 79.3791C90.853 79.3715 90.8519 79.5362 90.8541 79.7515C90.8606 80.4844 90.8563 81.2174 90.8563 81.9514ZM95.4899 81.7609C95.4597 80.7083 94.8767 79.9947 93.7571 79.6471C92.9069 79.3823 92.0287 79.4017 91.1515 79.3791C90.853 79.3715 90.8519 79.5362 90.8541 79.7515C90.8606 80.4844 90.8563 81.2174 90.8563 81.9514C90.8563 82.7026 90.8573 83.4539 90.8552 84.2051C90.8552 84.3892 90.8358 84.5581 91.1149 84.5592C92.047 84.5624 92.978 84.571 93.8724 84.2471C95.0125 83.8359 95.5265 83.0417 95.4899 81.7609ZM95.4899 81.7609C95.4597 80.7083 94.8767 79.9947 93.7571 79.6471C92.9069 79.3823 92.0287 79.4017 91.1515 79.3791C90.853 79.3715 90.8519 79.5362 90.8541 79.7515C90.8606 80.4844 90.8563 81.2174 90.8563 81.9514C90.8563 82.7026 90.8573 83.4539 90.8552 84.2051C90.8552 84.3892 90.8358 84.5581 91.1149 84.5592C92.047 84.5624 92.978 84.571 93.8724 84.2471C95.0125 83.8359 95.5265 83.0417 95.4899 81.7609ZM95.4899 81.7609C95.4597 80.7083 94.8767 79.9947 93.7571 79.6471C92.9069 79.3823 92.0287 79.4017 91.1515 79.3791C90.853 79.3715 90.8519 79.5362 90.8541 79.7515C90.8606 80.4844 90.8563 81.2174 90.8563 81.9514C90.8563 82.7026 90.8573 83.4539 90.8552 84.2051C90.8552 84.3892 90.8358 84.5581 91.1149 84.5592C92.047 84.5624 92.978 84.571 93.8724 84.2471C95.0125 83.8359 95.5265 83.0417 95.4899 81.7609ZM95.4899 81.7609C95.4597 80.7083 94.8767 79.9947 93.7571 79.6471C92.9069 79.3823 92.0287 79.4017 91.1515 79.3791C90.853 79.3715 90.8519 79.5362 90.8541 79.7515C90.8606 80.4844 90.8563 81.2174 90.8563 81.9514C90.8563 82.7026 90.8573 83.4539 90.8552 84.2051C90.8552 84.3892 90.8358 84.5581 91.1149 84.5592C92.047 84.5624 92.978 84.571 93.8724 84.2471C95.0125 83.8359 95.5265 83.0417 95.4899 81.7609Z" fill="#02AB81"/>
<path d="M197.321 77.2872V79.0093C197.287 79.0459 197.232 79.076 197.221 79.1191C196.649 81.2361 195.196 82.4028 193.113 82.8161C191.169 83.2014 189.225 83.1444 187.319 82.5535C185.274 81.9196 184.289 79.8682 184.108 78.172C184.084 77.9556 184.192 77.9416 184.353 77.9319C185.588 77.8598 186.824 77.7899 188.058 77.7016C188.347 77.6801 188.417 77.8114 188.475 78.0536C188.869 79.6841 189.932 80.3783 191.567 80.0888C192.253 79.9661 192.832 79.4409 192.912 78.8672C193 78.2215 192.666 77.7081 191.936 77.3701C191.133 76.9988 190.256 76.875 189.411 76.6479C188.527 76.4112 187.661 76.1281 186.849 75.6954C185.435 74.941 184.581 73.8022 184.639 72.1685C184.7 70.4464 185.629 69.2528 187.193 68.5661C188.612 67.9419 190.123 67.9397 191.634 67.9925C192.224 68.0129 192.81 68.0958 193.386 68.2443C195.494 68.7879 196.613 70.0988 196.835 72.3299C195.53 72.4052 194.224 72.472 192.92 72.5624C192.67 72.5796 192.568 72.5053 192.515 72.2718C192.197 70.8618 191.046 70.5895 189.904 70.7435C189.316 70.8231 188.88 71.2472 188.832 71.7239C188.787 72.1566 189.085 72.5322 189.718 72.7217C191.107 73.135 192.55 73.3524 193.917 73.8496C195.212 74.321 196.369 74.97 196.972 76.2971C197.116 76.6146 197.206 76.9568 197.321 77.2872Z" fill="#02AB81"/>
<path d="M151.967 73.7545C151.896 73.4886 151.698 73.3896 151.449 73.3616C151.289 73.3433 151.126 73.3186 150.967 73.3261C149.712 73.3831 148.459 73.4757 147.254 73.8599C146.575 74.0773 145.862 74.242 145.351 74.8006C141.749 78.7312 138.355 82.8286 135.337 87.2273C133.298 90.199 131.404 93.2599 129.645 96.4037C129.301 97.0172 129.086 97.0559 128.57 96.6082C128.273 96.3499 127.976 96.0905 127.678 95.8311C126.124 94.475 124.568 93.12 123.019 91.7596C122.721 91.4991 122.408 91.3549 122.048 91.5895C121.199 92.1427 120.43 92.7853 119.916 93.6775C119.472 94.4492 119.515 94.8894 120.077 95.5933C121.832 97.7943 123.593 99.991 125.345 102.194C126.293 103.389 127.528 103.953 129.048 103.934C129.352 103.914 129.658 103.91 129.959 103.87C131.128 103.714 132.028 103.285 132.649 102.132C135.018 97.7329 137.545 93.4213 140.186 89.1786C143.512 83.8317 146.84 78.4836 151.758 74.3776C151.954 74.2151 152.034 74.0095 151.967 73.7545Z" fill="#02AB81"/>
<path d="M167.776 74.1523C167.37 70.5177 165.329 68.1509 161.243 68.223C159.144 68.2596 157.044 68.2392 154.944 68.2198C154.54 68.2166 154.398 68.2984 154.403 68.7386C154.428 70.9966 154.415 73.2557 154.415 75.5138C154.415 77.7901 154.423 80.0664 154.407 82.3417C154.405 82.6969 154.506 82.7894 154.854 82.7841C156.146 82.7647 157.438 82.7916 158.73 82.7722C160.002 82.7528 161.275 82.8551 162.546 82.6732C165.277 82.2825 167.1 80.625 167.639 77.9494C167.893 76.6977 167.919 75.4212 167.776 74.1523ZM163.136 77.4715C162.902 78.7211 162.131 79.3529 160.809 79.4314C160.325 79.4594 159.839 79.4325 159.356 79.4637C159.027 79.4863 158.926 79.3862 158.933 79.0494C158.954 77.8665 158.941 76.6826 158.941 75.4998C158.941 74.3159 158.952 73.133 158.934 71.9502C158.928 71.6209 159.019 71.5003 159.354 71.5272C159.8 71.5638 160.25 71.5466 160.698 71.58C162.076 71.6854 162.881 72.3764 163.136 73.7293C163.372 74.9724 163.37 76.2295 163.136 77.4715Z" fill="#02AB81"/>
<path d="M181.389 81.2406C180.301 82.39 178.911 82.8302 177.395 82.9831C176.949 83.0283 176.499 83.0315 176.188 83.0476C175.012 83.0078 173.979 82.9389 172.964 82.6699C170.671 82.0629 169.661 80.0534 169.42 78.2614C169.383 77.987 169.491 77.9385 169.74 77.9256C170.903 77.8686 172.067 77.804 173.229 77.7071C173.583 77.677 173.714 77.7631 173.798 78.1183C174.172 79.6832 175.247 80.3699 176.831 80.0965C177.583 79.9663 178.156 79.441 178.237 78.806C178.312 78.2248 177.908 77.6533 177.189 77.3423C176.394 76.9989 175.539 76.8633 174.709 76.6459C173.718 76.3855 172.747 76.069 171.87 75.532C169.212 73.9025 169.327 70.2636 172.07 68.774C173.075 68.2283 174.161 68.04 175.278 67.9937C176.826 67.928 178.365 67.9625 179.806 68.6502C181.22 69.3251 181.86 70.5251 182.123 71.9921C182.167 72.2364 182.112 72.3376 181.836 72.3505C180.653 72.4043 179.471 72.471 178.292 72.5593C177.97 72.583 177.88 72.4689 177.794 72.1729C177.433 70.9244 175.998 70.3088 174.804 70.8695C174.404 71.0568 174.132 71.3646 174.145 71.8306C174.158 72.2633 174.453 72.5076 174.823 72.6486C175.781 73.0135 176.804 73.1254 177.785 73.4085C178.61 73.6474 179.43 73.895 180.209 74.2684C183.318 75.758 183.159 79.3721 181.389 81.2406Z" fill="#02AB81"/>
<path d="M169.915 89.436C169.934 89.9741 169.64 89.9085 169.314 89.8988C169.01 89.8891 168.666 90.0086 168.696 89.4553C168.741 88.6212 168.708 87.7828 168.595 86.9325C168.372 87.7882 168.107 88.6374 167.941 89.5049C167.843 90.0129 167.521 89.8729 167.223 89.8999C166.912 89.9278 166.693 89.8955 166.609 89.507C166.417 88.618 166.171 87.7419 165.856 86.8626C165.856 87.6978 165.823 88.5351 165.869 89.3682C165.895 89.845 165.723 89.9472 165.296 89.9063C164.949 89.8729 164.608 90.0043 164.636 89.3951C164.693 88.1423 164.661 86.8852 164.647 85.6292C164.643 85.3375 164.709 85.2331 165.028 85.2256C166.557 85.189 166.551 85.1793 166.933 86.6506C167.035 87.0402 167.073 87.4535 167.312 87.8732C167.512 87.1048 167.696 86.4009 167.879 85.6959C167.902 85.6098 167.885 85.4849 167.939 85.4387C168.463 84.9812 169.088 85.3117 169.666 85.2514C170.056 85.2116 169.889 85.5893 169.891 85.7777C169.909 86.9971 169.869 88.2176 169.915 89.436Z" fill="#02AB81"/>
<path d="M191.494 89.9134C190.792 89.9866 190.328 89.7681 189.988 89.1277C189.694 88.5734 189.283 88.0816 188.924 87.5617C188.892 87.5736 188.86 87.5865 188.827 87.5994C188.827 88.2355 188.813 88.8737 188.834 89.5098C188.843 89.809 188.757 89.9026 188.448 89.9059C187.426 89.9198 187.428 89.9338 187.428 88.906C187.428 87.8146 187.436 86.7222 187.421 85.6309C187.417 85.3349 187.5 85.2553 187.806 85.2208C188.522 85.1379 189.014 85.3371 189.362 86.0119C189.659 86.5866 190.085 87.0946 190.534 87.7501C190.534 86.9332 190.547 86.2594 190.528 85.5878C190.519 85.3015 190.615 85.2337 190.892 85.2273C191.935 85.2025 191.935 85.1918 191.935 86.2454C191.935 87.3196 191.919 88.3937 191.944 89.4678C191.952 89.8294 191.827 89.879 191.494 89.9134Z" fill="#02AB81"/>
<path d="M161.483 85.1631C159.928 85.1609 159.063 86.0338 159.065 87.5976C159.067 89.1572 159.923 89.9891 161.521 89.9881C163.078 89.987 163.922 89.1206 163.914 87.5331C163.907 86.0155 163.034 85.1642 161.483 85.1631ZM162.423 87.6816C162.422 87.6924 162.423 87.8355 162.408 87.9765C162.344 88.5695 162.024 88.8903 161.497 88.8935C160.978 88.8978 160.649 88.5814 160.56 87.9959C160.519 87.73 160.515 87.4663 160.555 87.1994C160.647 86.5881 160.995 86.2555 161.527 86.2803C162.06 86.3061 162.385 86.6699 162.422 87.2823C162.427 87.3716 162.423 87.461 162.423 87.6816Z" fill="#02AB81"/>
<path d="M185.675 86.3569C185.222 85.1472 185.222 85.1537 183.94 85.2279C183.726 85.2408 183.619 85.3097 183.548 85.5024C183.014 86.9414 182.474 88.3782 181.905 89.8979C182.347 89.8979 182.724 89.8807 183.098 89.9044C183.351 89.9205 183.477 89.8075 183.5 89.589C183.542 89.1876 183.773 89.1004 184.128 89.1402C184.341 89.165 184.56 89.165 184.773 89.1402C185.111 89.1004 185.32 89.1951 185.364 89.5632C185.386 89.7451 185.445 89.9076 185.693 89.9011C186.112 89.8893 186.531 89.8979 187.003 89.8979C186.539 88.6623 186.106 87.5096 185.675 86.3569ZM184.817 88.0725C184.576 88.1199 184.317 88.1231 184.072 88.0919C183.91 88.0715 184.011 87.9262 184.038 87.8347C184.16 87.4278 184.285 87.0221 184.439 86.5162C184.591 87.0124 184.716 87.4042 184.829 87.7981C184.855 87.8885 184.959 88.0446 184.817 88.0725Z" fill="#02AB81"/>
<path d="M158.335 88.9939C157.835 89.9776 156.924 90.0529 155.975 89.9765C155.052 89.9022 154.371 89.3436 154.129 88.4923C153.952 87.8745 153.953 87.2514 154.129 86.6336C154.387 85.7284 155.16 85.1881 156.21 85.1634C157.5 85.1322 158.114 85.5153 158.511 86.6282C158.242 86.6885 158.01 86.7261 157.789 86.7939C157.48 86.8876 157.231 86.9392 157.031 86.5668C156.874 86.2762 156.541 86.2332 156.217 86.2935C155.857 86.3602 155.65 86.5991 155.559 86.9274C155.442 87.3482 155.464 87.783 155.541 88.2082C155.613 88.6042 155.867 88.8475 156.269 88.8873C156.662 88.9261 156.96 88.7668 157.141 88.3954C157.326 88.0144 157.809 87.9746 158.372 88.3126C158.745 88.5364 158.434 88.799 158.335 88.9939Z" fill="#02AB81"/>
<path d="M174.784 86.5797C174.737 85.7725 174.28 85.2957 173.45 85.2591C172.681 85.2247 171.909 85.2538 171.139 85.229C170.833 85.2193 170.787 85.3517 170.793 85.61C170.807 86.2547 170.798 86.8994 170.798 87.5441C170.798 88.1888 170.813 88.8345 170.791 89.4782C170.78 89.7957 170.853 89.9539 171.201 89.9022C171.341 89.8807 171.49 89.8796 171.63 89.9022C172.132 89.9829 172.312 89.8204 172.287 89.278C172.24 88.2265 172.274 88.2254 173.3 88.1748C173.408 88.1694 173.517 88.164 173.621 88.1436C174.393 87.9875 174.83 87.3956 174.784 86.5797ZM172.655 87.2158C172.232 87.2556 172.23 87.0103 172.269 86.7735C172.256 86.4474 172.198 86.1718 172.646 86.2106C173.001 86.2396 173.328 86.287 173.335 86.7057C173.341 87.1308 173.003 87.1835 172.655 87.2158Z" fill="#02AB81"/>
<path d="M144.944 90.861C143.44 91.3152 141.941 91.7856 140.44 92.2484C140.393 92.2624 140.335 92.2419 140.234 92.2344C141.312 90.5048 142.368 88.8107 143.473 87.0381C144.025 88.264 144.541 89.407 145.057 90.5489C145.118 90.6867 145.17 90.7932 144.944 90.861Z" fill="#02AB81"/>
<path d="M196.909 86.061C196.944 86.3451 196.82 86.4183 196.543 86.4258C195.471 86.457 195.472 86.4678 195.472 87.571C195.472 88.234 195.462 88.898 195.476 89.561C195.481 89.8172 195.395 89.8914 195.139 89.9054C193.998 89.9668 193.998 89.9765 193.998 88.8625C193.998 88.2167 193.966 87.5688 194.009 86.9263C194.038 86.4775 193.865 86.3602 193.466 86.4161C193.361 86.4312 193.248 86.4021 193.143 86.4215C192.597 86.5238 192.503 86.2665 192.503 85.7714C192.503 85.3033 192.657 85.1978 193.088 85.2258C193.642 85.2624 194.2 85.2344 194.756 85.2344C195.313 85.2344 195.873 85.2667 196.425 85.2247C196.852 85.1924 196.968 85.356 196.91 85.7391C196.894 85.8435 196.897 85.9544 196.909 86.061Z" fill="#02AB81"/>
<path d="M178.447 89.8987C177.586 89.8987 176.726 89.8891 175.865 89.9041C175.588 89.9084 175.486 89.8266 175.493 89.5414C175.51 88.8795 175.499 88.2165 175.499 87.5535C175.499 86.9099 175.513 86.2641 175.492 85.6205C175.483 85.3116 175.589 85.232 175.89 85.2266C176.957 85.2083 176.957 85.1965 176.957 86.276C176.957 86.9562 176.979 87.6375 176.948 88.3166C176.931 88.6858 177.067 88.7708 177.405 88.7525C177.888 88.7278 178.373 88.759 178.857 88.7417C179.13 88.7321 179.223 88.8128 179.228 89.1012C179.242 89.8987 179.257 89.8987 178.447 89.8987Z" fill="#02AB81"/>
<path d="M181.379 89.5423C181.388 89.8253 181.298 89.8985 181.019 89.906C179.882 89.9351 179.882 89.9459 179.882 88.8093C179.882 87.7718 179.891 86.7342 179.876 85.6967C179.872 85.3781 179.916 85.2221 180.303 85.2232C181.373 85.2264 181.373 85.2059 181.373 86.2704V87.6114C181.373 88.255 181.36 88.8997 181.379 89.5423Z" fill="#02AB81"/>
<path d="M93.8717 84.2477C92.9773 84.5716 92.0462 84.563 91.1141 84.5598C90.835 84.5587 90.8544 84.3897 90.8544 84.2057C90.8566 83.4544 90.8555 82.7032 90.8555 81.952C90.8555 81.2179 90.8598 80.485 90.8533 79.752C90.8512 79.5368 90.8523 79.3721 91.1507 79.3796C92.0279 79.4022 92.9061 79.3829 93.7563 79.6476C94.876 79.9953 95.4589 80.7088 95.4891 81.7615C95.5257 83.0422 95.0117 83.8365 93.8717 84.2477Z" fill="#02AB81"/>
<path d="M93.8717 84.2477C92.9773 84.5716 92.0462 84.563 91.1141 84.5598C90.835 84.5587 90.8544 84.3897 90.8544 84.2057C90.8566 83.4544 90.8555 82.7032 90.8555 81.952C90.8555 81.2179 90.8598 80.485 90.8533 79.752C90.8512 79.5368 90.8523 79.3721 91.1507 79.3796C92.0279 79.4022 92.9061 79.3829 93.7563 79.6476C94.876 79.9953 95.4589 80.7088 95.4891 81.7615C95.5257 83.0422 95.0117 83.8365 93.8717 84.2477Z" fill="#02AB81"/>
</g>
</g>
<defs>
<filter id="filter0_d_73_10513" x="0" y="0" width="275" height="177" filterUnits="userSpaceOnUse" color-interpolation-filters="sRGB">
<feFlood flood-opacity="0" result="BackgroundImageFix"/>
<feColorMatrix in="SourceAlpha" type="matrix" values="0 0 0 0 0 0 0 0 0 0 0 0 0 0 0 0 0 0 127 0" result="hardAlpha"/>
<feOffset dy="4"/>
<feGaussianBlur stdDeviation="20"/>
<feComposite in2="hardAlpha" operator="out"/>
<feColorMatrix type="matrix" values="0 0 0 0 0 0 0 0 0 0 0 0 0 0 0 0 0 0 0.15 0"/>
<feBlend mode="normal" in2="BackgroundImageFix" result="effect1_dropShadow_73_10513"/>
<feBlend mode="normal" in="SourceGraphic" in2="effect1_dropShadow_73_10513" result="shape"/>
</filter>
<clipPath id="clip0_73_10513">
<rect width="125" height="48" fill="white" transform="translate(72.3218 60.5)"/>
</clipPath>
</defs>
</svg>
