<svg width="275" height="177" viewBox="0 0 275 177" fill="none" xmlns="http://www.w3.org/2000/svg">
<g filter="url(#filter0_d_73_10515)">
<rect x="40" y="36" width="195" height="97" rx="19" fill="white" shape-rendering="crispEdges"/>
<rect x="101.528" y="70.7446" width="62.4607" height="43.3937" rx="8" fill="#02AB81"/>
<path d="M118.383 86.4661V88.3762H115.742V95.9487H113.682V88.3762H111.054V86.4661H118.383ZM121.81 94.0387H125.441V95.9487H119.751V86.4661H121.81V94.0387ZM129.826 96.1384C128.724 96.1384 127.835 95.8494 127.157 95.2714C126.489 94.6844 126.155 93.8851 126.155 92.8736H128.228C128.228 93.0994 128.268 93.3026 128.349 93.4832C128.44 93.6548 128.557 93.7948 128.702 93.9032C128.855 94.0116 129.027 94.0928 129.216 94.147C129.406 94.2012 129.605 94.2283 129.812 94.2283C130.228 94.2283 130.585 94.129 130.883 93.9303C131.19 93.7316 131.343 93.4607 131.343 93.1175C131.343 92.973 131.307 92.8465 131.235 92.7382C131.163 92.6208 131.077 92.5305 130.977 92.4672C130.887 92.395 130.743 92.3227 130.544 92.2505C130.354 92.1782 130.192 92.1241 130.056 92.0879C129.921 92.0518 129.718 92.0021 129.447 91.9389C129.23 91.8847 129.067 91.8441 128.959 91.817C128.851 91.7899 128.688 91.7448 128.471 91.6815C128.264 91.6183 128.101 91.5641 127.984 91.519C127.875 91.4648 127.731 91.3925 127.55 91.3022C127.37 91.2119 127.23 91.1216 127.13 91.0313C127.031 90.941 126.918 90.8281 126.792 90.6926C126.674 90.5572 126.584 90.4172 126.521 90.2727C126.457 90.1192 126.403 89.9476 126.358 89.7579C126.313 89.5592 126.29 89.3515 126.29 89.1348C126.29 88.2317 126.597 87.5317 127.212 87.035C127.826 86.5383 128.666 86.29 129.731 86.29C130.806 86.29 131.641 86.5609 132.237 87.1028C132.842 87.6446 133.145 88.3897 133.145 89.338H131.113C131.113 88.9496 130.973 88.6561 130.693 88.4574C130.422 88.2497 130.083 88.1459 129.677 88.1459C129.316 88.1459 129 88.2226 128.729 88.3762C128.467 88.5297 128.336 88.7509 128.336 89.0399C128.336 89.1754 128.367 89.2973 128.431 89.4057C128.503 89.505 128.584 89.5908 128.675 89.6631C128.765 89.7263 128.905 89.794 129.094 89.8663C129.284 89.9295 129.442 89.9792 129.569 90.0153C129.704 90.0424 129.903 90.0875 130.165 90.1508C130.454 90.223 130.67 90.2817 130.815 90.3269C130.959 90.363 131.167 90.4307 131.438 90.5301C131.709 90.6204 131.917 90.7107 132.061 90.801C132.215 90.8913 132.391 91.0132 132.59 91.1668C132.788 91.3113 132.937 91.4738 133.037 91.6544C133.145 91.826 133.235 92.0383 133.307 92.2911C133.389 92.535 133.429 92.8014 133.429 93.0904C133.429 93.7497 133.262 94.3141 132.928 94.7837C132.594 95.2533 132.161 95.5965 131.628 95.8133C131.104 96.03 130.503 96.1384 129.826 96.1384ZM137.688 86.9402H140.994V95.9487H139.097V88.6335H137.688V86.9402ZM142.922 95.9487V93.8355H145.022V95.9487H142.922ZM149.837 94.1335H152.587V95.9487H146.274V95.5288C147.565 94.0296 148.486 92.9369 149.037 92.2505C149.597 91.5551 149.972 91.0223 150.162 90.652C150.36 90.2817 150.46 89.934 150.46 89.6089C150.46 89.2928 150.365 89.0399 150.175 88.8503C149.986 88.6606 149.737 88.5658 149.43 88.5658C149.114 88.5658 148.857 88.6651 148.658 88.8638C148.468 89.0535 148.374 89.3109 148.374 89.636V89.7986H146.436V89.6089C146.436 88.769 146.707 88.0826 147.249 87.5498C147.791 87.017 148.509 86.7506 149.403 86.7506C149.981 86.7506 150.5 86.8725 150.961 87.1163C151.422 87.3511 151.778 87.6853 152.031 88.1188C152.284 88.5523 152.41 89.0399 152.41 89.5818C152.41 90.1598 152.234 90.7694 151.882 91.4106C151.53 92.0518 150.848 92.9594 149.837 94.1335Z" fill="white"/>
<path d="M119.587 71.9464V66.2607C119.587 58.5288 125.855 52.2607 133.587 52.2607H134.5C142.232 52.2607 148.5 58.5288 148.5 66.2607V71.9464" stroke="#02AB81" stroke-width="6" stroke-linejoin="round"/>
</g>
<defs>
<filter id="filter0_d_73_10515" x="0" y="0" width="275" height="177" filterUnits="userSpaceOnUse" color-interpolation-filters="sRGB">
<feFlood flood-opacity="0" result="BackgroundImageFix"/>
<feColorMatrix in="SourceAlpha" type="matrix" values="0 0 0 0 0 0 0 0 0 0 0 0 0 0 0 0 0 0 127 0" result="hardAlpha"/>
<feOffset dy="4"/>
<feGaussianBlur stdDeviation="20"/>
<feComposite in2="hardAlpha" operator="out"/>
<feColorMatrix type="matrix" values="0 0 0 0 0 0 0 0 0 0 0 0 0 0 0 0 0 0 0.15 0"/>
<feBlend mode="normal" in2="BackgroundImageFix" result="effect1_dropShadow_73_10515"/>
<feBlend mode="normal" in="SourceGraphic" in2="effect1_dropShadow_73_10515" result="shape"/>
</filter>
</defs>
</svg>
