<svg width="81" height="80" viewBox="0 0 81 80" fill="none" xmlns="http://www.w3.org/2000/svg">
<circle cx="27.3499" cy="50.9891" r="23.637" fill="#B4F4D9" fill-opacity="0.6"/>
<path d="M12.2212 52.8599H30.9697" stroke="#02AB81" stroke-width="3"/>
<path d="M21.9316 41.6255L33.1656 52.8597L21.9316 64.0936" stroke="#02AB81" stroke-width="3"/>
<path fill-rule="evenodd" clip-rule="evenodd" d="M17.4809 39.8677C17.7947 27.6989 27.7578 17.9307 40.0023 17.9307C52.4447 17.9307 62.5313 28.0172 62.5313 40.4597C62.5313 52.9021 52.4447 62.9887 40.0023 62.9887C37.899 62.9887 35.8631 62.7005 33.9319 62.1614V65.2626C35.8775 65.7371 37.9105 65.9887 40.0023 65.9887C54.1015 65.9887 65.5313 54.5589 65.5313 40.4597C65.5313 26.3604 54.1015 14.9307 40.0023 14.9307C26.1008 14.9307 14.7946 26.0419 14.48 39.8677H17.4809Z" fill="#02AB81"/>
<path d="M65.2231 40.2515L33.1655 40.2515" stroke="#02AB81" stroke-width="3" stroke-linejoin="bevel"/>
<path d="M37.2945 16.4448C34.3774 18.7542 28.4337 26.1442 27.9961 37.2295" stroke="#02AB81" stroke-width="3" stroke-linejoin="bevel"/>
<path d="M43.5845 16.8101C49.8442 23.404 58.699 42.0615 44.0403 63.9402" stroke="#02AB81" stroke-width="3" stroke-linejoin="bevel"/>
</svg>
