<svg width="81" height="81" viewBox="0 0 81 81" fill="none" xmlns="http://www.w3.org/2000/svg">
<rect x="0.233887" y="0.636719" width="80" height="80" rx="17" fill="#02AB81"/>
<g clip-path="url(#clip0_23_4997)">
<mask id="path-2-inside-1_23_4997" fill="white">
<path d="M53.0329 41.0496C53.5852 41.0496 54.0365 41.4979 53.9983 42.0489C53.8246 44.5537 53.0002 46.9763 51.5988 49.0736C50.0119 51.4487 47.7562 53.2998 45.1172 54.393C42.4781 55.4861 39.5742 55.7721 36.7725 55.2148C33.9709 54.6576 31.3975 53.282 29.3776 51.2622C27.3578 49.2423 25.9822 46.6689 25.425 43.8673C24.8677 41.0657 25.1537 38.1617 26.2468 35.5227C27.34 32.8836 29.1911 30.628 31.5662 29.041C33.6635 27.6396 36.0861 26.8152 38.5909 26.6415C39.1419 26.6033 39.5902 27.0546 39.5902 27.6069V40.0496C39.5902 40.6019 40.0379 41.0496 40.5902 41.0496H53.0329Z"/>
</mask>
<path d="M53.0329 41.0496C53.5852 41.0496 54.0365 41.4979 53.9983 42.0489C53.8246 44.5537 53.0002 46.9763 51.5988 49.0736C50.0119 51.4487 47.7562 53.2998 45.1172 54.393C42.4781 55.4861 39.5742 55.7721 36.7725 55.2148C33.9709 54.6576 31.3975 53.282 29.3776 51.2622C27.3578 49.2423 25.9822 46.6689 25.425 43.8673C24.8677 41.0657 25.1537 38.1617 26.2468 35.5227C27.34 32.8836 29.1911 30.628 31.5662 29.041C33.6635 27.6396 36.0861 26.8152 38.5909 26.6415C39.1419 26.6033 39.5902 27.0546 39.5902 27.6069V40.0496C39.5902 40.6019 40.0379 41.0496 40.5902 41.0496H53.0329Z" stroke="white" stroke-width="6" stroke-linejoin="round" mask="url(#path-2-inside-1_23_4997)"/>
<path d="M53.7385 37.7741H43.3276V27.5332C45.3027 27.9609 47.6809 28.8711 49.6651 30.4452C51.7204 32.0758 53.3612 34.4174 53.7385 37.7741Z" stroke="white" stroke-width="3" stroke-linejoin="round"/>
</g>
<defs>
<clipPath id="clip0_23_4997">
<rect width="32" height="32" fill="white" transform="translate(24.2339 24.6367)"/>
</clipPath>
</defs>
</svg>
