<svg width="81" height="81" viewBox="0 0 81 81" fill="none" xmlns="http://www.w3.org/2000/svg">
<circle cx="25.9676" cy="53.9603" r="23.637" fill="#B4F4D9"/>
<path d="M58.536 30.7435V27.9326V27.9326C58.536 25.145 56.2762 22.8853 53.4886 22.8853H13.6212C10.5396 22.8853 8.0415 25.3834 8.0415 28.4649V52.7432C8.0415 55.8248 10.5396 58.3229 13.6212 58.3229H52.6379" stroke="#02AB81" stroke-width="4"/>
<rect x="53.7222" y="35.9971" width="19.0122" height="35.4377" rx="5.57969" stroke="#02AB81" stroke-width="4"/>
<path d="M50.5592 58.3228H2.57082C2.43813 58.3228 2.33057 58.4303 2.33057 58.563V61.0728C2.33057 64.1544 4.82868 66.6525 7.91026 66.6525H45.9221" stroke="#02AB81" stroke-width="4"/>
<circle cx="63.7796" cy="64.7337" r="1.91878" fill="#02AB81"/>
<path d="M23.5694 34.5371L17.4253 40.6812L23.5694 46.8252" stroke="#02AB81" stroke-width="4"/>
<path d="M39.4589 48.2852L45.603 42.1411L39.4589 35.997" stroke="#02AB81" stroke-width="4"/>
<path d="M37.9511 29.6523L26.7319 51.7102" stroke="#02AB81" stroke-width="4"/>
</svg>
