<svg width="81" height="80" viewBox="0 0 81 80" fill="none" xmlns="http://www.w3.org/2000/svg">
<circle cx="38.9095" cy="56.3631" r="23.637" fill="#B4F4D9" fill-opacity="0.6"/>
<path d="M9.63781 49.3168H16.0239V51.9434H4.30751V51.1966C6.86537 48.3984 8.7108 46.3126 9.84382 44.9393C10.994 43.5488 11.7579 42.493 12.1356 41.772C12.5133 41.051 12.7021 40.3386 12.7021 39.6347C12.7021 39.1369 12.5905 38.6991 12.3673 38.3215C12.1613 37.9438 11.8609 37.652 11.4661 37.446C11.0884 37.2228 10.6421 37.1112 10.1271 37.1112C9.32023 37.1112 8.66789 37.3515 8.17005 37.8322C7.68938 38.2957 7.44904 38.9051 7.44904 39.6605V40.0467H4.66801V39.6605C4.66801 38.1155 5.16585 36.8709 6.16153 35.9267C7.15721 34.9654 8.47047 34.4847 10.1013 34.4847C11.6978 34.4847 12.9939 34.9654 13.9896 35.9267C15.0025 36.888 15.5089 38.124 15.5089 39.6347C15.5089 40.4244 15.363 41.1883 15.0711 41.9265C14.7965 42.6647 14.2299 43.6174 13.3716 44.7848C12.5304 45.935 11.2858 47.4456 9.63781 49.3168ZM30.5253 46.0208V48.4671H28.8773V51.9434H26.1993V48.4671H17.6759V47.9006L23.5212 34.8194H26.3538L21.3582 46.0208H26.2508L26.7143 41.257H28.8773V46.0208H30.5253ZM31.8868 53.8489L39.5347 32.3474H42.5217L34.8739 53.8489H31.8868ZM43.8585 34.8194H55.7294V35.2314L49.0858 51.9434H46.1503L51.9956 37.343H43.8585V34.8194Z" fill="#02AB81"/>
<path d="M27.5029 24.9472V24.9472C27.5029 21.174 30.5617 18.1152 34.3349 18.1152H57.7088C64.3363 18.1152 69.7088 23.4878 69.7088 30.1152V54.1201C69.7088 60.7475 64.3363 66.1201 57.7088 66.1201H35.4818C32.5207 66.1201 30.1204 63.7197 30.1204 60.7587V60.7587" stroke="#02AB81" stroke-width="3" stroke-linecap="round" stroke-linejoin="round"/>
</svg>
