<svg width="80" height="80" viewBox="0 0 80 80" fill="none" xmlns="http://www.w3.org/2000/svg">
<circle cx="33.16" cy="45.5931" r="23.637" fill="#B4F4D9" fill-opacity="0.6"/>
<path d="M50.8671 42.7158H49.0518C47.1753 42.7158 45.3366 43.2438 43.746 44.2395L38.194 47.7148C37.8457 47.9328 37.4431 48.0484 37.0321 48.0484V48.0484C36.4896 48.0484 35.9665 47.8471 35.5639 47.4834L33.1432 45.2961C31.3052 43.6353 28.9161 42.7158 26.4389 42.7158H25.4526C19.9298 42.7158 15.4526 47.1929 15.4526 52.7158C15.4526 54.6106 15.4526 56.5142 15.4526 58.1647V62.3154" stroke="#02AB81" stroke-width="3" stroke-linejoin="round"/>
<path d="M58.3804 45.5662L57.3335 44.4919L57.3335 44.4919L58.3804 45.5662ZM59.1299 45.2837L59.0525 46.7818L59.1299 45.2837ZM51.988 51.7953L51.4659 53.2015C52.0091 53.4032 52.6199 53.274 53.0349 52.8696L51.988 51.7953ZM57.9399 58.7528L56.8582 57.7137C56.5169 58.0689 56.3719 58.5691 56.47 59.0518L57.9399 58.7528ZM60.5863 55.998L61.668 57.0372C61.973 56.7197 62.1232 56.2842 62.0786 55.8462L60.5863 55.998ZM60.2241 52.4383L60.1016 50.9433C59.7 50.9762 59.3285 51.1693 59.0709 51.4791C58.8132 51.7889 58.691 52.1893 58.7318 52.5901L60.2241 52.4383ZM63.9919 52.1294L64.1145 53.6244C64.4529 53.5967 64.7719 53.455 65.0193 53.2224L63.9919 52.1294ZM65.343 50.8595L66.3703 51.9525L66.3703 51.9525L65.343 50.8595ZM65.6553 50.0571L64.1594 50.1678L64.1594 50.1678L65.6553 50.0571ZM65.3259 45.6037L66.8218 45.493C66.766 44.7392 66.1581 44.1446 65.4032 44.1057L65.3259 45.6037ZM59.4272 46.6405C59.3275 46.7377 59.1916 46.7889 59.0525 46.7818L59.2072 43.7857C58.5115 43.7498 57.8324 44.0058 57.3335 44.4919L59.4272 46.6405ZM53.0349 52.8696L59.4272 46.6405L57.3335 44.4919L50.9412 50.721L53.0349 52.8696ZM49.6463 52.7619C50.2837 52.8387 50.8924 52.9886 51.4659 53.2015L52.5102 50.3891C51.7172 50.0947 50.8785 49.8886 50.0052 49.7834L49.6463 52.7619ZM40.8255 59.6855C41.3493 55.3378 45.2986 52.238 49.6463 52.7619L50.0052 49.7834C44.0125 49.0613 38.5691 53.334 37.847 59.3267L40.8255 59.6855ZM47.7491 68.5064C43.4014 67.9825 40.3016 64.0333 40.8255 59.6855L37.847 59.3267C37.1249 65.3193 41.3976 70.7627 47.3903 71.4848L47.7491 68.5064ZM56.57 61.5827C56.0461 65.9304 52.0969 69.0303 47.7491 68.5064L47.3903 71.4848C53.3829 72.2069 58.8263 67.9343 59.5484 61.9416L56.57 61.5827ZM56.47 59.0518C56.6347 59.8616 56.6748 60.7127 56.57 61.5827L59.5484 61.9416C59.6922 60.7486 59.6378 59.5745 59.4098 58.4539L56.47 59.0518ZM59.5046 54.9589L56.8582 57.7137L59.0217 59.792L61.668 57.0372L59.5046 54.9589ZM58.7318 52.5901L59.094 56.1499L62.0786 55.8462L61.7164 52.2865L58.7318 52.5901ZM63.8694 50.6345L60.1016 50.9433L60.3467 53.9333L64.1145 53.6244L63.8694 50.6345ZM64.3156 49.7666L62.9646 51.0365L65.0193 53.2224L66.3703 51.9525L64.3156 49.7666ZM64.1594 50.1678C64.1483 50.0173 64.2057 49.8699 64.3156 49.7666L66.3703 51.9525C66.9199 51.4359 67.2069 50.6987 67.1512 49.9464L64.1594 50.1678ZM63.83 45.7143L64.1594 50.1678L67.1513 49.9464L66.8218 45.493L63.83 45.7143ZM59.0525 46.7818L65.2485 47.1017L65.4032 44.1057L59.2072 43.7857L59.0525 46.7818Z" fill="#02AB81"/>
<circle cx="46.1242" cy="63.6619" r="2.28613" transform="rotate(6.87074 46.1242 63.6619)" fill="#02AB81"/>
<path fill-rule="evenodd" clip-rule="evenodd" d="M23.21 26.9028C23.8735 34.6038 30.3348 40.6475 38.2078 40.6475C46.5218 40.6475 53.2617 33.9076 53.2617 25.5935C53.2617 25.5753 53.2617 25.5572 53.2616 25.5391L50.2561 25.9642C50.0602 32.4499 44.741 37.6475 38.2078 37.6475C32.0287 37.6475 26.9355 32.998 26.2358 27.0068L23.21 26.9028Z" fill="#02AB81"/>
<path d="M33.3449 9.37447C23.6906 10.6314 24.7073 19.4815 24.1977 24.0153C28.0382 24.223 33.5277 24.079 36.8088 24.0688C37.2484 24.0674 46.1326 23.8669 47.6858 17.0683C48.3755 23.2546 52.6309 23.3967 54.3648 21.5036C56.3795 19.3038 55.2812 13.3656 54.608 9.17983C43.9072 12.7757 42.2748 8.21188 33.3449 9.37447Z" stroke="#02AB81" stroke-width="3" stroke-linejoin="round"/>
</svg>
