<svg width="275" height="177" viewBox="0 0 275 177" fill="none" xmlns="http://www.w3.org/2000/svg">
<g filter="url(#filter0_d_73_10514)">
<rect x="40" y="36" width="195" height="97" rx="19" fill="white" shape-rendering="crispEdges"/>
<g clip-path="url(#clip0_73_10514)">
<path d="M90.1974 87.0236C89.9362 87.8957 89.7593 88.7954 89.5422 89.7109C88.453 89.0361 87.3074 88.8467 86.0895 89.044C85.4986 89.1387 85.0083 89.3794 84.8354 89.9911C84.6505 90.6382 84.7993 91.2104 85.3379 91.6523C85.7077 91.9601 86.1337 92.1851 86.5598 92.406C88.8911 93.6333 89.4699 95.2196 89.2126 97.8201C89.0519 99.3985 88.4208 100.736 86.9899 101.608C86.0935 102.153 85.0967 102.358 84.0557 102.421C84.0476 102.421 84.0436 102.425 84.0356 102.425V102.421C84.0396 102.401 84.0516 102.382 84.0717 102.366C84.3692 102.236 84.6948 102.236 85.0083 102.184C87.1587 101.841 88.5936 100.464 88.9996 98.3646C89.1524 97.5675 89.1805 96.7665 89.0921 95.9654C88.9273 94.4185 88.0229 93.3689 86.6924 92.627C86.2744 92.3903 85.8524 92.1614 85.4585 91.8891C84.7912 91.4353 84.53 90.7763 84.7148 90.0384C84.8837 89.3794 85.3338 89.0519 86.1578 88.9177C87.1908 88.748 88.1756 88.8822 89.1081 89.3321C89.4136 89.4781 89.49 89.3873 89.5543 89.1071C89.707 88.4442 89.8759 87.7852 90.0286 87.1262C90.1572 86.5698 90.1291 86.4593 89.5664 86.2857C88.0028 85.8043 86.4191 85.678 84.8314 86.1713C84.2285 86.3607 83.6818 86.6527 83.2075 87.0749C82.1223 88.0299 81.7887 89.2926 81.6801 90.6422C81.648 91.0644 81.644 91.4906 81.7123 91.9167C81.9093 93.1597 82.5202 94.1226 83.6497 94.7579C84.12 95.0262 84.6103 95.2709 85.0605 95.5747C85.7559 96.0483 86.2583 96.6481 86.1619 97.5399C86.0453 98.5659 85.3379 99.1972 84.2124 99.2959C83.1352 99.3906 82.0941 99.2643 81.1415 98.7198C80.8803 98.5698 80.7717 98.6211 80.7114 98.8973C80.5748 99.5287 80.4502 100.168 80.2934 100.795C80.2452 100.973 80.2814 101.222 80 101.269C80.3296 100.397 80.414 99.4695 80.6632 98.5777C80.6833 98.5067 80.6954 98.4356 80.7195 98.3252C81.7846 99.0433 82.9302 99.3117 84.1682 99.1893C85.5469 99.0512 86.3106 98.0647 85.985 96.8493C85.8564 96.3797 85.5388 96.0443 85.149 95.7839C84.7912 95.5471 84.4214 95.3182 84.0315 95.1328C82.0138 94.1502 81.3465 92.4968 81.5716 90.3975C81.6199 89.9595 81.6882 89.5215 81.8168 89.0953C82.3273 87.359 83.4849 86.2975 85.2816 85.9227C86.7889 85.6109 88.2761 85.7332 89.7432 86.2028C90.1773 86.3409 90.3421 86.5382 90.1974 87.0236Z" fill="#02AB81"/>
<path d="M99.6726 92.6112C99.3511 90.3146 97.6709 88.8585 95.404 88.9808C93.6193 89.0715 92.3733 90.062 91.5332 91.5221C90.1746 93.8976 89.9013 96.4507 90.5685 99.0748C90.9665 100.634 91.9713 101.715 93.5872 102.161C95.203 102.603 96.7987 102.433 98.3784 101.952C98.5392 101.9 98.6075 101.825 98.6356 101.66C98.7843 100.681 98.9491 99.7023 99.122 98.6408C98.9049 98.7434 98.7763 98.8026 98.6477 98.8617C97.6669 99.2998 96.642 99.5286 95.5607 99.4537C94.0856 99.3511 93.3621 98.6802 93.2495 97.3543C93.2214 96.9913 93.2897 96.8177 93.7278 96.8216C95.4803 96.8453 97.2328 96.8335 98.9853 96.8335C99.1943 96.8335 99.3752 96.869 99.4315 96.5572C99.6606 95.2511 99.8575 93.9449 99.6726 92.6112ZM96.0591 94.2054H95.1949C94.7448 94.2054 94.2986 94.1975 93.8484 94.2093C93.5751 94.2172 93.5228 94.1265 93.5912 93.8779C93.7399 93.357 93.9248 92.8637 94.3026 92.4573C94.7608 91.9601 95.3316 91.8298 95.9627 92.0193C96.5977 92.2126 96.8188 92.7374 96.8751 93.3333C96.9635 94.2054 96.9515 94.2054 96.0591 94.2054Z" fill="#02AB81"/>
<path d="M102.968 69.6292C101.2 69.2819 99.4912 69.6055 97.8031 70.1106C97.6664 70.1501 97.578 70.2092 97.5539 70.3592C97.4333 71.1721 97.3046 71.981 97.172 72.79C97.1278 73.0701 97.2484 73.0623 97.4654 72.9952C97.9839 72.8334 98.5105 72.6834 99.0531 72.6203C100.014 72.5019 100.974 72.3756 101.923 72.6519C102.622 72.8571 102.952 73.7331 102.602 74.3526C102.51 74.5223 102.385 74.4592 102.277 74.4473C101.557 74.3487 100.838 74.3723 100.118 74.4513C96.9509 74.7906 95.2105 76.8899 95.5321 79.9955C95.729 81.9172 97.1117 83.0103 99.0652 82.8288C100.179 82.7262 101.095 82.2882 101.883 81.3885C101.883 81.7476 101.915 82.0159 101.875 82.2763C101.827 82.5881 101.947 82.6433 102.233 82.6354C102.908 82.6157 103.583 82.6157 104.254 82.6354C104.524 82.6394 104.596 82.5565 104.632 82.3C104.865 80.5677 105.131 78.8354 105.376 77.103C105.561 75.7614 105.858 74.4355 105.842 73.0662C105.814 71.2273 104.797 69.9922 102.968 69.6292ZM101.433 79.2852C101.175 79.6206 100.85 79.8653 100.444 80.0073C99.447 80.3467 98.7034 79.8298 98.6994 78.7959C98.6994 77.9514 99.0813 77.3911 99.8892 77.103C100.544 76.8702 101.228 76.8031 101.923 76.8899C102.112 76.9136 102.204 76.957 102.18 77.1741C102.092 77.9356 101.915 78.6617 101.433 79.2852Z" fill="#02AB81"/>
<path d="M109.257 90.1097C109.04 91.041 108.843 91.9802 108.63 92.947C108.14 92.7102 107.706 92.4498 107.195 92.3432C106.118 92.1144 105.214 92.4143 104.619 93.2942C103.722 94.6083 103.534 96.088 104.012 97.5876C104.458 98.9805 105.68 99.4462 107.207 98.9134C107.449 98.8306 107.678 98.7201 108.003 98.582C107.854 99.6869 107.714 100.717 107.573 101.743C107.561 101.845 107.481 101.893 107.396 101.944C105.893 102.824 103.2 102.421 102.038 101.143C101.23 100.255 100.796 99.1976 100.615 98.0414C100.258 95.7881 100.563 93.6336 101.801 91.6763C102.894 89.9559 104.454 88.9693 106.592 89.0364C107.477 89.068 108.281 89.3718 109.068 89.7388C109.229 89.8177 109.306 89.9085 109.257 90.1097Z" fill="#02AB81"/>
<path d="M105.692 82.1307C105.825 81.3888 105.945 80.6391 106.038 79.8893C106.078 79.5697 106.146 79.4592 106.5 79.5855C107.417 79.909 108.373 80.0156 109.346 79.9761C109.667 79.9643 109.985 79.9288 110.282 79.7946C111.042 79.4513 111.159 78.4963 110.467 78.0386C109.953 77.6992 109.374 77.4546 108.839 77.1349C106.54 75.7775 106.183 72.4273 108.152 70.62C109.101 69.7518 110.298 69.5388 111.536 69.4993C112.485 69.4717 113.426 69.5703 114.366 69.6966C114.648 69.7321 114.692 69.8268 114.648 70.0833C114.503 70.8725 114.378 71.6696 114.27 72.4628C114.238 72.7035 114.153 72.7272 113.932 72.6996C113.201 72.6049 112.465 72.5378 111.721 72.5575C111.396 72.5654 111.082 72.6049 110.793 72.7588C110.174 73.0863 110.089 73.9307 110.652 74.3332C110.974 74.5621 111.344 74.7357 111.701 74.9094C113.615 75.8564 114.262 76.9692 114.097 79.0448C113.912 81.3651 112.606 82.6081 110.146 82.7976C109.744 82.8291 109.342 82.837 109.048 82.8528C107.951 82.7897 106.954 82.7541 105.978 82.5371C105.7 82.4779 105.648 82.3872 105.692 82.1307Z" fill="#02AB81"/>
<path d="M120.385 89.5612C119.85 93.018 119.332 96.4787 118.817 99.9394C118.733 100.516 118.676 101.096 118.628 101.68C118.612 101.92 118.512 101.995 118.271 101.991C117.515 101.979 116.759 101.979 116.004 101.991C115.738 101.995 115.626 101.94 115.674 101.644C115.754 101.131 115.795 100.614 115.863 99.9946C115.421 100.551 115.079 101.04 114.621 101.443C113.99 101.991 113.254 102.272 112.426 102.291C111.482 102.315 110.758 101.901 110.26 101.115C109.488 99.9078 109.371 98.5543 109.484 97.1929C109.697 94.6161 110.179 92.0709 110.497 89.506C110.521 89.3166 110.593 89.2376 110.802 89.2376C111.731 89.2455 112.663 89.2455 113.596 89.2376C113.841 89.2376 113.833 89.3402 113.805 89.5296C113.479 91.696 113.162 93.8624 112.844 96.0328C112.776 96.4984 112.724 96.9719 112.784 97.4455C112.913 98.4596 113.757 98.8937 114.681 98.4123C115.236 98.1242 115.545 97.6309 115.799 97.0943C116.221 96.1906 116.301 95.208 116.454 94.2491C116.699 92.7062 116.928 91.1633 117.153 89.6204C117.193 89.3442 117.29 89.2219 117.607 89.2337C118.423 89.2574 119.243 89.2455 120.063 89.2376C120.308 89.2337 120.433 89.2455 120.385 89.5612Z" fill="#02AB81"/>
<path d="M114.913 80.6745C114.8 79.7156 114.989 78.7883 115.138 77.857C115.64 74.6686 116.159 71.4801 116.665 68.2878C116.713 67.9918 116.782 67.8261 117.168 67.8419C118.108 67.8774 119.053 67.8537 120.029 67.8537C119.929 68.3627 119.853 68.8284 119.744 69.2861C119.66 69.6452 119.688 69.8504 120.15 69.7833C120.431 69.7439 120.725 69.7873 121.014 69.7754C121.255 69.7636 121.324 69.8504 121.287 70.0793C121.155 70.9514 121.026 71.8234 120.906 72.6995C120.882 72.877 120.809 72.952 120.628 72.9362C120.564 72.9323 120.5 72.9323 120.435 72.9362C120.025 72.9678 119.495 72.7626 119.23 73.027C119 73.2598 119.053 73.7689 118.988 74.1556C118.767 75.5249 118.546 76.8941 118.329 78.2634C118.297 78.4647 118.281 78.6699 118.289 78.8751C118.301 79.3683 118.538 79.6367 119.037 79.6958C119.306 79.7274 119.587 79.7353 119.853 79.6919C120.174 79.6367 120.283 79.6958 120.222 80.0352C120.09 80.7494 119.989 81.4676 119.877 82.1858C119.853 82.3318 119.857 82.4739 119.64 82.541C118.759 82.8132 117.863 82.9908 116.938 82.8645C115.765 82.7028 115.057 81.8899 114.913 80.6745Z" fill="#02AB81"/>
<path d="M127.275 89.3909C126.796 90.4089 126.479 91.4823 126.29 92.5872C126.262 92.7647 126.19 92.8595 125.976 92.8595C125.261 92.8673 124.887 93.3133 124.654 93.9131C124.188 95.1008 124.011 96.3517 123.806 97.5947C123.585 98.964 123.4 100.337 123.207 101.71C123.171 101.975 123.086 102.093 122.789 102.085C122.017 102.066 121.246 102.07 120.474 102.085C120.164 102.093 120.064 102.03 120.112 101.691C120.506 99.1061 120.872 96.5135 121.246 93.9249C121.451 92.5083 121.672 91.0877 121.861 89.6671C121.901 89.3435 121.981 89.2014 122.347 89.2172C123.022 89.2488 123.697 89.237 124.373 89.2212C124.658 89.2133 124.73 89.3001 124.678 89.5724C124.618 89.896 124.598 90.2274 124.558 90.5549C124.59 90.626 124.578 90.7167 124.666 90.7562C124.96 90.3616 125.221 89.9433 125.587 89.6039C126.009 89.2172 126.499 89.0318 127.078 89.0673C127.299 89.0831 127.391 89.1423 127.275 89.3909Z" fill="#02AB81"/>
<path d="M127.743 69.511C125.629 69.2111 123.977 70.0516 122.823 71.7405C121.159 74.1753 120.87 76.8704 121.641 79.6642C122.051 81.148 123.1 82.1345 124.608 82.5764C126.404 83.1013 128.197 82.9276 129.974 82.4344C130.11 82.3989 130.215 82.3555 130.239 82.2016C130.408 81.1953 130.577 80.1891 130.745 79.1749C130.697 79.1749 130.677 79.171 130.665 79.1789C130.516 79.2381 130.372 79.2973 130.223 79.3604C128.997 79.8537 127.735 80.0786 126.408 79.8694C125.207 79.68 124.527 78.95 124.467 77.8135C124.447 77.4505 124.519 77.2927 124.953 77.2966C126.851 77.3242 128.748 77.3005 130.645 77.3163C130.95 77.3203 131.059 77.2137 131.111 76.9454C131.32 75.8721 131.457 74.7987 131.421 73.7017C131.344 71.4604 129.938 69.8227 127.743 69.511ZM128.35 74.5225C128.302 74.7435 128.169 74.7001 128.036 74.7001C127.538 74.704 127.04 74.704 126.541 74.704V74.6725C126.047 74.6725 125.548 74.6606 125.054 74.6764C124.789 74.6843 124.773 74.5935 124.837 74.3726C124.957 73.9622 125.11 73.5676 125.355 73.2164C125.866 72.4863 126.738 72.2141 127.506 72.5416C128.165 72.8218 128.531 73.7017 128.35 74.5225Z" fill="#02AB81"/>
<path d="M136.039 92.5641C135.697 90.2911 134.029 88.8666 131.778 88.981C130.074 89.0639 128.844 89.9715 128.008 91.3605C126.521 93.8307 126.227 96.4943 126.991 99.2448C127.409 100.752 128.438 101.758 129.994 102.173C131.589 102.599 133.173 102.433 134.737 101.952C134.861 101.912 134.97 101.885 134.994 101.723C135.151 100.717 135.315 99.7143 135.488 98.6528C135.215 98.7712 135.014 98.8659 134.809 98.9488C133.876 99.3355 132.908 99.5289 131.895 99.4539C130.42 99.3395 129.668 98.6094 129.632 97.323C129.62 96.9284 129.74 96.8179 130.142 96.8258C131.879 96.8455 133.611 96.8337 135.348 96.8337C135.557 96.8337 135.737 96.8653 135.794 96.5575C136.031 95.2355 136.24 93.9136 136.039 92.5641ZM132.413 94.2214H131.545C131.095 94.2214 130.649 94.2135 130.199 94.2214C129.957 94.2293 129.893 94.1504 129.953 93.9136C130.098 93.377 130.291 92.86 130.681 92.4457C131.143 91.9603 131.714 91.8104 132.349 92.0195C132.956 92.2208 133.189 92.718 133.245 93.302C133.338 94.2214 133.33 94.2214 132.413 94.2214Z" fill="#02AB81"/>
<path d="M144.251 98.9452C144.777 98.8032 145.252 98.5506 145.794 98.3257C145.778 99.253 145.577 100.117 145.457 100.985C145.324 101.94 145.3 101.936 144.343 102.157C143.427 102.366 142.502 102.445 141.574 102.268C139.657 101.901 138.382 100.725 137.828 98.961C136.658 95.2359 137.064 91.649 139.343 88.4053C140.874 86.2192 143.338 85.4773 145.931 86.2113C146.453 86.3573 147.141 86.3691 147.426 86.7716C147.695 87.1583 147.358 87.766 147.306 88.279C147.241 88.9025 147.121 89.522 147.02 90.181C146.317 89.8693 145.658 89.5181 144.902 89.3957C143.7 89.2063 142.715 89.5694 141.92 90.4454C141.039 91.4082 140.673 92.596 140.493 93.843C140.348 94.8492 140.332 95.8555 140.593 96.8499C141.055 98.6335 142.438 99.4227 144.251 98.9452Z" fill="#02AB81"/>
<path d="M141.451 69.1005C143.063 66.8868 145.796 66.0305 148.465 66.7447C148.992 66.8828 149.53 66.9933 150.029 67.2103C150.169 67.2695 150.33 67.2932 150.294 67.53C150.113 68.5836 149.952 69.6411 149.775 70.7618C149.008 70.4027 148.292 70.091 147.504 69.9726C146.21 69.7832 145.121 70.1462 144.249 71.0972C143.103 72.3521 142.753 73.8871 142.693 75.5129C142.669 76.1285 142.701 76.7401 142.874 77.3399C143.404 79.1788 144.811 79.9838 146.708 79.5339C147.319 79.3879 147.882 79.1235 148.521 78.8591C148.36 79.8733 148.172 80.8282 148.075 81.795C148.019 82.3514 147.782 82.5527 147.247 82.6632C146.037 82.9157 144.827 83.0499 143.617 82.7697C141.684 82.3199 140.386 81.0966 139.839 79.2735C138.758 75.6589 139.188 72.2021 141.451 69.1005Z" fill="#02AB81"/>
<path d="M156.419 91.8415C156.938 93.0806 157.03 94.3749 156.942 95.6968C156.853 97.0424 156.636 98.3564 156.013 99.5758C155.209 101.15 153.947 102.121 152.162 102.405C152.086 102.421 152.002 102.405 151.965 102.5C151.973 102.267 152.178 102.291 152.315 102.263C154.445 101.825 155.7 100.464 156.311 98.5024C156.921 96.5413 157.106 94.5406 156.52 92.532C156.009 90.78 154.944 89.4817 153.027 89.2213C150.699 88.9017 148.915 89.7856 147.685 91.8928C146.941 93.1753 146.628 94.5919 146.591 96.0677C146.563 97.3384 146.636 98.5893 147.138 99.7849C147.64 100.977 148.493 101.793 149.759 102.184C149.944 102.243 150.193 102.224 150.229 102.5C150.197 102.377 150.08 102.393 149.996 102.374C148.388 102.011 147.367 100.985 146.901 99.489C146.093 96.8806 146.266 94.3038 147.552 91.8691C148.722 89.6593 151.013 88.6215 153.36 89.1463C154.88 89.4857 155.84 90.4643 156.419 91.8415Z" fill="#02AB81"/>
<path d="M156.659 69.621C154.906 69.2816 153.21 69.6092 151.538 70.1103C151.425 70.1458 151.325 70.1892 151.305 70.3195C151.164 71.2192 151.027 72.1189 150.879 73.0778C151.248 72.9791 151.526 72.8962 151.807 72.8252C152.965 72.5332 154.138 72.3951 155.336 72.5687C156.212 72.6989 156.506 73.1054 156.421 73.9735C156.385 74.3721 156.269 74.4905 155.831 74.4352C154.689 74.2892 153.551 74.3957 152.454 74.7509C149.797 75.6072 148.451 78.551 149.56 81.0843C149.938 81.9406 150.561 82.5878 151.51 82.7654C152.941 83.0298 154.251 82.7417 155.336 81.7078C155.417 81.6328 155.453 81.4829 155.613 81.4987C155.613 81.7394 155.634 81.9722 155.609 82.205C155.577 82.5168 155.654 82.6549 156.015 82.6351C156.638 82.6036 157.269 82.6036 157.893 82.6351C158.246 82.6549 158.347 82.5444 158.395 82.209C158.648 80.3188 158.934 78.4326 159.203 76.5424C159.368 75.3902 159.613 74.2419 159.585 73.0699C159.536 71.1758 158.54 69.984 156.659 69.621ZM155.843 77.6592C155.722 78.3734 155.473 79.0245 154.934 79.5454C154.436 80.0189 153.845 80.228 153.174 80.0307C152.715 79.8966 152.494 79.5177 152.442 79.064C152.362 78.3379 152.547 77.7183 153.21 77.3001C153.801 76.9291 154.48 76.9015 155.047 76.8502C155.979 76.8463 155.983 76.8542 155.843 77.6592Z" fill="#02AB81"/>
<path d="M159.795 82.2886C160.442 78.2281 161.077 74.1676 161.704 70.1031C161.74 69.8782 161.805 69.7716 162.058 69.7756C162.846 69.7874 163.633 69.7874 164.417 69.7716C164.695 69.7677 164.747 69.8742 164.703 70.111C164.626 70.5609 164.566 71.0107 164.482 71.5829C164.843 71.1291 165.117 70.7621 165.418 70.4227C165.912 69.8703 166.531 69.5901 167.295 69.6375C167.544 69.6533 167.601 69.7361 167.484 69.9571C166.953 70.9752 166.628 72.0564 166.411 73.1732C166.375 73.3507 166.306 73.4375 166.097 73.4336C165.374 73.4218 164.952 73.84 164.691 74.4556C164.16 75.7026 163.971 77.0324 163.742 78.3504C163.521 79.6368 163.328 80.9311 163.139 82.2215C163.095 82.5253 162.998 82.6477 162.665 82.6358C161.813 82.6122 160.96 82.6201 160.108 82.6319C159.835 82.6398 159.751 82.5727 159.795 82.2886Z" fill="#02AB81"/>
<path d="M169.173 86.1237C168.433 86.1435 167.69 86.1553 166.954 86.1198C166.568 86.104 166.476 86.25 166.428 86.5933C166.255 87.8995 166.046 89.2017 165.841 90.5789C165.692 90.4013 165.596 90.279 165.499 90.1645C164.989 89.5726 164.402 89.0991 163.602 88.9452C162.231 88.6769 161.138 89.1898 160.242 90.1527C158.586 91.9324 158.015 94.1145 157.934 96.4585C157.886 97.8002 158.055 99.1024 158.726 100.306C159.86 102.35 162.324 102.729 164.052 101.131C164.157 101.036 164.225 100.882 164.43 100.85C164.398 101.103 164.386 101.324 164.337 101.537C164.265 101.849 164.366 101.951 164.695 101.94C165.403 101.916 166.11 101.912 166.813 101.94C167.151 101.955 167.248 101.829 167.292 101.525C168.019 96.5177 168.759 91.5141 169.503 86.5105C169.543 86.2224 169.49 86.1159 169.173 86.1237ZM164.446 97.6423C164.293 97.9264 164.112 98.1829 163.871 98.4C162.894 99.2878 161.608 98.9682 161.307 97.7015C160.917 96.0323 161.098 94.4105 162.038 92.9228C162.183 92.694 162.376 92.5045 162.609 92.3546C163.489 91.7903 164.474 92.0863 164.86 93.0452C165.077 93.5818 165.117 94.1461 165.101 94.7183C165.077 95.7364 164.936 96.7268 164.446 97.6423Z" fill="#02AB81"/>
<path d="M178.666 92.3544C178.196 89.9394 176.198 88.578 173.802 89.0634C172.183 89.387 171.125 90.4445 170.394 91.8296C169.28 93.9486 169.035 96.2137 169.469 98.5379C169.795 100.302 170.748 101.624 172.593 102.149C174.22 102.61 175.832 102.429 177.428 101.951C177.593 101.904 177.669 101.813 177.693 101.659C177.842 100.696 177.991 99.7335 178.151 98.6642C177.874 98.7865 177.685 98.8694 177.496 98.9443C176.391 99.3902 175.253 99.5994 174.06 99.3784C172.922 99.1653 172.323 98.4353 172.295 97.2909C172.287 96.9161 172.404 96.8174 172.781 96.8253C174.518 96.845 176.254 96.8332 177.987 96.8332C178.192 96.8332 178.409 96.8845 178.465 96.5806C178.722 95.1837 178.939 93.775 178.666 92.3544ZM175.398 94.2288C175.016 94.1893 174.626 94.2209 174.245 94.2209C173.794 94.2209 173.344 94.209 172.898 94.2248C172.621 94.2327 172.556 94.1222 172.629 93.8855C172.733 93.5382 172.842 93.1949 173.027 92.8753C173.477 92.0979 174.236 91.7625 175 92.0071C175.619 92.2044 175.985 92.9147 175.941 93.7513C175.921 94.1301 175.792 94.2682 175.398 94.2288Z" fill="#02AB81"/>
<path d="M178.566 66.8078C177.685 66.8196 176.801 66.8157 175.917 66.8078C175.692 66.8038 175.615 66.8788 175.587 67.0958C175.511 67.6917 175.402 68.2797 175.31 68.8716C175.185 69.6489 175.057 70.4303 174.92 71.2866C174.317 70.5447 173.714 69.9607 172.854 69.7279C171.242 69.2977 169.912 69.8265 168.802 70.963C167.432 72.3757 166.793 74.1238 166.539 76.0219C166.322 77.6082 166.387 79.1708 167.106 80.6466C167.926 82.3356 169.506 83.0972 171.351 82.7065C172.126 82.5408 172.737 82.0909 173.393 81.6095C173.364 81.8265 173.352 82.0475 173.304 82.2606C173.236 82.5565 173.328 82.6434 173.638 82.6355C174.41 82.6118 175.181 82.6039 175.953 82.6394C176.343 82.6552 176.423 82.5013 176.476 82.1659C176.902 79.3918 177.344 76.6217 177.782 73.8515C178.14 71.6141 178.485 69.3688 178.851 67.1314C178.891 66.8709 178.831 66.8038 178.566 66.8078ZM173.3 78.5316C172.914 79.1708 172.339 79.5812 171.536 79.5812C170.888 79.5812 170.438 79.2892 170.173 78.717C169.916 78.1567 169.876 77.5608 169.888 77.1702C169.892 75.9745 170.056 75.0196 170.511 74.1277C170.687 73.7884 170.913 73.4845 171.206 73.232C172.219 72.3678 173.606 72.719 173.943 73.9857C174.369 75.5681 174.16 77.1149 173.3 78.5316Z" fill="#02AB81"/>
<path d="M181.408 99.4698C181.412 99.6552 181.328 99.742 181.151 99.7105C180.713 99.6355 180.701 99.888 180.709 100.204C180.725 100.661 180.705 101.119 180.717 101.573C180.725 101.782 180.648 101.845 180.443 101.845C180.226 101.845 180.162 101.758 180.17 101.561C180.178 101.313 180.174 101.06 180.174 100.807C180.174 100.65 180.166 100.492 180.174 100.334C180.19 99.9788 180.23 99.6158 179.664 99.7105C179.487 99.742 179.455 99.6158 179.455 99.4737C179.455 99.3316 179.479 99.2251 179.656 99.2251H181.195C181.368 99.2251 181.4 99.3238 181.408 99.4698Z" fill="#02AB81"/>
<path d="M180.255 78.729C179.17 78.7251 178.302 79.5893 178.286 80.6981C178.265 81.878 179.11 82.7895 180.227 82.8014C181.312 82.8132 182.204 81.9017 182.213 80.777C182.217 79.6485 181.348 78.733 180.255 78.729ZM180.255 82.2765C179.423 82.2844 178.768 81.6096 178.768 80.7534C178.768 79.9247 179.419 79.2578 180.231 79.2538C181.051 79.246 181.73 79.9405 181.722 80.777C181.714 81.6018 181.059 82.2726 180.255 82.2765ZM180.347 79.8655C180.171 79.8615 179.994 79.8773 179.821 79.8615C179.608 79.8418 179.544 79.9247 179.552 80.1299C179.564 80.5205 179.548 80.9151 179.56 81.3058C179.564 81.4479 179.447 81.6688 179.765 81.6688C180.066 81.6688 179.97 81.4636 179.994 81.3097C180.014 81.1835 179.921 80.9862 180.143 80.9743C180.327 80.9664 180.339 81.1637 180.372 81.2861C180.452 81.5978 180.609 81.7596 180.946 81.6373C180.991 81.3097 180.577 81.1085 180.838 80.7494C181.167 80.2996 180.918 79.8813 180.347 79.8655ZM180.199 80.635C180.03 80.6508 179.974 80.5758 179.978 80.4219C179.986 80.2798 180.01 80.1733 180.195 80.2048C180.331 80.2325 180.488 80.2246 180.508 80.4179C180.476 80.5916 180.352 80.6231 180.199 80.635Z" fill="#02AB81"/>
<path d="M183.992 101.537C183.992 101.699 184.008 101.841 183.759 101.845C183.522 101.845 183.506 101.726 183.506 101.549C183.514 101.052 183.51 100.554 183.45 100.053C183.349 100.527 183.241 100.996 183.144 101.47C183.108 101.651 183.128 101.833 182.835 101.849C182.497 101.864 182.525 101.628 182.485 101.45C182.393 101.044 182.32 100.633 182.159 100.231C182.159 100.677 182.155 101.123 182.159 101.569C182.163 101.722 182.159 101.837 181.942 101.841C181.721 101.845 181.669 101.762 181.673 101.565C181.681 100.89 181.677 100.211 181.677 99.5323C181.677 99.3666 181.673 99.193 181.914 99.2285C182.107 99.26 182.385 99.0943 182.457 99.4455C182.561 99.9467 182.674 100.444 182.782 100.945C182.819 100.941 182.851 100.941 182.887 100.937C182.987 100.464 183.112 99.9901 183.184 99.5087C183.249 99.1022 183.546 99.2443 183.775 99.2324C184.073 99.2127 183.988 99.4455 183.988 99.5994C183.996 100.243 183.992 100.89 183.992 101.537Z" fill="#02AB81"/>
<path d="M156.419 91.8415C155.84 90.4643 154.88 89.4857 153.36 89.1463C151.013 88.6215 148.722 89.6593 147.552 91.8691C146.266 94.3038 146.093 96.8806 146.901 99.489C147.367 100.985 148.388 102.011 149.996 102.374C150.08 102.393 150.197 102.377 150.229 102.5H150.615C150.969 102.421 151.322 102.421 151.676 102.5H151.965C152.002 102.405 152.086 102.421 152.162 102.405C153.947 102.121 155.209 101.15 156.013 99.5758C156.636 98.3564 156.853 97.0424 156.942 95.6968C157.03 94.3749 156.938 93.0806 156.419 91.8415ZM150.036 98.3959C149.759 97.8119 149.67 97.1805 149.678 96.5531C149.686 95.5429 149.855 94.5485 150.313 93.6251C150.522 93.2108 150.768 92.8241 151.137 92.532C151.969 91.877 152.962 92.1019 153.404 93.0529C153.686 93.6527 153.726 94.2959 153.714 94.947C153.69 95.9927 153.581 97.0187 153.139 97.9895C152.986 98.3249 152.793 98.6287 152.52 98.8813C151.652 99.6784 150.53 99.4574 150.036 98.3959Z" fill="#02AB81"/>
<path d="M90.1974 87.0236C89.9362 87.8957 89.7593 88.7954 89.5422 89.7109C88.453 89.0361 87.3074 88.8467 86.0895 89.044C85.4986 89.1387 85.0083 89.3794 84.8354 89.9911C84.6505 90.6382 84.7993 91.2104 85.3379 91.6523C85.7077 91.9601 86.1337 92.1851 86.5598 92.406C88.8911 93.6333 89.4699 95.2196 89.2126 97.8201C89.0519 99.3985 88.4208 100.736 86.9899 101.608C86.0935 102.153 85.0967 102.358 84.0557 102.421C84.0476 102.421 84.0436 102.425 84.0356 102.425V102.421C83.7542 102.421 83.4648 102.421 83.1794 102.417C82.07 102.354 81.041 101.987 80 101.648V101.269C80.3296 100.397 80.414 99.4695 80.6632 98.5777C80.6833 98.5067 80.6954 98.4356 80.7195 98.3252C81.7846 99.0433 82.9302 99.3117 84.1682 99.1893C85.5469 99.0512 86.3106 98.0647 85.985 96.8493C85.8564 96.3797 85.5388 96.0443 85.149 95.7839C84.7912 95.5471 84.4214 95.3182 84.0315 95.1328C82.0138 94.1502 81.3465 92.4968 81.5716 90.3975C81.6199 89.9595 81.6882 89.5215 81.8168 89.0953C82.3273 87.359 83.4849 86.2975 85.2816 85.9227C86.7889 85.6109 88.2761 85.7332 89.7432 86.2028C90.1773 86.3409 90.3421 86.5382 90.1974 87.0236Z" fill="#02AB81"/>
<path d="M150.613 102.5C150.966 102.346 151.32 102.346 151.674 102.5C151.32 102.5 150.966 102.5 150.613 102.5Z" fill="#02AB81"/>
<path d="M84.0583 102.421C84.0496 102.421 84.0453 102.426 84.0366 102.426V102.421H84.0583Z" fill="#02AB81"/>
<path d="M178.566 66.8078C177.685 66.8196 176.801 66.8157 175.917 66.8078C175.692 66.8038 175.615 66.8788 175.587 67.0958C175.511 67.6917 175.402 68.2797 175.31 68.8716C175.185 69.6489 175.057 70.4303 174.92 71.2866C174.317 70.5447 173.714 69.9607 172.854 69.7279C171.242 69.2977 169.912 69.8265 168.802 70.963C167.432 72.3757 166.793 74.1238 166.539 76.0219C166.322 77.6082 166.387 79.1708 167.106 80.6466C167.926 82.3356 169.506 83.0972 171.351 82.7065C172.126 82.5408 172.737 82.0909 173.393 81.6095C173.364 81.8265 173.352 82.0475 173.304 82.2606C173.236 82.5565 173.328 82.6434 173.638 82.6355C174.41 82.6118 175.181 82.6039 175.953 82.6394C176.343 82.6552 176.423 82.5013 176.476 82.1659C176.902 79.3918 177.344 76.6217 177.782 73.8515C178.14 71.6141 178.485 69.3688 178.851 67.1314C178.891 66.8709 178.831 66.8038 178.566 66.8078ZM173.3 78.5316C172.914 79.1708 172.339 79.5812 171.536 79.5812C170.888 79.5812 170.438 79.2892 170.173 78.717C169.916 78.1567 169.876 77.5608 169.888 77.1702C169.892 75.9745 170.056 75.0196 170.511 74.1277C170.687 73.7884 170.913 73.4845 171.206 73.232C172.219 72.3678 173.606 72.719 173.943 73.9857C174.369 75.5681 174.16 77.1149 173.3 78.5316Z" fill="#02AB81"/>
<path d="M169.173 86.1237C168.433 86.1435 167.69 86.1553 166.954 86.1198C166.568 86.104 166.476 86.25 166.428 86.5933C166.255 87.8995 166.046 89.2017 165.841 90.5789C165.692 90.4013 165.596 90.279 165.499 90.1645C164.989 89.5726 164.402 89.0991 163.602 88.9452C162.231 88.6769 161.138 89.1898 160.242 90.1527C158.586 91.9324 158.015 94.1145 157.934 96.4585C157.886 97.8002 158.055 99.1024 158.726 100.306C159.86 102.35 162.324 102.729 164.052 101.131C164.157 101.036 164.225 100.882 164.43 100.85C164.398 101.103 164.386 101.324 164.337 101.537C164.265 101.849 164.366 101.951 164.695 101.94C165.403 101.916 166.11 101.912 166.813 101.94C167.151 101.955 167.248 101.829 167.292 101.525C168.019 96.5177 168.759 91.5141 169.503 86.5105C169.543 86.2224 169.49 86.1159 169.173 86.1237ZM164.446 97.6423C164.293 97.9264 164.112 98.1829 163.871 98.4C162.894 99.2878 161.608 98.9682 161.307 97.7015C160.917 96.0323 161.098 94.4105 162.038 92.9228C162.183 92.694 162.376 92.5045 162.609 92.3546C163.489 91.7903 164.474 92.0863 164.86 93.0452C165.077 93.5818 165.117 94.1461 165.101 94.7183C165.077 95.7364 164.936 96.7268 164.446 97.6423Z" fill="#02AB81"/>
<path d="M102.968 69.6292C101.2 69.2819 99.4912 69.6055 97.8031 70.1106C97.6664 70.1501 97.578 70.2092 97.5539 70.3592C97.4333 71.1721 97.3046 71.981 97.172 72.79C97.1278 73.0701 97.2484 73.0623 97.4654 72.9952C97.9839 72.8334 98.5105 72.6834 99.0531 72.6203C100.014 72.5019 100.974 72.3756 101.923 72.6519C102.622 72.8571 102.952 73.7331 102.602 74.3526C102.51 74.5223 102.385 74.4592 102.277 74.4473C101.557 74.3487 100.838 74.3723 100.118 74.4513C96.9509 74.7906 95.2105 76.8899 95.5321 79.9955C95.729 81.9172 97.1117 83.0103 99.0652 82.8288C100.179 82.7262 101.095 82.2882 101.883 81.3885C101.883 81.7476 101.915 82.0159 101.875 82.2763C101.827 82.5881 101.947 82.6433 102.233 82.6354C102.908 82.6157 103.583 82.6157 104.254 82.6354C104.524 82.6394 104.596 82.5565 104.632 82.3C104.865 80.5677 105.131 78.8354 105.376 77.103C105.561 75.7614 105.858 74.4355 105.842 73.0662C105.814 71.2273 104.797 69.9922 102.968 69.6292ZM101.433 79.2852C101.175 79.6206 100.85 79.8653 100.444 80.0073C99.447 80.3467 98.7034 79.8298 98.6994 78.7959C98.6994 77.9514 99.0813 77.3911 99.8892 77.103C100.544 76.8702 101.228 76.8031 101.923 76.8899C102.112 76.9136 102.204 76.957 102.18 77.1741C102.092 77.9356 101.915 78.6617 101.433 79.2852Z" fill="#02AB81"/>
<path d="M156.659 69.621C154.906 69.2816 153.21 69.6092 151.538 70.1103C151.425 70.1458 151.325 70.1892 151.305 70.3195C151.164 71.2192 151.027 72.1189 150.879 73.0778C151.248 72.9791 151.526 72.8962 151.807 72.8252C152.965 72.5332 154.138 72.3951 155.336 72.5687C156.212 72.6989 156.506 73.1054 156.421 73.9735C156.385 74.3721 156.269 74.4905 155.831 74.4352C154.689 74.2892 153.551 74.3957 152.454 74.7509C149.797 75.6072 148.451 78.551 149.56 81.0843C149.938 81.9406 150.561 82.5878 151.51 82.7654C152.941 83.0298 154.251 82.7417 155.336 81.7078C155.417 81.6328 155.453 81.4829 155.613 81.4987C155.613 81.7394 155.634 81.9722 155.609 82.205C155.577 82.5168 155.654 82.6549 156.015 82.6351C156.638 82.6036 157.269 82.6036 157.893 82.6351C158.246 82.6549 158.347 82.5444 158.395 82.209C158.648 80.3188 158.934 78.4326 159.203 76.5424C159.368 75.3902 159.613 74.2419 159.585 73.0699C159.536 71.1758 158.54 69.984 156.659 69.621ZM155.843 77.6592C155.722 78.3734 155.473 79.0245 154.934 79.5454C154.436 80.0189 153.845 80.228 153.174 80.0307C152.715 79.8966 152.494 79.5177 152.442 79.064C152.362 78.3379 152.547 77.7183 153.21 77.3001C153.801 76.9291 154.48 76.9015 155.047 76.8502C155.979 76.8463 155.983 76.8542 155.843 77.6592Z" fill="#02AB81"/>
<path d="M127.743 69.511C125.629 69.2111 123.977 70.0516 122.823 71.7405C121.159 74.1753 120.87 76.8704 121.641 79.6642C122.051 81.148 123.1 82.1345 124.608 82.5764C126.404 83.1013 128.197 82.9276 129.974 82.4344C130.11 82.3989 130.215 82.3555 130.239 82.2016C130.408 81.1953 130.577 80.1891 130.745 79.1749C130.697 79.1749 130.677 79.171 130.665 79.1789C130.516 79.2381 130.372 79.2973 130.223 79.3604C128.997 79.8537 127.735 80.0786 126.408 79.8694C125.207 79.68 124.527 78.95 124.467 77.8135C124.447 77.4505 124.519 77.2927 124.953 77.2966C126.851 77.3242 128.748 77.3005 130.645 77.3163C130.95 77.3203 131.059 77.2137 131.111 76.9454C131.32 75.8721 131.457 74.7987 131.421 73.7017C131.344 71.4604 129.938 69.8227 127.743 69.511ZM128.35 74.5225C128.302 74.7435 128.169 74.7001 128.036 74.7001C127.538 74.704 127.04 74.704 126.541 74.704V74.6725C126.047 74.6725 125.548 74.6606 125.054 74.6764C124.789 74.6843 124.773 74.5935 124.837 74.3726C124.957 73.9622 125.11 73.5676 125.355 73.2164C125.866 72.4863 126.738 72.2141 127.506 72.5416C128.165 72.8218 128.531 73.7017 128.35 74.5225Z" fill="#02AB81"/>
<path d="M120.385 89.5612C119.85 93.018 119.332 96.4787 118.817 99.9394C118.733 100.516 118.676 101.096 118.628 101.68C118.612 101.92 118.512 101.995 118.271 101.991C117.515 101.979 116.759 101.979 116.004 101.991C115.738 101.995 115.626 101.94 115.674 101.644C115.754 101.131 115.795 100.614 115.863 99.9946C115.421 100.551 115.079 101.04 114.621 101.443C113.99 101.991 113.254 102.272 112.426 102.291C111.482 102.315 110.758 101.901 110.26 101.115C109.488 99.9078 109.371 98.5543 109.484 97.1929C109.697 94.6161 110.179 92.0709 110.497 89.506C110.521 89.3166 110.593 89.2376 110.802 89.2376C111.731 89.2455 112.663 89.2455 113.596 89.2376C113.841 89.2376 113.833 89.3402 113.805 89.5296C113.479 91.696 113.162 93.8624 112.844 96.0328C112.776 96.4984 112.724 96.9719 112.784 97.4455C112.913 98.4596 113.757 98.8937 114.681 98.4123C115.236 98.1242 115.545 97.6309 115.799 97.0943C116.221 96.1906 116.301 95.208 116.454 94.2491C116.699 92.7062 116.928 91.1633 117.153 89.6204C117.193 89.3442 117.29 89.2219 117.607 89.2337C118.423 89.2574 119.243 89.2455 120.063 89.2376C120.308 89.2337 120.433 89.2455 120.385 89.5612Z" fill="#02AB81"/>
<path d="M99.6726 92.6112C99.3511 90.3146 97.6709 88.8585 95.404 88.9808C93.6193 89.0715 92.3733 90.062 91.5332 91.5221C90.1746 93.8976 89.9013 96.4507 90.5685 99.0748C90.9665 100.634 91.9713 101.715 93.5872 102.161C95.203 102.603 96.7987 102.433 98.3784 101.952C98.5392 101.9 98.6075 101.825 98.6356 101.66C98.7843 100.681 98.9491 99.7023 99.122 98.6408C98.9049 98.7434 98.7763 98.8026 98.6477 98.8617C97.6669 99.2998 96.642 99.5286 95.5607 99.4537C94.0856 99.3511 93.3621 98.6802 93.2495 97.3543C93.2214 96.9913 93.2897 96.8177 93.7278 96.8216C95.4803 96.8453 97.2328 96.8335 98.9853 96.8335C99.1943 96.8335 99.3752 96.869 99.4315 96.5572C99.6606 95.2511 99.8575 93.9449 99.6726 92.6112ZM96.0591 94.2054H95.1949C94.7448 94.2054 94.2986 94.1975 93.8484 94.2093C93.5751 94.2172 93.5228 94.1265 93.5912 93.8779C93.7399 93.357 93.9248 92.8637 94.3026 92.4573C94.7608 91.9601 95.3316 91.8298 95.9627 92.0193C96.5977 92.2126 96.8188 92.7374 96.8751 93.3333C96.9635 94.2054 96.9515 94.2054 96.0591 94.2054Z" fill="#02AB81"/>
<path d="M136.039 92.5641C135.697 90.2911 134.029 88.8666 131.778 88.981C130.074 89.0639 128.844 89.9715 128.008 91.3605C126.521 93.8307 126.227 96.4943 126.991 99.2448C127.409 100.752 128.438 101.758 129.994 102.173C131.589 102.599 133.173 102.433 134.737 101.952C134.861 101.912 134.97 101.885 134.994 101.723C135.151 100.717 135.315 99.7143 135.488 98.6528C135.215 98.7712 135.014 98.8659 134.809 98.9488C133.876 99.3355 132.908 99.5289 131.895 99.4539C130.42 99.3395 129.668 98.6094 129.632 97.323C129.62 96.9284 129.74 96.8179 130.142 96.8258C131.879 96.8455 133.611 96.8337 135.348 96.8337C135.557 96.8337 135.737 96.8653 135.794 96.5575C136.031 95.2355 136.24 93.9136 136.039 92.5641ZM132.413 94.2214H131.545C131.095 94.2214 130.649 94.2135 130.199 94.2214C129.957 94.2293 129.893 94.1504 129.953 93.9136C130.098 93.377 130.291 92.86 130.681 92.4457C131.143 91.9603 131.714 91.8104 132.349 92.0195C132.956 92.2208 133.189 92.718 133.245 93.302C133.338 94.2214 133.33 94.2214 132.413 94.2214Z" fill="#02AB81"/>
<path d="M178.666 92.3544C178.196 89.9394 176.198 88.578 173.802 89.0634C172.183 89.387 171.125 90.4445 170.394 91.8296C169.28 93.9486 169.035 96.2137 169.469 98.5379C169.795 100.302 170.748 101.624 172.593 102.149C174.22 102.61 175.832 102.429 177.428 101.951C177.593 101.904 177.669 101.813 177.693 101.659C177.842 100.696 177.991 99.7335 178.151 98.6642C177.874 98.7865 177.685 98.8694 177.496 98.9443C176.391 99.3902 175.253 99.5994 174.06 99.3784C172.922 99.1653 172.323 98.4353 172.295 97.2909C172.287 96.9161 172.404 96.8174 172.781 96.8253C174.518 96.845 176.254 96.8332 177.987 96.8332C178.192 96.8332 178.409 96.8845 178.465 96.5806C178.722 95.1837 178.939 93.775 178.666 92.3544ZM175.398 94.2288C175.016 94.1893 174.626 94.2209 174.245 94.2209C173.794 94.2209 173.344 94.209 172.898 94.2248C172.621 94.2327 172.556 94.1222 172.629 93.8855C172.733 93.5382 172.842 93.1949 173.027 92.8753C173.477 92.0979 174.236 91.7625 175 92.0071C175.619 92.2044 175.985 92.9147 175.941 93.7513C175.921 94.1301 175.792 94.2682 175.398 94.2288Z" fill="#02AB81"/>
<path d="M142.693 75.5129C142.669 76.1285 142.701 76.7401 142.874 77.3399C143.404 79.1788 144.811 79.9838 146.708 79.5339C147.319 79.3879 147.882 79.1235 148.521 78.8591C148.36 79.8733 148.172 80.8282 148.075 81.795C148.019 82.3514 147.782 82.5527 147.247 82.6632C146.037 82.9157 144.827 83.0499 143.617 82.7697C141.684 82.3199 140.386 81.0966 139.839 79.2735C138.758 75.6589 139.188 72.2021 141.451 69.1005C143.063 66.8868 145.796 66.0305 148.465 66.7447C148.992 66.8828 149.53 66.9933 150.029 67.2103C150.169 67.2695 150.33 67.2932 150.294 67.53C150.113 68.5836 149.952 69.6411 149.775 70.7618C149.008 70.4027 148.292 70.091 147.504 69.9726C146.21 69.7832 145.121 70.1462 144.249 71.0972C143.103 72.3521 142.753 73.8871 142.693 75.5129Z" fill="#02AB81"/>
<path d="M147.306 88.279C147.241 88.9025 147.121 89.522 147.02 90.181C146.317 89.8693 145.658 89.5181 144.902 89.3957C143.7 89.2063 142.715 89.5694 141.92 90.4454C141.039 91.4082 140.673 92.596 140.493 93.843C140.348 94.8492 140.332 95.8555 140.593 96.8499C141.055 98.6335 142.438 99.4227 144.251 98.9452C144.777 98.8032 145.252 98.5506 145.794 98.3257C145.778 99.253 145.577 100.117 145.457 100.985C145.324 101.94 145.3 101.936 144.343 102.157C143.427 102.366 142.502 102.445 141.574 102.268C139.657 101.901 138.382 100.725 137.828 98.961C136.658 95.2359 137.064 91.649 139.343 88.4053C140.874 86.2192 143.338 85.4773 145.931 86.2113C146.453 86.3573 147.141 86.3691 147.426 86.7716C147.695 87.1583 147.358 87.766 147.306 88.279Z" fill="#02AB81"/>
<path d="M114.648 70.0833C114.503 70.8725 114.378 71.6696 114.27 72.4628C114.238 72.7035 114.153 72.7272 113.932 72.6996C113.201 72.6049 112.465 72.5378 111.721 72.5575C111.396 72.5654 111.082 72.6049 110.793 72.7588C110.174 73.0863 110.089 73.9307 110.652 74.3332C110.974 74.5621 111.344 74.7357 111.701 74.9094C113.615 75.8564 114.262 76.9692 114.097 79.0448C113.912 81.3651 112.606 82.6081 110.146 82.7976C109.744 82.8291 109.342 82.837 109.048 82.8528C107.951 82.7897 106.954 82.7541 105.978 82.5371C105.7 82.4779 105.648 82.3872 105.692 82.1307C105.825 81.3888 105.945 80.6391 106.038 79.8893C106.078 79.5697 106.146 79.4592 106.5 79.5855C107.417 79.909 108.373 80.0156 109.346 79.9761C109.667 79.9643 109.985 79.9288 110.282 79.7946C111.042 79.4513 111.159 78.4963 110.467 78.0386C109.953 77.6992 109.374 77.4546 108.839 77.1349C106.54 75.7775 106.183 72.4273 108.152 70.62C109.101 69.7518 110.298 69.5388 111.536 69.4993C112.485 69.4717 113.426 69.5703 114.366 69.6966C114.648 69.7321 114.692 69.8268 114.648 70.0833Z" fill="#02AB81"/>
<path d="M109.257 90.1097C109.04 91.041 108.843 91.9802 108.63 92.947C108.14 92.7102 107.706 92.4498 107.195 92.3432C106.118 92.1144 105.214 92.4143 104.619 93.2942C103.722 94.6083 103.534 96.088 104.012 97.5876C104.458 98.9805 105.68 99.4462 107.207 98.9134C107.449 98.8306 107.678 98.7201 108.003 98.582C107.854 99.6869 107.714 100.717 107.573 101.743C107.561 101.845 107.481 101.893 107.396 101.944C105.893 102.824 103.2 102.421 102.038 101.143C101.23 100.255 100.796 99.1976 100.615 98.0414C100.258 95.7881 100.563 93.6336 101.801 91.6763C102.894 89.9559 104.454 88.9693 106.592 89.0364C107.477 89.068 108.281 89.3718 109.068 89.7388C109.229 89.8177 109.306 89.9085 109.257 90.1097Z" fill="#02AB81"/>
<path d="M121.287 70.0793C121.155 70.9514 121.026 71.8234 120.906 72.6995C120.882 72.877 120.809 72.952 120.628 72.9362C120.564 72.9323 120.5 72.9323 120.435 72.9362C120.025 72.9678 119.495 72.7626 119.23 73.027C119 73.2598 119.053 73.7689 118.988 74.1556C118.767 75.5249 118.546 76.8941 118.329 78.2634C118.297 78.4647 118.281 78.6699 118.289 78.8751C118.301 79.3683 118.538 79.6367 119.037 79.6958C119.306 79.7274 119.587 79.7353 119.853 79.6919C120.174 79.6367 120.283 79.6958 120.222 80.0352C120.09 80.7494 119.989 81.4676 119.877 82.1858C119.853 82.3318 119.857 82.4739 119.64 82.541C118.759 82.8132 117.863 82.9908 116.938 82.8645C115.765 82.7028 115.057 81.8899 114.913 80.6745C114.8 79.7156 114.989 78.7883 115.138 77.857C115.64 74.6686 116.159 71.4801 116.665 68.2878C116.713 67.9918 116.782 67.8261 117.168 67.8419C118.108 67.8774 119.053 67.8537 120.029 67.8537C119.929 68.3627 119.853 68.8284 119.744 69.2861C119.66 69.6452 119.688 69.8504 120.15 69.7833C120.431 69.7439 120.725 69.7873 121.014 69.7754C121.255 69.7636 121.324 69.8504 121.287 70.0793Z" fill="#02AB81"/>
<path d="M167.484 69.9571C166.953 70.9752 166.628 72.0564 166.411 73.1732C166.375 73.3507 166.306 73.4375 166.097 73.4336C165.374 73.4218 164.952 73.84 164.691 74.4556C164.16 75.7026 163.971 77.0324 163.742 78.3504C163.521 79.6368 163.328 80.9311 163.139 82.2215C163.095 82.5253 162.998 82.6477 162.665 82.6358C161.813 82.6122 160.96 82.6201 160.108 82.6319C159.835 82.6398 159.751 82.5727 159.795 82.2886C160.442 78.2281 161.077 74.1676 161.704 70.1031C161.74 69.8782 161.805 69.7716 162.058 69.7756C162.846 69.7874 163.633 69.7874 164.417 69.7716C164.695 69.7677 164.747 69.8742 164.703 70.111C164.626 70.5609 164.566 71.0107 164.482 71.5829C164.843 71.1291 165.117 70.7621 165.418 70.4227C165.912 69.8703 166.531 69.5901 167.295 69.6375C167.544 69.6533 167.601 69.7361 167.484 69.9571Z" fill="#02AB81"/>
<path d="M127.275 89.3909C126.796 90.4089 126.479 91.4823 126.29 92.5872C126.262 92.7647 126.19 92.8595 125.976 92.8595C125.261 92.8673 124.887 93.3133 124.654 93.9131C124.188 95.1008 124.011 96.3517 123.806 97.5947C123.585 98.964 123.4 100.337 123.207 101.71C123.171 101.975 123.086 102.093 122.789 102.085C122.017 102.066 121.246 102.07 120.474 102.085C120.164 102.093 120.064 102.03 120.112 101.691C120.506 99.1061 120.872 96.5135 121.246 93.9249C121.451 92.5083 121.672 91.0877 121.861 89.6671C121.901 89.3435 121.981 89.2014 122.347 89.2172C123.022 89.2488 123.697 89.237 124.373 89.2212C124.658 89.2133 124.73 89.3001 124.678 89.5724C124.618 89.896 124.598 90.2274 124.558 90.5549C124.55 90.6457 124.405 90.8075 124.666 90.7562C124.96 90.3616 125.221 89.9433 125.587 89.6039C126.009 89.2172 126.499 89.0318 127.078 89.0673C127.299 89.0831 127.391 89.1423 127.275 89.3909Z" fill="#02AB81"/>
<path d="M180.255 78.729C179.17 78.7251 178.302 79.5893 178.286 80.6981C178.265 81.878 179.11 82.7895 180.227 82.8014C181.312 82.8132 182.204 81.9017 182.213 80.777C182.217 79.6485 181.348 78.733 180.255 78.729ZM180.255 82.2765C179.423 82.2844 178.768 81.6096 178.768 80.7534C178.768 79.9247 179.419 79.2578 180.231 79.2538C181.051 79.246 181.73 79.9405 181.722 80.777C181.714 81.6018 181.059 82.2726 180.255 82.2765ZM180.347 79.8655C180.171 79.8615 179.994 79.8773 179.821 79.8615C179.608 79.8418 179.544 79.9247 179.552 80.1299C179.564 80.5205 179.548 80.9151 179.56 81.3058C179.564 81.4479 179.447 81.6688 179.765 81.6688C180.066 81.6688 179.97 81.4636 179.994 81.3097C180.014 81.1835 179.921 80.9862 180.143 80.9743C180.327 80.9664 180.339 81.1637 180.372 81.2861C180.452 81.5978 180.609 81.7596 180.946 81.6373C180.991 81.3097 180.577 81.1085 180.838 80.7494C181.167 80.2996 180.918 79.8813 180.347 79.8655ZM180.199 80.635C180.03 80.6508 179.974 80.5758 179.978 80.4219C179.986 80.2798 180.01 80.1733 180.195 80.2048C180.331 80.2325 180.488 80.2246 180.508 80.4179C180.476 80.5916 180.352 80.6231 180.199 80.635Z" fill="#02AB81"/>
<path d="M183.992 101.537C183.992 101.699 184.008 101.841 183.759 101.845C183.522 101.845 183.506 101.726 183.506 101.549C183.514 101.052 183.51 100.554 183.45 100.053C183.349 100.527 183.241 100.996 183.144 101.47C183.108 101.651 183.128 101.833 182.835 101.849C182.497 101.864 182.525 101.628 182.485 101.45C182.393 101.044 182.32 100.633 182.159 100.231C182.159 100.677 182.155 101.123 182.159 101.569C182.163 101.722 182.159 101.837 181.942 101.841C181.721 101.845 181.669 101.762 181.673 101.565C181.681 100.89 181.677 100.211 181.677 99.5323C181.677 99.3666 181.673 99.193 181.914 99.2285C182.107 99.26 182.385 99.0943 182.457 99.4455C182.561 99.9467 182.674 100.444 182.782 100.945C182.819 100.941 182.851 100.941 182.887 100.937C182.987 100.464 183.112 99.9901 183.184 99.5087C183.249 99.1022 183.546 99.2443 183.775 99.2324C184.073 99.2127 183.988 99.4455 183.988 99.5994C183.996 100.243 183.992 100.89 183.992 101.537Z" fill="#02AB81"/>
<path d="M181.408 99.4698C181.412 99.6552 181.328 99.742 181.151 99.7105C180.713 99.6355 180.701 99.888 180.709 100.204C180.725 100.661 180.705 101.119 180.717 101.573C180.725 101.782 180.648 101.845 180.443 101.845C180.226 101.845 180.162 101.758 180.17 101.561C180.178 101.313 180.174 101.06 180.174 100.807C180.174 100.65 180.166 100.492 180.174 100.334C180.19 99.9788 180.23 99.6158 179.664 99.7105C179.487 99.742 179.455 99.6158 179.455 99.4737C179.455 99.3316 179.479 99.2251 179.656 99.2251H181.195C181.368 99.2251 181.4 99.3238 181.408 99.4698Z" fill="#02AB81"/>
<path d="M124.664 90.7564C124.648 90.8472 124.612 90.9261 124.507 90.9735C124.435 90.8196 124.475 90.6854 124.555 90.5552C124.587 90.6262 124.575 90.717 124.664 90.7564Z" fill="#02AB81"/>
<path d="M139.234 69.6374C138.687 69.6098 138.193 69.74 137.751 70.0754C137.244 70.4582 136.931 70.9988 136.533 71.4684C136.525 71.3579 136.521 71.2513 136.517 71.1408C136.561 70.7975 136.577 70.4463 136.661 70.1109C136.738 69.7992 136.605 69.7715 136.348 69.7755C135.592 69.7834 134.836 69.7913 134.085 69.7715C133.799 69.7637 133.691 69.8544 133.651 70.1267C133.02 74.1911 132.385 78.2556 131.737 82.3201C131.697 82.5923 131.778 82.6357 132.027 82.6318C132.907 82.62 133.791 82.62 134.676 82.6318C134.933 82.6357 135.041 82.5687 135.082 82.3043C135.262 81.0257 135.447 79.7472 135.668 78.4726C135.906 77.1231 136.094 75.7617 136.625 74.4832C136.89 73.8478 137.32 73.4177 138.068 73.4335C138.277 73.4374 138.333 73.3625 138.37 73.1731C138.587 72.0563 138.92 70.9712 139.439 69.9491C139.567 69.6966 139.459 69.6492 139.234 69.6374Z" fill="#02AB81"/>
<path d="M95.8997 66.8034C94.4728 66.8192 93.0419 66.8192 91.6109 66.8034C91.3055 66.7995 91.1728 66.8824 91.0804 67.1823C90.3569 69.4473 89.6133 71.7045 88.8737 73.9616C88.6164 74.7548 88.3552 75.544 88.0939 76.3371C88.0336 76.3293 87.9693 76.3214 87.909 76.3135C87.909 73.2868 87.901 70.2602 87.917 67.2336C87.9211 66.8587 87.8005 66.7995 87.4588 66.8034C86.2047 66.8232 84.9507 66.8311 83.6966 66.7995C83.2585 66.7877 83.1419 66.9337 83.0776 67.3362C82.5309 70.8205 81.9642 74.3049 81.4015 77.7893C81.1603 79.2651 80.9191 80.741 80.678 82.2207C80.6338 82.4812 80.6137 82.6509 80.9955 82.6351C81.7994 82.6035 82.6033 82.6193 83.4072 82.6311C83.6524 82.6351 83.7287 82.5483 83.7649 82.3115C84.3397 78.7482 84.9266 75.1888 85.5134 71.6295C85.5657 71.5979 85.6179 71.5703 85.6702 71.5387C85.7264 73.8551 85.7827 76.1714 85.8309 78.4878C85.8591 79.6992 85.8872 80.9146 85.8912 82.126C85.8952 82.5285 86.0239 82.6824 86.4499 82.6351C86.8479 82.5956 87.2579 82.5917 87.6518 82.6351C88.0939 82.6903 88.2547 82.5049 88.3833 82.1181C89.6012 78.5548 90.8352 74.9994 92.0651 71.4401L92.1737 71.5466C92.0209 72.5765 91.8682 73.6065 91.7114 74.6324C91.3175 77.1698 90.9276 79.711 90.5257 82.2484C90.4734 82.5759 90.582 82.6469 90.8915 82.6351C91.4542 82.6114 92.0169 82.6272 92.5796 82.6272C93.8056 82.6272 93.7895 82.6232 93.9784 81.4157C94.7301 76.6844 95.4897 71.957 96.2615 67.2296C96.3178 66.8784 96.2494 66.7995 95.8997 66.8034Z" fill="#02AB81"/>
<path d="M180.835 80.7496C181.165 80.2997 180.915 79.8814 180.345 79.8657C180.168 79.8617 179.991 79.8775 179.818 79.8617C179.605 79.842 179.541 79.9249 179.549 80.13C179.561 80.5207 179.545 80.9153 179.557 81.306C179.561 81.448 179.444 81.669 179.762 81.669C180.063 81.669 179.967 81.4638 179.991 81.3099C180.011 81.1836 179.918 80.9863 180.14 80.9745C180.324 80.9666 180.337 81.1639 180.369 81.2862C180.449 81.598 180.606 81.7598 180.943 81.6374C180.988 81.3099 180.574 81.1087 180.835 80.7496ZM180.196 80.6351C180.027 80.6509 179.971 80.576 179.975 80.4221C179.983 80.28 180.007 80.1735 180.192 80.205C180.328 80.2326 180.485 80.2248 180.505 80.4181C180.473 80.5917 180.349 80.6233 180.196 80.6351Z" fill="#02AB81"/>
<path d="M180.835 80.7496C181.165 80.2997 180.915 79.8814 180.345 79.8657C180.168 79.8617 179.991 79.8775 179.818 79.8617C179.605 79.842 179.541 79.9249 179.549 80.13C179.561 80.5207 179.545 80.9153 179.557 81.306C179.561 81.448 179.444 81.669 179.762 81.669C180.063 81.669 179.967 81.4638 179.991 81.3099C180.011 81.1836 179.918 80.9863 180.14 80.9745C180.324 80.9666 180.337 81.1639 180.369 81.2862C180.449 81.598 180.606 81.7598 180.943 81.6374C180.988 81.3099 180.574 81.1087 180.835 80.7496ZM180.196 80.6351C180.027 80.6509 179.971 80.576 179.975 80.4221C179.983 80.28 180.007 80.1735 180.192 80.205C180.328 80.2326 180.485 80.2248 180.505 80.4181C180.473 80.5917 180.349 80.6233 180.196 80.6351Z" fill="#02AB81"/>
</g>
</g>
<defs>
<filter id="filter0_d_73_10514" x="0" y="0" width="275" height="177" filterUnits="userSpaceOnUse" color-interpolation-filters="sRGB">
<feFlood flood-opacity="0" result="BackgroundImageFix"/>
<feColorMatrix in="SourceAlpha" type="matrix" values="0 0 0 0 0 0 0 0 0 0 0 0 0 0 0 0 0 0 127 0" result="hardAlpha"/>
<feOffset dy="4"/>
<feGaussianBlur stdDeviation="20"/>
<feComposite in2="hardAlpha" operator="out"/>
<feColorMatrix type="matrix" values="0 0 0 0 0 0 0 0 0 0 0 0 0 0 0 0 0 0 0.15 0"/>
<feBlend mode="normal" in2="BackgroundImageFix" result="effect1_dropShadow_73_10514"/>
<feBlend mode="normal" in="SourceGraphic" in2="effect1_dropShadow_73_10514" result="shape"/>
</filter>
<clipPath id="clip0_73_10514">
<rect width="104" height="36" fill="white" transform="translate(80 66.5)"/>
</clipPath>
</defs>
</svg>
