<svg width="81" height="81" viewBox="0 0 81 81" fill="none" xmlns="http://www.w3.org/2000/svg">
<rect x="0.233887" y="0.636963" width="80" height="80" rx="17" fill="#02AB81"/>
<g clip-path="url(#clip0_23_4989)">
<path d="M49.5672 43.3038V48.6371H46.9006V43.3038H49.5672ZM33.5672 43.3038V48.6371H32.2339C31.5006 48.6371 30.9006 48.0371 30.9006 47.3038V43.3038H33.5672ZM40.2339 25.9705C33.6072 25.9705 28.2339 31.3438 28.2339 37.9705V47.3038C28.2339 49.5171 30.0206 51.3038 32.2339 51.3038H36.2339V40.6371H30.9006V37.9705C30.9006 32.8105 35.0739 28.6371 40.2339 28.6371C45.3939 28.6371 49.5672 32.8105 49.5672 37.9705V40.6371H44.2339V51.3038H49.5672V52.6371H40.2339V55.3038H48.2339C50.4472 55.3038 52.2339 53.5171 52.2339 51.3038V37.9705C52.2339 31.3438 46.8606 25.9705 40.2339 25.9705Z" fill="white"/>
</g>
<defs>
<clipPath id="clip0_23_4989">
<rect width="32" height="32" fill="white" transform="translate(24.2339 24.637)"/>
</clipPath>
</defs>
</svg>
