<svg width="81" height="81" viewBox="0 0 81 81" fill="none" xmlns="http://www.w3.org/2000/svg">
<rect x="0.233887" y="0.636963" width="80" height="80" rx="17" fill="#02AB81"/>
<g clip-path="url(#clip0_23_4981)">
<path d="M50.1403 41.9435C50.1937 41.5168 50.2337 41.0901 50.2337 40.6368C50.2337 40.1835 50.1937 39.7568 50.1403 39.3301L52.9537 37.1301C53.207 36.9301 53.2737 36.5701 53.1137 36.2768L50.447 31.6635C50.327 31.4501 50.1003 31.3301 49.8603 31.3301C49.7803 31.3301 49.7003 31.3435 49.6337 31.3701L46.3137 32.7035C45.6203 32.1701 44.8737 31.7301 44.0603 31.3968L43.5537 27.8635C43.5137 27.5435 43.2337 27.3035 42.9003 27.3035H37.567C37.2337 27.3035 36.9537 27.5435 36.9137 27.8635L36.407 31.3968C35.5937 31.7301 34.847 32.1835 34.1537 32.7035L30.8337 31.3701C30.7537 31.3435 30.6737 31.3301 30.5937 31.3301C30.367 31.3301 30.1403 31.4501 30.0203 31.6635L27.3537 36.2768C27.1803 36.5701 27.2603 36.9301 27.5137 37.1301L30.327 39.3301C30.2737 39.7568 30.2337 40.1968 30.2337 40.6368C30.2337 41.0768 30.2737 41.5168 30.327 41.9435L27.5137 44.1435C27.2603 44.3435 27.1937 44.7035 27.3537 44.9968L30.0203 49.6101C30.1403 49.8235 30.367 49.9435 30.607 49.9435C30.687 49.9435 30.767 49.9301 30.8337 49.9035L34.1537 48.5701C34.847 49.1035 35.5937 49.5435 36.407 49.8768L36.9137 53.4101C36.9537 53.7301 37.2337 53.9701 37.567 53.9701H42.9003C43.2337 53.9701 43.5137 53.7301 43.5537 53.4101L44.0603 49.8768C44.8737 49.5435 45.6203 49.0901 46.3137 48.5701L49.6337 49.9035C49.7137 49.9301 49.7937 49.9435 49.8737 49.9435C50.1003 49.9435 50.327 49.8235 50.447 49.6101L53.1137 44.9968C53.2737 44.7035 53.207 44.3435 52.9537 44.1435L50.1403 41.9435ZM47.5003 39.6635C47.5537 40.0768 47.567 40.3568 47.567 40.6368C47.567 40.9168 47.5403 41.2101 47.5003 41.6101L47.3137 43.1168L48.5003 44.0501L49.9403 45.1701L49.007 46.7835L47.3137 46.1035L45.927 45.5435L44.727 46.4501C44.1537 46.8768 43.607 47.1968 43.0603 47.4235L41.647 47.9968L41.4337 49.5035L41.167 51.3035H39.3003L39.047 49.5035L38.8337 47.9968L37.4203 47.4235C36.847 47.1835 36.3137 46.8768 35.7803 46.4768L34.567 45.5435L33.1537 46.1168L31.4603 46.7968L30.527 45.1835L31.967 44.0635L33.1537 43.1301L32.967 41.6235C32.927 41.2101 32.9003 40.9035 32.9003 40.6368C32.9003 40.3701 32.927 40.0635 32.967 39.6635L33.1537 38.1568L31.967 37.2235L30.527 36.1035L31.4603 34.4901L33.1537 35.1701L34.5403 35.7301L35.7403 34.8235C36.3137 34.3968 36.8603 34.0768 37.407 33.8501L38.8203 33.2768L39.0337 31.7701L39.3003 29.9701H41.1537L41.407 31.7701L41.6203 33.2768L43.0337 33.8501C43.607 34.0901 44.1403 34.3968 44.6737 34.7968L45.887 35.7301L47.3003 35.1568L48.9937 34.4768L49.927 36.0901L48.5003 37.2235L47.3137 38.1568L47.5003 39.6635ZM40.2337 35.3035C37.287 35.3035 34.9003 37.6901 34.9003 40.6368C34.9003 43.5835 37.287 45.9701 40.2337 45.9701C43.1803 45.9701 45.567 43.5835 45.567 40.6368C45.567 37.6901 43.1803 35.3035 40.2337 35.3035ZM40.2337 43.3035C38.767 43.3035 37.567 42.1035 37.567 40.6368C37.567 39.1701 38.767 37.9701 40.2337 37.9701C41.7003 37.9701 42.9003 39.1701 42.9003 40.6368C42.9003 42.1035 41.7003 43.3035 40.2337 43.3035Z" fill="white"/>
</g>
<defs>
<clipPath id="clip0_23_4981">
<rect width="32" height="32" fill="white" transform="translate(24.2339 24.637)"/>
</clipPath>
</defs>
</svg>
