<svg width="80" height="88" viewBox="0 0 80 88" fill="none" xmlns="http://www.w3.org/2000/svg">
<circle cx="39.9998" cy="64.2738" r="23.637" fill="#B4F4D9"/>
<path d="M10.3262 49.1295H15.5535V52.5801H3.55386V51.7818C6.00872 48.9321 7.75974 46.8549 8.80691 45.5503C9.87126 44.2284 10.5837 43.2156 10.9442 42.5117C11.3219 41.8079 11.5107 41.147 11.5107 40.529C11.5107 39.9281 11.3304 39.4474 10.9699 39.0869C10.6094 38.7264 10.1373 38.5462 9.55367 38.5462C8.95283 38.5462 8.46358 38.735 8.08591 39.1127C7.7254 39.4732 7.54515 39.9624 7.54515 40.5805V40.8895H3.86286V40.529C3.86286 38.9324 4.37787 37.6278 5.40788 36.6149C6.43789 35.6021 7.80265 35.0956 9.50217 35.0956C10.6008 35.0956 11.5879 35.3274 12.4635 35.7909C13.339 36.2372 14.0171 36.8724 14.4977 37.6964C14.9784 38.5204 15.2187 39.4474 15.2187 40.4775C15.2187 41.5761 14.884 42.7349 14.2145 43.9537C13.545 45.1726 12.2489 46.8979 10.3262 49.1295ZM30.4076 46.091V49.284H28.914V52.5801H25.4635V49.284H17.2492V48.6403L22.8885 35.4562H26.5193L21.9615 46.091H25.5665L26.1588 41.9967H28.914V46.091H30.4076ZM31.6858 54.6658L39.5397 32.9841H43.4794L35.6256 54.6658H31.6858ZM44.7664 35.4562H57.0235V35.9454L50.5087 52.5801H46.6976L52.1824 38.7522H44.7664V35.4562Z" fill="#02AB81"/>
<path d="M26.8008 25.5839V25.5839C26.8008 21.8107 29.8596 18.752 33.6328 18.752H57.0067C63.6341 18.752 69.0067 24.1245 69.0067 30.752V54.7568C69.0067 61.3843 63.6341 66.7568 57.0067 66.7568H34.7796C31.8186 66.7568 29.4182 64.3565 29.4182 61.3954V61.3954" stroke="#02AB81" stroke-width="4" stroke-linecap="round" stroke-linejoin="round"/>
</svg>
