<svg width="22" height="20" viewBox="0 0 22 20" fill="none" xmlns="http://www.w3.org/2000/svg">
<path d="M11 4.89722C13.76 4.89722 16 7.13722 16 9.89722C16 10.5472 15.87 11.1572 15.64 11.7272L18.56 14.6472C20.07 13.3872 21.26 11.7572 21.99 9.89722C20.26 5.50722 15.99 2.39722 10.99 2.39722C9.59 2.39722 8.25 2.64722 7.01 3.09722L9.17 5.25722C9.74 5.02722 10.35 4.89722 11 4.89722ZM1 2.16722L3.28 4.44722L3.74 4.90722C2.08 6.19722 0.78 7.91722 0 9.89722C1.73 14.2872 6 17.3972 11 17.3972C12.55 17.3972 14.03 17.0972 15.38 16.5572L15.8 16.9772L18.73 19.8972L20 18.6272L2.27 0.897217L1 2.16722ZM6.53 7.69722L8.08 9.24722C8.03 9.45722 8 9.67722 8 9.89722C8 11.5572 9.34 12.8972 11 12.8972C11.22 12.8972 11.44 12.8672 11.65 12.8172L13.2 14.3672C12.53 14.6972 11.79 14.8972 11 14.8972C8.24 14.8972 6 12.6572 6 9.89722C6 9.10722 6.2 8.36722 6.53 7.69722ZM10.84 6.91722L13.99 10.0672L14.01 9.90722C14.01 8.24722 12.67 6.90722 11.01 6.90722L10.84 6.91722Z" fill="black"/>
</svg>
