<svg width="126" height="49" viewBox="0 0 126 49" fill="none" xmlns="http://www.w3.org/2000/svg">
<path d="M47.3959 36.1149C47.9261 36.7639 48.4444 37.4226 49.0047 38.1244C47.6319 38.5581 46.3194 38.9735 45.0058 39.3858C35.9864 42.2185 26.967 45.0492 17.9487 47.8884C17.8269 47.9261 17.647 47.8658 17.5802 48.0444C17.6082 47.756 17.8603 47.7517 18.0511 47.6914C24.9153 45.5238 31.7882 43.3831 38.6513 41.2144C41.7838 40.2242 44.9228 39.2555 48.0532 38.2578C48.7257 38.0436 48.7278 38.021 48.2785 37.4592C47.9541 37.0524 47.633 36.6423 47.3011 36.2419C46.9994 35.8771 46.7429 35.4832 46.647 35.0204C46.5468 34.5371 46.2741 34.394 45.8054 34.4155C44.383 34.479 42.9703 34.3466 41.5726 34.0915C39.4401 33.703 37.4616 32.9399 35.745 31.5849C34.1922 30.359 33.2063 28.7543 32.7709 26.846C32.1675 24.2016 32.4649 21.6691 33.9821 19.3605C35.0338 17.759 36.4875 16.6192 38.216 15.8087C40.216 14.8713 42.3237 14.4236 44.5263 14.4203C46.3011 14.4182 48.0802 14.331 49.8237 14.8164C51.3474 15.2394 51.355 15.2146 51.355 16.8011C51.3539 17.8408 51.3657 18.8815 51.3496 19.9212C51.3388 20.5702 51.1879 20.6725 50.6017 20.3948C49.3216 19.7888 47.9821 19.4132 46.5726 19.2873C45.1373 19.1603 43.7741 19.4121 42.5371 20.1591C41.5791 20.737 40.9142 21.5765 40.6438 22.6754C40.1922 24.5062 40.3086 26.2508 41.6416 27.7221C42.744 28.9383 44.2019 29.3839 45.7935 29.4861C47.5629 29.5991 49.258 29.2504 50.9228 28.6918C51.5716 28.4733 51.5737 28.4733 51.8194 29.0933C51.8603 29.1966 51.9056 29.301 52.0004 29.3527C52.9078 29.8424 53.5813 30.6345 54.4325 31.2706C54.5338 31.0457 54.4929 30.8487 54.4929 30.6625C54.4961 25.6944 54.495 20.7263 54.495 15.7592C54.4961 14.6367 54.4994 14.6345 55.6448 14.6334C57.4412 14.6334 59.2364 14.6334 61.0317 14.6345C62.0974 14.6345 62.1297 14.6657 62.1297 15.7076C62.1308 18.9902 62.1297 22.2718 62.1308 25.5534C62.1319 25.746 62.1125 25.9419 62.175 26.2358C62.5629 25.7159 62.869 25.2391 63.1922 24.7774C64.6244 22.7335 66.1405 20.7543 67.7353 18.8363C68.1017 18.395 68.147 18.028 67.9142 17.5286C66.87 15.2846 65.8711 13.0212 64.855 10.7642C63.4929 7.73878 62.1297 4.71443 60.7709 1.68793C60.6599 1.44253 60.55 1.19714 60.4325 0.954979C60.0435 0.150997 60.0252 0.135929 59.119 0.204811C57.2591 0.345803 55.3959 0.412533 53.536 0.535229C51.3366 0.680527 49.1341 0.788155 46.9336 0.918385C45.342 1.01202 43.7472 1.0992 42.1545 1.181C40.5791 1.2628 39.0037 1.34997 37.4293 1.45222C35.9994 1.54586 34.5662 1.6212 33.1341 1.69869C31.3614 1.79448 29.5899 1.90426 27.8183 1.99359C26.2957 2.07108 24.7752 2.1658 23.2537 2.24652C21.5888 2.33585 19.9239 2.43164 18.2601 2.52958C16.8108 2.6146 15.3603 2.69748 13.911 2.77712C12.1567 2.87291 10.4024 2.96763 8.64914 3.07202C7.25367 3.15382 5.85712 3.24853 4.46057 3.30343C3.47458 3.34217 2.49397 3.47563 1.50475 3.43796C1.3291 3.4315 1.14699 3.50577 0.985352 3.37876C2.61358 3.27652 4.24182 3.16566 5.87005 3.0731C10.3636 2.81587 14.8582 2.56617 19.3528 2.31432C25.1179 1.99036 30.883 1.6664 36.6491 1.34352C42.3959 1.02063 48.1438 0.698824 53.8916 0.375939C55.772 0.270464 57.6524 0.17898 59.5306 0.0498261C60.0015 0.0175376 60.244 0.121937 60.453 0.590119C63.0177 6.34069 65.6114 12.0794 68.1987 17.8203C68.3108 18.0679 68.4013 18.267 68.1707 18.5436C66.0543 21.0771 64.0651 23.7086 62.2181 26.4446C62.1912 26.4855 62.1448 26.5156 62.0996 26.5586C61.9595 26.3918 62.0317 26.2078 62.0317 26.0431C62.0263 22.4731 62.0209 18.9041 62.036 15.3352C62.0381 14.9176 61.9325 14.7895 61.5015 14.7949C59.4185 14.8175 57.3356 14.8196 55.2526 14.7938C54.7903 14.7884 54.6524 14.8853 54.6545 15.3772C54.675 20.5777 54.6664 25.7794 54.6664 30.98V31.6215C54.2828 31.4579 54.0586 31.1565 53.7752 30.937C53.1287 30.4343 52.6039 29.7778 51.8108 29.4571C51.4627 29.315 51.7591 28.9297 51.5823 28.652C50.9013 28.8533 50.1976 29.0879 49.481 29.2666C47.5349 29.7509 45.5845 29.8854 43.6491 29.2095C41.1933 28.3506 39.9832 26.2271 40.328 23.3976C40.6039 21.1396 42.4304 19.453 44.8313 19.1926C46.9681 18.9612 48.9616 19.4121 50.8657 20.3539C50.9563 20.3991 51.0349 20.497 51.2009 20.44C51.2009 18.8632 51.1955 17.2736 51.2062 15.685C51.2084 15.4137 51.0425 15.375 50.8507 15.3029C49.4228 14.7658 47.9369 14.5829 46.4218 14.5323C43.5737 14.4354 40.7914 14.712 38.1912 15.982C35.3205 17.3855 33.3183 19.5391 32.7925 22.7658C32.0004 27.622 34.2957 31.4557 38.9067 33.2004C41.2095 34.0722 43.6028 34.3294 46.0425 34.2627C46.4444 34.2519 46.6836 34.2788 46.7267 34.789C46.7688 35.2862 47.0716 35.7189 47.3959 36.1149Z" fill="#02AB81"/>
<path d="M73.7201 30.0933C73.7816 30.2311 73.8333 30.3377 73.6081 30.4055C72.1038 30.8597 70.6048 31.33 69.1038 31.7928C69.0564 31.8068 68.9982 31.7863 68.8979 31.7788C69.9755 30.0492 71.0316 28.3552 72.1361 26.5825C72.6889 27.8084 73.2051 28.9514 73.7201 30.0933Z" fill="#02AB81"/>
<path d="M86.9981 28.5383C86.4981 29.522 85.5876 29.5974 84.6382 29.5209C83.7158 29.4467 83.0348 28.8881 82.7923 28.0367C82.6156 27.419 82.6166 26.7958 82.7923 26.178C83.0509 25.2728 83.8235 24.7326 84.8731 24.7078C86.1641 24.6766 86.7772 25.0597 87.1748 26.1726C86.9054 26.2329 86.6738 26.2706 86.4529 26.3384C86.1436 26.432 85.8947 26.4837 85.6942 26.1113C85.538 25.8207 85.205 25.7776 84.8807 25.8379C84.5207 25.9046 84.3138 26.1436 84.2223 26.4718C84.1059 26.8927 84.1274 27.3275 84.205 27.7526C84.2761 28.1487 84.5304 28.3919 84.9324 28.4317C85.3257 28.4705 85.6231 28.3112 85.8041 27.9399C85.9895 27.5589 86.4722 27.5191 87.0358 27.857C87.4087 28.0809 87.0973 28.3435 86.9981 28.5383Z" fill="#02AB81"/>
<path d="M90.1466 24.7075C88.5917 24.7054 87.7264 25.5782 87.7285 27.1421C87.7307 28.7016 88.5863 29.5336 90.1843 29.5325C91.7414 29.5314 92.5852 28.665 92.5777 27.0775C92.5701 25.5599 91.6973 24.7086 90.1466 24.7075ZM91.0863 27.226C91.0852 27.2368 91.0863 27.3799 91.0712 27.5209C91.0076 28.114 90.6876 28.4347 90.1606 28.4379C89.6412 28.4422 89.3126 28.1258 89.2231 27.5403C89.1822 27.2745 89.179 27.0108 89.2188 26.7438C89.3104 26.1325 89.6585 25.7999 90.1908 25.8247C90.7231 25.8505 91.0486 26.2143 91.0852 26.8267C91.0906 26.9161 91.0863 27.0054 91.0863 27.226Z" fill="#02AB81"/>
<path d="M96.4399 13.6967C96.0337 10.0621 93.9927 7.69537 89.9065 7.76748C87.8074 7.80407 85.7071 7.78362 83.608 7.76425C83.2039 7.76102 83.0617 7.84282 83.067 8.28302C83.0918 10.5411 83.0789 12.8002 83.0789 15.0582C83.0789 17.3345 83.0864 19.6109 83.0703 21.8861C83.0681 22.2413 83.1694 22.3339 83.5175 22.3285C84.8095 22.3091 86.1015 22.336 87.3936 22.3167C88.6651 22.2973 89.9388 22.3995 91.2093 22.2176C93.941 21.8269 95.7632 20.1695 96.303 17.4938C96.5563 16.2421 96.5821 14.9657 96.4399 13.6967ZM91.7998 17.016C91.566 18.2655 90.7944 18.8973 89.4722 18.9759C88.9884 19.0039 88.5024 18.977 88.0196 19.0082C87.691 19.0308 87.5897 18.9307 87.5961 18.5938C87.6177 17.411 87.6048 16.2271 87.6048 15.0442C87.6048 13.8603 87.6155 12.6775 87.5972 11.4946C87.5918 11.1653 87.6823 11.0448 88.0175 11.0717C88.4636 11.1083 88.914 11.091 89.3612 11.1244C90.7395 11.2299 91.5444 11.9208 91.7998 13.2737C92.0358 14.5168 92.0337 15.7739 91.7998 17.016Z" fill="#02AB81"/>
<path d="M98.5549 25.3221C98.5721 26.5416 98.5322 27.7621 98.5786 28.9804C98.598 29.5186 98.3038 29.4529 97.9773 29.4432C97.6734 29.4335 97.3296 29.553 97.3598 28.9998C97.4051 28.1657 97.3717 27.3272 97.2585 26.477C97.0355 27.3326 96.7704 28.1818 96.6044 29.0493C96.5064 29.5573 96.1842 29.4174 95.8868 29.4443C95.5753 29.4723 95.3566 29.44 95.2725 29.0514C95.0807 28.1624 94.835 27.2863 94.5193 26.407C94.5193 27.2422 94.487 28.0796 94.5322 28.9126C94.5581 29.3894 94.3868 29.4916 93.96 29.4507C93.613 29.4174 93.2714 29.5487 93.2995 28.9395C93.3566 27.6867 93.3243 26.4296 93.3102 25.1736C93.307 24.8819 93.3727 24.7775 93.6917 24.77C95.2208 24.7334 95.2143 24.7237 95.5969 26.195C95.6982 26.5846 95.737 26.9979 95.9751 27.4176C96.1755 26.6492 96.3598 25.9453 96.543 25.2403C96.5656 25.1542 96.5484 25.0294 96.6023 24.9831C97.1271 24.5257 97.7521 24.8561 98.3296 24.7958C98.7197 24.756 98.5527 25.1338 98.5549 25.3221Z" fill="#02AB81"/>
<path d="M103.448 26.1242C103.4 25.317 102.943 24.8402 102.114 24.8036C101.344 24.7691 100.573 24.7982 99.8022 24.7734C99.4961 24.7638 99.4509 24.8961 99.4563 25.1544C99.4703 25.7991 99.4617 26.4438 99.4617 27.0885C99.4617 27.7332 99.4767 28.379 99.4541 29.0226C99.4433 29.3401 99.5166 29.4983 99.8647 29.4467C100.005 29.4251 100.153 29.424 100.294 29.4467C100.796 29.5274 100.976 29.3649 100.951 28.8224C100.903 27.7709 100.938 27.7698 101.964 27.7192C102.072 27.7138 102.18 27.7085 102.285 27.688C103.056 27.532 103.494 26.94 103.448 26.1242ZM101.318 26.7603C100.896 26.8001 100.894 26.5547 100.933 26.3179C100.92 25.9918 100.861 25.7163 101.31 25.755C101.664 25.7841 101.992 25.8314 101.998 26.2501C102.005 26.6752 101.666 26.728 101.318 26.7603Z" fill="#02AB81"/>
<path d="M107.892 28.6457C107.906 29.4432 107.921 29.4432 107.111 29.4432C106.25 29.4432 105.39 29.4335 104.529 29.4486C104.252 29.4529 104.149 29.3711 104.157 29.0859C104.173 28.4239 104.162 27.761 104.162 27.098C104.162 26.4543 104.176 25.8086 104.156 25.165C104.146 24.8561 104.253 24.7764 104.554 24.771C105.62 24.7527 105.62 24.7409 105.62 25.8204C105.62 26.5006 105.643 27.1819 105.612 27.861C105.594 28.2302 105.73 28.3152 106.069 28.2969C106.551 28.2722 107.036 28.3034 107.52 28.2862C107.794 28.2765 107.886 28.3572 107.892 28.6457Z" fill="#02AB81"/>
<path d="M110.043 29.0867C110.052 29.3698 109.961 29.4429 109.682 29.4505C108.545 29.4795 108.545 29.4903 108.545 28.3537C108.545 27.3162 108.555 26.2787 108.54 25.2411C108.536 24.9226 108.58 24.7665 108.967 24.7676C110.037 24.7708 110.037 24.7504 110.037 25.8148V27.1558C110.037 27.7995 110.024 28.4442 110.043 29.0867Z" fill="#02AB81"/>
<path d="M110.053 20.785C108.965 21.9345 107.575 22.3747 106.058 22.5275C105.612 22.5727 105.163 22.5759 104.851 22.5921C103.676 22.5523 102.642 22.4834 101.627 22.2143C99.3342 21.6073 98.3245 19.5979 98.0832 17.8059C98.0465 17.5314 98.1543 17.483 98.4032 17.4701C99.567 17.413 100.731 17.3484 101.892 17.2516C102.247 17.2214 102.377 17.3075 102.461 17.6627C102.835 19.2276 103.911 19.9143 105.495 19.6409C106.247 19.5107 106.819 18.9855 106.901 18.3505C106.975 17.7693 106.571 17.1978 105.853 16.8867C105.057 16.5434 104.203 16.4078 103.373 16.1904C102.382 15.9299 101.411 15.6135 100.534 15.0764C97.8752 13.4469 97.9905 9.80801 100.734 8.31844C101.738 7.77276 102.825 7.58441 103.942 7.53813C105.489 7.47248 107.028 7.50692 108.47 8.19467C109.884 8.8695 110.524 10.0695 110.787 11.5365C110.831 11.7808 110.776 11.882 110.499 11.8949C109.317 11.9487 108.135 12.0155 106.956 12.1037C106.634 12.1274 106.543 12.0133 106.457 11.7173C106.096 10.4688 104.662 9.85322 103.468 10.414C103.068 10.6012 102.795 10.909 102.808 11.3751C102.821 11.8077 103.117 12.0521 103.486 12.1931C104.444 12.5579 105.468 12.6698 106.448 12.9529C107.274 13.1918 108.094 13.4394 108.873 13.8129C111.982 15.3024 111.822 18.9166 110.053 20.785Z" fill="#02AB81"/>
<path d="M114.338 25.9014C113.886 24.6916 113.886 24.6981 112.603 24.7724C112.39 24.7853 112.282 24.8542 112.211 25.0468C111.678 26.4858 111.138 27.9226 110.569 29.4423C111.011 29.4423 111.388 29.4251 111.762 29.4488C112.015 29.4649 112.141 29.3519 112.164 29.1334C112.206 28.732 112.436 28.6448 112.792 28.6846C113.004 28.7094 113.224 28.7094 113.436 28.6846C113.775 28.6448 113.984 28.7395 114.028 29.1076C114.049 29.2895 114.109 29.452 114.357 29.4456C114.776 29.4337 115.195 29.4423 115.667 29.4423C115.202 28.2068 114.769 27.0541 114.338 25.9014ZM113.48 27.617C113.239 27.6643 112.98 27.6676 112.736 27.6363C112.573 27.6159 112.674 27.4706 112.701 27.3791C112.823 26.9723 112.948 26.5665 113.102 26.0607C113.254 26.5568 113.379 26.9486 113.492 27.3425C113.518 27.4329 113.623 27.589 113.48 27.617Z" fill="#02AB81"/>
<path d="M120.607 29.0122C120.616 29.3739 120.491 29.4234 120.158 29.4578C119.455 29.531 118.992 29.3125 118.651 28.6721C118.357 28.1179 117.947 27.626 117.588 27.1062C117.556 27.118 117.523 27.1309 117.491 27.1438C117.491 27.7799 117.477 28.4181 117.497 29.0542C117.507 29.3534 117.421 29.4471 117.112 29.4503C116.09 29.4643 116.091 29.4783 116.091 28.4504C116.091 27.3591 116.1 26.2667 116.085 25.1753C116.08 24.8793 116.163 24.7997 116.469 24.7653C117.186 24.6824 117.677 24.8815 118.025 25.5563C118.323 26.131 118.748 26.6391 119.198 27.2945C119.198 26.4776 119.211 25.8039 119.191 25.1323C119.183 24.846 119.279 24.7782 119.556 24.7717C120.599 24.747 120.599 24.7362 120.599 25.7899C120.599 26.864 120.582 27.9381 120.607 29.0122Z" fill="#02AB81"/>
<path d="M125.574 25.2836C125.558 25.388 125.561 25.4988 125.573 25.6054C125.607 25.8895 125.483 25.9627 125.206 25.9702C124.134 26.0015 124.135 26.0122 124.135 27.1154C124.135 27.7784 124.126 28.4425 124.14 29.1055C124.145 29.3616 124.059 29.4359 123.802 29.4499C122.661 29.5112 122.661 29.5209 122.661 28.4069C122.661 27.7612 122.63 27.1133 122.673 26.4707C122.702 26.0219 122.529 25.9046 122.13 25.9606C122.024 25.9756 121.911 25.9466 121.807 25.9659C121.26 26.0682 121.167 25.811 121.167 25.3159C121.167 24.8477 121.321 24.7422 121.752 24.7702C122.306 24.8068 122.864 24.7788 123.42 24.7788C123.977 24.7788 124.536 24.8111 125.089 24.7691C125.516 24.7368 125.632 24.9004 125.574 25.2836Z" fill="#02AB81"/>
<path d="M125.985 18.5537C125.95 18.5903 125.895 18.6205 125.884 18.6635C125.312 20.7806 123.86 21.9472 121.777 22.3605C119.833 22.7458 117.889 22.6888 115.983 22.0979C113.937 21.464 112.952 19.4126 112.771 17.7164C112.748 17.5001 112.855 17.4861 113.017 17.4764C114.252 17.4043 115.488 17.3343 116.722 17.246C117.011 17.2245 117.081 17.3558 117.139 17.598C117.532 19.2286 118.596 19.9228 120.23 19.6332C120.917 19.5105 121.495 18.9853 121.575 18.4117C121.664 17.7659 121.33 17.2525 120.6 16.9146C119.796 16.5432 118.92 16.4195 118.074 16.1924C117.191 15.9556 116.324 15.6725 115.513 15.2399C114.099 14.4854 113.244 13.3467 113.303 11.7129C113.364 9.99084 114.293 8.79724 115.856 8.11057C117.276 7.48633 118.786 7.48418 120.297 7.53692C120.888 7.55737 121.474 7.64024 122.049 7.78877C124.157 8.33229 125.277 9.6432 125.499 11.8743C124.194 11.9497 122.888 12.0164 121.584 12.1068C121.334 12.124 121.231 12.0498 121.179 11.8162C120.861 10.4063 119.71 10.134 118.568 10.2879C117.979 10.3675 117.544 10.7916 117.495 11.2684C117.45 11.701 117.749 12.0767 118.381 12.2661C119.77 12.6794 121.213 12.8968 122.581 13.394C123.876 13.8655 125.032 14.5144 125.636 15.8415C125.78 16.159 125.869 16.5013 125.985 16.8317C125.775 16.8467 125.768 16.6713 125.736 16.5443C125.369 15.1086 124.368 14.2744 123.063 13.7341C121.848 13.2304 120.563 12.9571 119.286 12.6632C118.848 12.5621 118.405 12.477 118.013 12.2456C117.64 12.0261 117.327 11.7398 117.379 11.2673C117.43 10.811 117.687 10.4676 118.124 10.2879C119.053 9.90473 120.809 10.0694 121.245 11.5364C121.339 11.8507 121.538 11.9669 121.845 11.9497C122.847 11.8937 123.849 11.8539 124.849 11.7645C125.225 11.7301 125.348 11.587 125.263 11.2092C124.925 9.71746 124.114 8.61643 122.633 8.12779C120.508 7.42606 118.355 7.42391 116.236 8.13425C114.73 8.63795 113.739 9.6658 113.488 11.2856C113.289 12.5761 113.714 13.6534 114.692 14.5058C115.698 15.3841 116.955 15.7285 118.2 16.0772C119.011 16.3043 119.854 16.4141 120.628 16.7757C120.941 16.9221 121.236 17.0835 121.438 17.3763C122.066 18.2825 121.527 19.5041 120.373 19.729C119.845 19.8313 119.294 19.8345 118.766 19.7107C117.85 19.4955 117.324 18.8519 117.095 17.9855C116.973 17.5259 116.739 17.3655 116.296 17.4064C115.332 17.4947 114.363 17.5065 113.398 17.6023C113.005 17.641 112.911 17.7874 112.987 18.148C113.401 20.1047 114.405 21.5705 116.432 22.0775C118.499 22.593 120.586 22.6651 122.637 21.9677C124.078 21.478 125.096 20.5276 125.61 19.0714C125.681 18.8712 125.677 18.5925 125.985 18.5537Z" fill="#02AB81"/>
<path d="M24.1535 21.3053C24.1233 20.2527 23.5403 19.5391 22.4207 19.1915C21.5705 18.9267 20.6922 18.9461 19.8151 18.9235C19.5166 18.916 19.5155 19.0806 19.5177 19.2959C19.5241 20.0288 19.5198 20.7618 19.5198 21.4958C19.5198 22.2471 19.5209 22.9983 19.5188 23.7495C19.5188 23.9336 19.4994 24.1026 19.7785 24.1036C20.7106 24.1069 21.6416 24.1155 22.536 23.7915C23.6761 23.3804 24.1901 22.5861 24.1535 21.3053ZM24.1535 21.3053C24.1233 20.2527 23.5403 19.5391 22.4207 19.1915C21.5705 18.9267 20.6922 18.9461 19.8151 18.9235C19.5166 18.916 19.5155 19.0806 19.5177 19.2959C19.5241 20.0288 19.5198 20.7618 19.5198 21.4958C19.5198 22.2471 19.5209 22.9983 19.5188 23.7495C19.5188 23.9336 19.4994 24.1026 19.7785 24.1036C20.7106 24.1069 21.6416 24.1155 22.536 23.7915C23.6761 23.3804 24.1901 22.5861 24.1535 21.3053ZM24.1535 21.3053C24.1233 20.2527 23.5403 19.5391 22.4207 19.1915C21.5705 18.9267 20.6922 18.9461 19.8151 18.9235C19.5166 18.916 19.5155 19.0806 19.5177 19.2959C19.5241 20.0288 19.5198 20.7618 19.5198 21.4958C19.5198 22.2471 19.5209 22.9983 19.5188 23.7495C19.5188 23.9336 19.4994 24.1026 19.7785 24.1036C20.7106 24.1069 21.6416 24.1155 22.536 23.7915C23.6761 23.3804 24.1901 22.5861 24.1535 21.3053ZM24.1535 21.3053C24.1233 20.2527 23.5403 19.5391 22.4207 19.1915C21.5705 18.9267 20.6922 18.9461 19.8151 18.9235C19.5166 18.916 19.5155 19.0806 19.5177 19.2959C19.5241 20.0288 19.5198 20.7618 19.5198 21.4958C19.5198 22.2471 19.5209 22.9983 19.5188 23.7495C19.5188 23.9336 19.4994 24.1026 19.7785 24.1036C20.7106 24.1069 21.6416 24.1155 22.536 23.7915C23.6761 23.3804 24.1901 22.5861 24.1535 21.3053ZM24.1535 21.3053C24.1233 20.2527 23.5403 19.5391 22.4207 19.1915C21.5705 18.9267 20.6922 18.9461 19.8151 18.9235C19.5166 18.916 19.5155 19.0806 19.5177 19.2959C19.5241 20.0288 19.5198 20.7618 19.5198 21.4958C19.5198 22.2471 19.5209 22.9983 19.5188 23.7495C19.5188 23.9336 19.4994 24.1026 19.7785 24.1036C20.7106 24.1069 21.6416 24.1155 22.536 23.7915C23.6761 23.3804 24.1901 22.5861 24.1535 21.3053ZM24.1535 21.3053C24.1233 20.2527 23.5403 19.5391 22.4207 19.1915C21.5705 18.9267 20.6922 18.9461 19.8151 18.9235C19.5166 18.916 19.5155 19.0806 19.5177 19.2959C19.5241 20.0288 19.5198 20.7618 19.5198 21.4958C19.5198 22.2471 19.5209 22.9983 19.5188 23.7495C19.5188 23.9336 19.4994 24.1026 19.7785 24.1036C20.7106 24.1069 21.6416 24.1155 22.536 23.7915C23.6761 23.3804 24.1901 22.5861 24.1535 21.3053ZM68.1987 17.8203C65.6114 12.0794 63.0177 6.34069 60.453 0.590119C60.244 0.121937 60.0015 0.0175376 59.5306 0.0498261C57.6524 0.17898 55.772 0.270464 53.8916 0.375939C48.1438 0.698824 42.3959 1.02063 36.6491 1.34352C30.883 1.6664 25.1179 1.99036 19.3528 2.31432C14.8582 2.56617 10.3636 2.81587 5.87005 3.0731C4.24182 3.16566 2.61358 3.27652 0.985352 3.37876V3.59402C1.52414 4.64124 1.85173 5.77134 2.2569 6.86915C7.24828 20.4034 12.2289 33.9419 17.2106 47.4805C17.2774 47.6634 17.314 47.8561 17.3647 48.0444H17.5802C17.647 47.8658 17.8269 47.9261 17.9487 47.8884C26.967 45.0492 35.9864 42.2185 45.0058 39.3858C46.3194 38.9735 47.6319 38.5581 49.0047 38.1244C48.4444 37.4226 47.9261 36.7639 47.3959 36.1149C47.0716 35.7189 46.7688 35.2862 46.7267 34.789C46.6836 34.2788 46.4444 34.2519 46.0425 34.2627C43.6028 34.3294 41.2095 34.0722 38.9067 33.2004C34.2957 31.4557 32.0004 27.622 32.7925 22.7658C33.3183 19.5391 35.3205 17.3855 38.1912 15.982C40.7914 14.712 43.5737 14.4354 46.4218 14.5323C47.9369 14.5829 49.4228 14.7658 50.8507 15.3029C51.0425 15.375 51.2084 15.4137 51.2062 15.685C51.1955 17.2736 51.2009 18.8632 51.2009 20.44C51.0349 20.497 50.9563 20.3991 50.8657 20.3539C48.9616 19.4121 46.9681 18.9612 44.8313 19.1926C42.4304 19.453 40.6039 21.1396 40.328 23.3976C39.9832 26.2271 41.1933 28.3506 43.6491 29.2095C45.5845 29.8854 47.5349 29.7509 49.481 29.2666C50.1976 29.0879 50.9013 28.8533 51.5823 28.652C51.7591 28.9297 51.4627 29.315 51.8108 29.4571C52.6039 29.7778 53.1287 30.4343 53.7752 30.937C54.0586 31.1565 54.2828 31.4579 54.6664 31.6215V30.98C54.6664 25.7794 54.675 20.5777 54.6545 15.3772C54.6524 14.8853 54.7903 14.7884 55.2526 14.7938C57.3356 14.8196 59.4185 14.8175 61.5015 14.7949C61.9325 14.7895 62.0381 14.9176 62.036 15.3352C62.0209 18.9041 62.0263 22.4731 62.0317 26.0431C62.0317 26.2078 61.9595 26.3918 62.0996 26.5586C62.1448 26.5156 62.1912 26.4855 62.2181 26.4446C64.0651 23.7086 66.0543 21.0771 68.1707 18.5436C68.4013 18.267 68.3108 18.0679 68.1987 17.8203ZM62.7041 9.8795C62.3614 11.3863 61.0263 12.5745 59.3808 12.8457C58.1976 13.0416 57.0543 12.9404 55.9886 12.3679C54.3162 11.4702 53.605 9.77295 54.0209 7.74309C54.356 6.10283 55.9067 4.81345 57.7235 4.6703C57.9369 4.65416 58.1535 4.66815 58.3679 4.66815C59.3862 4.60895 60.3216 4.87049 61.1567 5.44953C62.536 6.40634 63.1125 8.08104 62.7041 9.8795ZM12.7332 33.971C12.3797 33.9742 12.2903 33.8763 12.2914 33.5265C12.3065 30.4795 12.3 27.4315 12.3 24.3846C12.3 21.3548 12.3043 18.3251 12.2935 15.2964C12.2925 14.9563 12.3269 14.7895 12.7418 14.796C15.9886 14.8455 19.2375 14.7185 22.4821 14.8831C24.2828 14.9746 26.036 15.3018 27.6901 16.067C29.7009 16.9959 30.9498 18.4898 31.1405 20.7424C31.342 23.1188 30.4757 25.0217 28.4843 26.3681C26.7709 27.5262 24.8129 27.9331 22.7978 28.13C21.9045 28.2161 21.0069 28.2624 20.1103 28.215C19.7192 28.1946 19.592 28.2904 19.5985 28.708C19.6265 30.303 19.5974 31.8981 19.619 33.4942C19.6233 33.8709 19.5166 33.9742 19.1405 33.971C17.0047 33.9538 14.869 33.9548 12.7332 33.971ZM19.5198 21.4958C19.5198 22.2471 19.5209 22.9983 19.5188 23.7495C19.5188 23.9336 19.4994 24.1026 19.7785 24.1036C20.7106 24.1069 21.6416 24.1155 22.536 23.7915C23.6761 23.3804 24.1901 22.5861 24.1535 21.3053C24.1233 20.2527 23.5403 19.5391 22.4207 19.1915C21.5705 18.9267 20.6922 18.9461 19.8151 18.9235C19.5166 18.916 19.5155 19.0806 19.5177 19.2959C19.5241 20.0288 19.5198 20.7618 19.5198 21.4958ZM24.1535 21.3053C24.1233 20.2527 23.5403 19.5391 22.4207 19.1915C21.5705 18.9267 20.6922 18.9461 19.8151 18.9235C19.5166 18.916 19.5155 19.0806 19.5177 19.2959C19.5241 20.0288 19.5198 20.7618 19.5198 21.4958C19.5198 22.2471 19.5209 22.9983 19.5188 23.7495C19.5188 23.9336 19.4994 24.1026 19.7785 24.1036C20.7106 24.1069 21.6416 24.1155 22.536 23.7915C23.6761 23.3804 24.1901 22.5861 24.1535 21.3053ZM24.1535 21.3053C24.1233 20.2527 23.5403 19.5391 22.4207 19.1915C21.5705 18.9267 20.6922 18.9461 19.8151 18.9235C19.5166 18.916 19.5155 19.0806 19.5177 19.2959C19.5241 20.0288 19.5198 20.7618 19.5198 21.4958C19.5198 22.2471 19.5209 22.9983 19.5188 23.7495C19.5188 23.9336 19.4994 24.1026 19.7785 24.1036C20.7106 24.1069 21.6416 24.1155 22.536 23.7915C23.6761 23.3804 24.1901 22.5861 24.1535 21.3053ZM24.1535 21.3053C24.1233 20.2527 23.5403 19.5391 22.4207 19.1915C21.5705 18.9267 20.6922 18.9461 19.8151 18.9235C19.5166 18.916 19.5155 19.0806 19.5177 19.2959C19.5241 20.0288 19.5198 20.7618 19.5198 21.4958C19.5198 22.2471 19.5209 22.9983 19.5188 23.7495C19.5188 23.9336 19.4994 24.1026 19.7785 24.1036C20.7106 24.1069 21.6416 24.1155 22.536 23.7915C23.6761 23.3804 24.1901 22.5861 24.1535 21.3053ZM24.1535 21.3053C24.1233 20.2527 23.5403 19.5391 22.4207 19.1915C21.5705 18.9267 20.6922 18.9461 19.8151 18.9235C19.5166 18.916 19.5155 19.0806 19.5177 19.2959C19.5241 20.0288 19.5198 20.7618 19.5198 21.4958C19.5198 22.2471 19.5209 22.9983 19.5188 23.7495C19.5188 23.9336 19.4994 24.1026 19.7785 24.1036C20.7106 24.1069 21.6416 24.1155 22.536 23.7915C23.6761 23.3804 24.1901 22.5861 24.1535 21.3053Z" fill="#02AB81"/>
<path d="M125.985 16.8317V18.5537C125.95 18.5903 125.895 18.6205 125.884 18.6635C125.312 20.7806 123.86 21.9472 121.777 22.3605C119.833 22.7458 117.889 22.6888 115.983 22.0979C113.937 21.464 112.952 19.4126 112.771 17.7164C112.748 17.5001 112.855 17.4861 113.017 17.4764C114.252 17.4043 115.488 17.3343 116.722 17.246C117.011 17.2245 117.081 17.3558 117.139 17.598C117.532 19.2286 118.596 19.9228 120.23 19.6332C120.917 19.5105 121.495 18.9853 121.575 18.4117C121.664 17.7659 121.33 17.2525 120.6 16.9146C119.796 16.5432 118.92 16.4195 118.074 16.1924C117.191 15.9556 116.324 15.6725 115.513 15.2399C114.099 14.4854 113.244 13.3467 113.303 11.7129C113.364 9.99084 114.293 8.79724 115.856 8.11057C117.276 7.48633 118.786 7.48418 120.297 7.53692C120.888 7.55737 121.474 7.64024 122.049 7.78877C124.157 8.33229 125.277 9.6432 125.499 11.8743C124.194 11.9497 122.888 12.0164 121.584 12.1068C121.334 12.124 121.231 12.0498 121.179 11.8162C120.861 10.4063 119.71 10.134 118.568 10.2879C117.979 10.3675 117.544 10.7916 117.495 11.2684C117.45 11.701 117.749 12.0767 118.381 12.2661C119.77 12.6794 121.213 12.8968 122.581 13.394C123.876 13.8655 125.032 14.5144 125.636 15.8415C125.78 16.159 125.869 16.5013 125.985 16.8317Z" fill="#02AB81"/>
<path d="M80.6305 13.2989C80.5594 13.033 80.3611 12.934 80.1122 12.906C79.9527 12.8877 79.79 12.863 79.6305 12.8705C78.3752 12.9276 77.123 13.0201 75.9172 13.4044C75.2383 13.6218 74.526 13.7864 74.0142 14.345C70.4129 18.2756 67.0185 22.373 64.0002 26.7718C61.9614 29.7434 60.068 32.8043 58.3083 35.9482C57.9646 36.5616 57.7491 36.6004 57.234 36.1526C56.9366 35.8943 56.6392 35.635 56.3418 35.3756C54.7879 34.0195 53.2318 32.6644 51.6823 31.304C51.3849 31.0435 51.0713 30.8993 50.7114 31.1339C49.8622 31.6872 49.0939 32.3297 48.5799 33.2219C48.1359 33.9936 48.179 34.4338 48.7405 35.1377C50.4959 37.3387 52.2566 39.5354 54.0088 41.7385C54.9571 42.9332 56.192 43.4972 57.7114 43.4789C58.0152 43.4584 58.3213 43.4541 58.623 43.4143C59.7911 43.2583 60.692 42.8299 61.3127 41.6761C63.6812 37.2774 66.2081 32.9658 68.8493 28.7231C72.1758 23.3761 75.5034 18.0281 80.4215 13.9221C80.6176 13.7595 80.6973 13.554 80.6305 13.2989Z" fill="#02AB81"/>
<path d="M96.4399 13.6967C96.0337 10.0621 93.9927 7.69537 89.9065 7.76748C87.8074 7.80407 85.7071 7.78362 83.608 7.76425C83.2039 7.76102 83.0617 7.84282 83.067 8.28302C83.0918 10.5411 83.0789 12.8002 83.0789 15.0582C83.0789 17.3345 83.0864 19.6109 83.0703 21.8861C83.0681 22.2413 83.1694 22.3339 83.5175 22.3285C84.8095 22.3091 86.1015 22.336 87.3936 22.3167C88.6651 22.2973 89.9388 22.3995 91.2093 22.2176C93.941 21.8269 95.7632 20.1695 96.303 17.4938C96.5563 16.2421 96.5821 14.9657 96.4399 13.6967ZM91.7998 17.016C91.566 18.2655 90.7944 18.8973 89.4722 18.9759C88.9884 19.0039 88.5024 18.977 88.0196 19.0082C87.691 19.0308 87.5897 18.9307 87.5961 18.5938C87.6177 17.411 87.6048 16.2271 87.6048 15.0442C87.6048 13.8603 87.6155 12.6775 87.5972 11.4946C87.5918 11.1653 87.6823 11.0448 88.0175 11.0717C88.4636 11.1083 88.914 11.091 89.3612 11.1244C90.7395 11.2299 91.5444 11.9208 91.7998 13.2737C92.0358 14.5168 92.0337 15.7739 91.7998 17.016Z" fill="#02AB81"/>
<path d="M110.053 20.785C108.965 21.9345 107.575 22.3747 106.058 22.5275C105.612 22.5727 105.163 22.5759 104.851 22.5921C103.676 22.5523 102.642 22.4834 101.627 22.2143C99.3342 21.6073 98.3245 19.5979 98.0832 17.8059C98.0465 17.5314 98.1543 17.483 98.4032 17.4701C99.567 17.413 100.731 17.3484 101.892 17.2516C102.247 17.2214 102.377 17.3075 102.461 17.6627C102.835 19.2276 103.911 19.9143 105.495 19.6409C106.247 19.5107 106.819 18.9855 106.901 18.3505C106.975 17.7693 106.571 17.1978 105.853 16.8867C105.057 16.5434 104.203 16.4078 103.373 16.1904C102.382 15.9299 101.411 15.6135 100.534 15.0764C97.8752 13.4469 97.9905 9.80801 100.734 8.31844C101.738 7.77276 102.825 7.58441 103.942 7.53813C105.489 7.47248 107.028 7.50692 108.47 8.19467C109.884 8.8695 110.524 10.0695 110.787 11.5365C110.831 11.7808 110.776 11.882 110.499 11.8949C109.317 11.9487 108.135 12.0155 106.956 12.1037C106.634 12.1274 106.543 12.0133 106.457 11.7173C106.096 10.4688 104.662 9.85322 103.468 10.414C103.068 10.6012 102.795 10.909 102.808 11.3751C102.821 11.8077 103.117 12.0521 103.486 12.1931C104.444 12.5579 105.468 12.6698 106.448 12.9529C107.274 13.1918 108.094 13.4394 108.873 13.8129C111.982 15.3024 111.822 18.9166 110.053 20.785Z" fill="#02AB81"/>
<path d="M98.5786 28.9804C98.598 29.5186 98.3038 29.4529 97.9773 29.4432C97.6734 29.4335 97.3296 29.553 97.3598 28.9998C97.4051 28.1657 97.3717 27.3272 97.2585 26.477C97.0355 27.3326 96.7704 28.1818 96.6044 29.0493C96.5064 29.5573 96.1842 29.4174 95.8868 29.4443C95.5753 29.4723 95.3566 29.44 95.2725 29.0514C95.0807 28.1624 94.835 27.2863 94.5193 26.407C94.5193 27.2422 94.487 28.0796 94.5322 28.9126C94.5581 29.3894 94.3868 29.4916 93.96 29.4507C93.613 29.4174 93.2714 29.5487 93.2995 28.9395C93.3566 27.6867 93.3243 26.4296 93.3102 25.1736C93.307 24.8819 93.3727 24.7775 93.6917 24.77C95.2208 24.7334 95.2143 24.7237 95.5969 26.195C95.6982 26.5846 95.737 26.9979 95.9751 27.4176C96.1755 26.6492 96.3598 25.9453 96.543 25.2403C96.5656 25.1542 96.5484 25.0294 96.6023 24.9831C97.1271 24.5257 97.7521 24.8561 98.3296 24.7958C98.7197 24.756 98.5527 25.1338 98.5549 25.3221C98.5721 26.5416 98.5322 27.7621 98.5786 28.9804Z" fill="#02AB81"/>
<path d="M120.158 29.4578C119.455 29.531 118.992 29.3125 118.651 28.6721C118.357 28.1179 117.947 27.626 117.588 27.1062C117.556 27.118 117.523 27.1309 117.491 27.1438C117.491 27.7799 117.477 28.4181 117.497 29.0542C117.507 29.3534 117.421 29.4471 117.112 29.4503C116.09 29.4643 116.091 29.4783 116.091 28.4504C116.091 27.3591 116.1 26.2667 116.085 25.1753C116.08 24.8793 116.163 24.7997 116.469 24.7653C117.186 24.6824 117.677 24.8815 118.025 25.5563C118.323 26.131 118.748 26.6391 119.198 27.2945C119.198 26.4776 119.211 25.8039 119.191 25.1323C119.183 24.846 119.279 24.7782 119.556 24.7717C120.599 24.747 120.599 24.7362 120.599 25.7899C120.599 26.864 120.582 27.9381 120.607 29.0122C120.616 29.3739 120.491 29.4234 120.158 29.4578Z" fill="#02AB81"/>
<path d="M90.1466 24.7075C88.5917 24.7054 87.7264 25.5782 87.7285 27.1421C87.7307 28.7016 88.5863 29.5336 90.1843 29.5325C91.7414 29.5314 92.5852 28.665 92.5777 27.0775C92.5701 25.5599 91.6973 24.7086 90.1466 24.7075ZM91.0863 27.226C91.0852 27.2368 91.0863 27.3799 91.0712 27.5209C91.0076 28.114 90.6876 28.4347 90.1606 28.4379C89.6412 28.4422 89.3126 28.1258 89.2231 27.5403C89.1822 27.2745 89.179 27.0108 89.2188 26.7438C89.3104 26.1325 89.6585 25.7999 90.1908 25.8247C90.7231 25.8505 91.0486 26.2143 91.0852 26.8267C91.0906 26.9161 91.0863 27.0054 91.0863 27.226Z" fill="#02AB81"/>
<path d="M114.338 25.9014C113.886 24.6916 113.886 24.6981 112.603 24.7724C112.39 24.7853 112.282 24.8542 112.211 25.0468C111.678 26.4858 111.138 27.9226 110.569 29.4423C111.011 29.4423 111.388 29.4251 111.762 29.4488C112.015 29.4649 112.141 29.3519 112.164 29.1334C112.206 28.732 112.436 28.6448 112.792 28.6846C113.004 28.7094 113.224 28.7094 113.436 28.6846C113.775 28.6448 113.984 28.7395 114.028 29.1076C114.049 29.2895 114.109 29.452 114.357 29.4456C114.776 29.4337 115.195 29.4423 115.667 29.4423C115.202 28.2068 114.769 27.0541 114.338 25.9014ZM113.48 27.617C113.239 27.6643 112.98 27.6676 112.736 27.6363C112.573 27.6159 112.674 27.4706 112.701 27.3791C112.823 26.9723 112.948 26.5665 113.102 26.0607C113.254 26.5568 113.379 26.9486 113.492 27.3425C113.518 27.4329 113.623 27.589 113.48 27.617Z" fill="#02AB81"/>
<path d="M86.9981 28.5383C86.4981 29.522 85.5876 29.5974 84.6382 29.5209C83.7158 29.4467 83.0348 28.8881 82.7923 28.0367C82.6156 27.419 82.6166 26.7958 82.7923 26.178C83.0509 25.2728 83.8235 24.7326 84.8731 24.7078C86.1641 24.6766 86.7772 25.0597 87.1748 26.1726C86.9054 26.2329 86.6738 26.2706 86.4529 26.3384C86.1436 26.432 85.8947 26.4837 85.6942 26.1113C85.538 25.8207 85.205 25.7776 84.8807 25.8379C84.5207 25.9046 84.3138 26.1436 84.2223 26.4718C84.1059 26.8927 84.1274 27.3275 84.205 27.7526C84.2761 28.1487 84.5304 28.3919 84.9324 28.4317C85.3257 28.4705 85.6231 28.3112 85.8041 27.9399C85.9895 27.5589 86.4722 27.5191 87.0358 27.857C87.4087 28.0809 87.0973 28.3435 86.9981 28.5383Z" fill="#02AB81"/>
<path d="M103.448 26.1242C103.4 25.317 102.943 24.8402 102.114 24.8036C101.344 24.7691 100.573 24.7982 99.8022 24.7734C99.4961 24.7638 99.4509 24.8961 99.4563 25.1544C99.4703 25.7991 99.4617 26.4438 99.4617 27.0885C99.4617 27.7332 99.4767 28.379 99.4541 29.0226C99.4433 29.3401 99.5166 29.4983 99.8647 29.4467C100.005 29.4251 100.153 29.424 100.294 29.4467C100.796 29.5274 100.976 29.3649 100.951 28.8224C100.903 27.7709 100.938 27.7698 101.964 27.7192C102.072 27.7138 102.18 27.7085 102.285 27.688C103.056 27.532 103.494 26.94 103.448 26.1242ZM101.318 26.7603C100.896 26.8001 100.894 26.5547 100.933 26.3179C100.92 25.9918 100.861 25.7163 101.31 25.755C101.664 25.7841 101.992 25.8314 101.998 26.2501C102.005 26.6752 101.666 26.728 101.318 26.7603Z" fill="#02AB81"/>
<path d="M73.6081 30.4055C72.1038 30.8597 70.6048 31.33 69.1038 31.7928C69.0564 31.8068 68.9982 31.7863 68.8979 31.7788C69.9755 30.0492 71.0316 28.3552 72.1361 26.5825C72.6889 27.8084 73.2051 28.9514 73.7201 30.0933C73.7816 30.2311 73.8333 30.3377 73.6081 30.4055Z" fill="#02AB81"/>
<path d="M125.573 25.6054C125.607 25.8895 125.483 25.9627 125.206 25.9702C124.134 26.0015 124.135 26.0122 124.135 27.1154C124.135 27.7784 124.126 28.4425 124.14 29.1055C124.145 29.3616 124.059 29.4359 123.802 29.4499C122.661 29.5112 122.661 29.5209 122.661 28.4069C122.661 27.7612 122.63 27.1133 122.673 26.4707C122.702 26.0219 122.529 25.9046 122.13 25.9606C122.024 25.9756 121.911 25.9466 121.807 25.9659C121.26 26.0682 121.167 25.811 121.167 25.3159C121.167 24.8477 121.321 24.7422 121.752 24.7702C122.306 24.8068 122.864 24.7788 123.42 24.7788C123.977 24.7788 124.536 24.8111 125.089 24.7691C125.516 24.7368 125.632 24.9004 125.574 25.2836C125.558 25.388 125.561 25.4988 125.573 25.6054Z" fill="#02AB81"/>
<path d="M107.111 29.4432C106.25 29.4432 105.39 29.4335 104.529 29.4486C104.252 29.4529 104.149 29.3711 104.157 29.0859C104.173 28.4239 104.162 27.761 104.162 27.098C104.162 26.4543 104.176 25.8086 104.156 25.165C104.146 24.8561 104.253 24.7764 104.554 24.771C105.62 24.7527 105.62 24.7409 105.62 25.8204C105.62 26.5006 105.643 27.1819 105.612 27.861C105.594 28.2302 105.73 28.3152 106.069 28.2969C106.551 28.2722 107.036 28.3034 107.52 28.2862C107.794 28.2765 107.886 28.3572 107.892 28.6457C107.906 29.4432 107.921 29.4432 107.111 29.4432Z" fill="#02AB81"/>
<path d="M110.043 29.0867C110.052 29.3698 109.961 29.4429 109.682 29.4505C108.545 29.4795 108.545 29.4903 108.545 28.3537C108.545 27.3162 108.555 26.2787 108.54 25.2411C108.536 24.9226 108.58 24.7665 108.967 24.7676C110.037 24.7708 110.037 24.7504 110.037 25.8148V27.1558C110.037 27.7995 110.024 28.4442 110.043 29.0867Z" fill="#02AB81"/>
<path d="M22.5352 23.7921C21.6408 24.1161 20.7098 24.1074 19.7777 24.1042C19.4986 24.1031 19.518 23.9342 19.518 23.7501C19.5201 22.9989 19.5191 22.2476 19.5191 21.4964C19.5191 20.7624 19.5234 20.0294 19.5169 19.2965C19.5148 19.0812 19.5158 18.9165 19.8143 18.9241C20.6915 18.9467 21.5697 18.9273 22.4199 19.1921C23.5395 19.5397 24.1225 20.2533 24.1527 21.3059C24.1893 22.5867 23.6753 23.381 22.5352 23.7921Z" fill="#02AB81"/>
<path d="M22.5352 23.7921C21.6408 24.1161 20.7098 24.1074 19.7777 24.1042C19.4986 24.1031 19.518 23.9342 19.518 23.7501C19.5201 22.9989 19.5191 22.2476 19.5191 21.4964C19.5191 20.7624 19.5234 20.0294 19.5169 19.2965C19.5148 19.0812 19.5158 18.9165 19.8143 18.9241C20.6915 18.9467 21.5697 18.9273 22.4199 19.1921C23.5395 19.5397 24.1225 20.2533 24.1527 21.3059C24.1893 22.5867 23.6753 23.381 22.5352 23.7921Z" fill="#02AB81"/>
</svg>
