<svg width="105" height="37" viewBox="0 0 105 37" fill="none" xmlns="http://www.w3.org/2000/svg">
<path d="M10.6642 20.5695C10.403 21.4416 10.2261 22.3413 10.009 23.2568C8.91976 22.582 7.77421 22.3926 6.55631 22.5899C5.96545 22.6846 5.47507 22.9253 5.30223 23.537C5.11733 24.1841 5.26606 24.7563 5.80467 25.1982C6.17446 25.506 6.60052 25.731 7.02659 25.9519C9.35789 27.1792 9.93669 28.7655 9.67944 31.366C9.51867 32.9444 8.88761 34.2821 7.45667 35.1542C6.56033 35.6987 5.5635 35.9039 4.52245 35.9671C4.51441 35.9671 4.51039 35.971 4.50235 35.971V35.9671C4.50637 35.9473 4.51843 35.9276 4.53853 35.9118C4.83597 35.7816 5.16155 35.7816 5.47507 35.7303C7.62549 35.387 9.06044 34.0098 9.46641 31.9105C9.61915 31.1134 9.64729 30.3124 9.55886 29.5113C9.39406 27.9644 8.48968 26.9148 7.15923 26.1729C6.7412 25.9362 6.31916 25.7073 5.92525 25.435C5.25802 24.9812 4.99675 24.3222 5.18165 23.5843C5.35046 22.9253 5.80065 22.5978 6.62464 22.4636C7.65765 22.2939 8.64242 22.4281 9.57494 22.878C9.88042 23.024 9.95679 22.9332 10.0211 22.653C10.1738 21.9901 10.3427 21.3311 10.4954 20.6721C10.624 20.1157 10.5959 20.0052 10.0332 19.8316C8.46958 19.3502 6.88591 19.2239 5.29821 19.7172C4.69529 19.9066 4.14864 20.1986 3.67434 20.6208C2.58908 21.5758 2.25547 22.8385 2.14694 24.1881C2.11478 24.6103 2.11076 25.0365 2.1791 25.4626C2.37605 26.7056 2.98701 27.6685 4.11648 28.3038C4.58676 28.5721 5.07714 28.8168 5.52732 29.1206C6.22269 29.5942 6.72513 30.194 6.62866 31.0858C6.51209 32.1118 5.80467 32.7431 4.67921 32.8418C3.60199 32.9365 2.56095 32.8102 1.60833 32.2657C1.34706 32.1157 1.23854 32.167 1.17824 32.4432C1.04158 33.0746 0.916979 33.7139 0.760219 34.3413C0.711985 34.5189 0.74816 34.7675 0.466797 34.8148C0.796394 33.9427 0.880803 33.0154 1.13001 32.1236C1.15011 32.0526 1.16217 31.9815 1.18628 31.871C2.25145 32.5892 3.397 32.8576 4.635 32.7352C6.01368 32.5971 6.77738 31.6106 6.4518 30.3952C6.32318 29.9256 6.00564 29.5902 5.61575 29.3298C5.25802 29.093 4.88822 28.8641 4.49833 28.6787C2.48056 27.6961 1.81332 26.0427 2.03841 23.9434C2.08665 23.5054 2.15498 23.0674 2.2836 22.6412C2.79408 20.9049 3.95169 19.8434 5.74839 19.4686C7.2557 19.1568 8.74291 19.2791 10.21 19.7487C10.6441 19.8868 10.8089 20.0841 10.6642 20.5695Z" fill="#02AB81"/>
<path d="M20.1394 26.1571C19.8179 23.8605 18.1377 22.4044 15.8708 22.5267C14.0861 22.6174 12.8401 23.6079 12 25.068C10.6414 27.4435 10.3681 29.9966 11.0353 32.6207C11.4332 34.1794 12.4381 35.2607 14.0539 35.7066C15.6698 36.1485 17.2655 35.9788 18.8452 35.4974C19.0059 35.4461 19.0743 35.3711 19.1024 35.2054C19.2511 34.2268 19.4159 33.2482 19.5888 32.1867C19.3717 32.2893 19.2431 32.3485 19.1145 32.4076C18.1337 32.8457 17.1088 33.0745 16.0275 32.9996C14.5524 32.897 13.8289 32.2261 13.7163 30.9002C13.6882 30.5372 13.7565 30.3636 14.1946 30.3675C15.9471 30.3912 17.6996 30.3794 19.4521 30.3794C19.6611 30.3794 19.842 30.4149 19.8983 30.1031C20.1274 28.797 20.3243 27.4908 20.1394 26.1571ZM16.5259 27.7513H15.6617C15.2116 27.7513 14.7654 27.7434 14.3152 27.7552C14.0419 27.7631 13.9896 27.6724 14.058 27.4238C14.2067 26.9029 14.3916 26.4096 14.7694 26.0032C15.2276 25.506 15.7984 25.3757 16.4295 25.5652C17.0645 25.7585 17.2856 26.2833 17.3419 26.8792C17.4303 27.7513 17.4183 27.7513 16.5259 27.7513Z" fill="#02AB81"/>
<path d="M23.4349 3.17507C21.6663 2.82781 19.958 3.15139 18.2699 3.65649C18.1332 3.69595 18.0448 3.75514 18.0207 3.90509C17.9001 4.71798 17.7714 5.52693 17.6388 6.33587C17.5946 6.61604 17.7152 6.60815 17.9322 6.54107C18.4507 6.37928 18.9773 6.22933 19.5199 6.16619C20.4806 6.04781 21.4412 5.92153 22.3898 6.19776C23.0892 6.40295 23.4188 7.27898 23.0691 7.89851C22.9767 8.0682 22.8521 8.00506 22.7435 7.99322C22.0241 7.89457 21.3046 7.91824 20.5851 7.99717C17.4177 8.33653 15.6773 10.4358 15.9989 13.5414C16.1958 15.4631 17.5785 16.5562 19.532 16.3747C20.6454 16.2721 21.5618 15.8341 22.3496 14.9344C22.3496 15.2935 22.3818 15.5618 22.3416 15.8222C22.2934 16.134 22.4139 16.1892 22.6993 16.1813C23.3746 16.1616 24.0499 16.1616 24.7211 16.1813C24.9904 16.1853 25.0628 16.1024 25.099 15.8459C25.3321 14.1136 25.5974 12.3813 25.8426 10.6489C26.0275 9.30726 26.3249 7.98138 26.3088 6.6121C26.2807 4.77323 25.2638 3.53811 23.4349 3.17507ZM21.8995 12.8311C21.6422 13.1665 21.3166 13.4112 20.9107 13.5532C19.9138 13.8926 19.1702 13.3757 19.1662 12.3418C19.1662 11.4973 19.5481 10.937 20.356 10.6489C21.0111 10.4161 21.6945 10.349 22.3898 10.4358C22.5787 10.4595 22.6712 10.5029 22.6471 10.72C22.5586 11.4815 22.3818 12.2076 21.8995 12.8311Z" fill="#02AB81"/>
<path d="M29.7241 23.6556C29.507 24.5869 29.3101 25.5261 29.097 26.4929C28.6067 26.2561 28.1726 25.9957 27.6621 25.8891C26.5849 25.6603 25.6805 25.9602 25.0856 26.8401C24.1893 28.1542 24.0003 29.6339 24.4787 31.1335C24.9248 32.5264 26.1467 32.9921 27.6741 32.4593C27.9153 32.3765 28.1444 32.266 28.47 32.1279C28.3213 33.2328 28.1806 34.2627 28.0399 35.2887C28.0279 35.3913 27.9475 35.4386 27.8631 35.4899C26.3598 36.3699 23.6667 35.9674 22.5051 34.6889C21.6972 33.801 21.2631 32.7435 21.0822 31.5873C20.7245 29.334 21.03 27.1795 22.268 25.2222C23.3613 23.5017 24.9208 22.5152 27.0592 22.5823C27.9435 22.6139 28.7473 22.9177 29.5352 23.2847C29.6959 23.3636 29.7723 23.4544 29.7241 23.6556Z" fill="#02AB81"/>
<path d="M26.1589 15.6766C26.2916 14.9347 26.4122 14.185 26.5046 13.4352C26.5448 13.1156 26.6131 13.0051 26.9669 13.1314C27.8833 13.4549 28.8399 13.5615 29.8127 13.522C30.1342 13.5102 30.4517 13.4747 30.7492 13.3405C31.5089 12.9972 31.6254 12.0422 30.9341 11.5845C30.4196 11.2451 29.8408 11.0005 29.3062 10.6808C27.0071 9.32339 26.6493 5.97318 28.6189 4.16588C29.5675 3.29775 30.7653 3.08466 32.0033 3.0452C32.9519 3.01757 33.8924 3.11623 34.833 3.2425C35.1143 3.27802 35.1586 3.37272 35.1143 3.62922C34.9696 4.41843 34.845 5.21554 34.7365 6.0087C34.7044 6.24941 34.6199 6.27308 34.3989 6.24546C33.6673 6.15075 32.9318 6.08367 32.1882 6.1034C31.8626 6.11129 31.5491 6.15075 31.2597 6.30465C30.6407 6.63217 30.5563 7.47663 31.119 7.87913C31.4405 8.10801 31.8103 8.28163 32.1681 8.45526C34.0813 9.40232 34.7285 10.5151 34.5637 12.5907C34.3788 14.911 33.0725 16.154 30.6125 16.3435C30.2106 16.375 29.8086 16.3829 29.5152 16.3987C28.4179 16.3356 27.4211 16.3 26.4443 16.083C26.167 16.0238 26.1147 15.9331 26.1589 15.6766Z" fill="#02AB81"/>
<path d="M40.8516 23.1071C40.317 26.5639 39.7985 30.0246 39.284 33.4853C39.1996 34.0614 39.1433 34.6415 39.095 35.2255C39.079 35.4662 38.9785 35.5412 38.7373 35.5372C37.9817 35.5254 37.226 35.5254 36.4703 35.5372C36.205 35.5412 36.0925 35.4859 36.1407 35.19C36.2211 34.677 36.2613 34.1601 36.3296 33.5405C35.8875 34.0969 35.5458 34.5862 35.0876 34.9887C34.4566 35.5372 33.721 35.8174 32.893 35.8371C31.9484 35.8608 31.2249 35.4465 30.7265 34.6612C29.9547 33.4537 29.8382 32.1002 29.9507 30.7388C30.1638 28.162 30.6461 25.6168 30.9636 23.0519C30.9878 22.8625 31.0601 22.7835 31.2691 22.7835C32.1976 22.7914 33.1301 22.7914 34.0627 22.7835C34.3078 22.7835 34.2998 22.8861 34.2717 23.0755C33.9461 25.2419 33.6286 27.4083 33.311 29.5787C33.2427 30.0443 33.1904 30.5178 33.2507 30.9914C33.3793 32.0055 34.2234 32.4396 35.1479 31.9582C35.7026 31.6701 36.0121 31.1768 36.2653 30.6402C36.6874 29.7365 36.7678 28.7539 36.9205 27.795C37.1657 26.2521 37.3948 24.7092 37.6199 23.1663C37.6601 22.8901 37.7566 22.7678 38.0741 22.7796C38.8901 22.8033 39.71 22.7914 40.53 22.7835C40.7752 22.7796 40.8998 22.7914 40.8516 23.1071Z" fill="#02AB81"/>
<path d="M35.3794 14.2204C35.2669 13.2615 35.4558 12.3342 35.6045 11.4029C36.1069 8.21445 36.6254 5.02603 37.1319 1.83366C37.1801 1.5377 37.2485 1.37197 37.6343 1.38775C38.5749 1.42327 39.5195 1.39959 40.4962 1.39959C40.3957 1.90863 40.3193 2.37427 40.2108 2.83201C40.1264 3.19111 40.1545 3.3963 40.6168 3.32922C40.8981 3.28976 41.1916 3.33316 41.481 3.32133C41.7221 3.30949 41.7905 3.3963 41.7543 3.62517C41.6216 4.49726 41.493 5.36934 41.3724 6.24536C41.3483 6.42294 41.276 6.49791 41.0951 6.48213C41.0308 6.47818 40.9665 6.47818 40.9022 6.48213C40.4922 6.5137 39.9616 6.3085 39.6963 6.57289C39.4672 6.80571 39.5195 7.31475 39.4551 7.70146C39.2341 9.07075 39.013 10.44 38.796 11.8093C38.7638 12.0106 38.7477 12.2158 38.7558 12.421C38.7678 12.9142 39.005 13.1826 39.5034 13.2417C39.7727 13.2733 40.0541 13.2812 40.3193 13.2378C40.6409 13.1826 40.7494 13.2417 40.6891 13.5811C40.5565 14.2953 40.456 15.0135 40.3435 15.7317C40.3193 15.8777 40.3234 16.0198 40.1063 16.0869C39.226 16.3591 38.3297 16.5367 37.4052 16.4104C36.2315 16.2487 35.5241 15.4358 35.3794 14.2204Z" fill="#02AB81"/>
<path d="M47.7416 22.9368C47.2633 23.9548 46.9457 25.0282 46.7568 26.1331C46.7287 26.3106 46.6563 26.4054 46.4433 26.4054C45.7278 26.4132 45.354 26.8592 45.1209 27.459C44.6546 28.6467 44.4778 29.8976 44.2728 31.1406C44.0517 32.5099 43.8668 33.8832 43.6739 35.2564C43.6377 35.5208 43.5533 35.6392 43.2558 35.6313C42.4841 35.6115 41.7124 35.6155 40.9406 35.6313C40.6311 35.6392 40.5306 35.576 40.5789 35.2367C40.9728 32.652 41.3386 30.0594 41.7124 27.4708C41.9174 26.0542 42.1384 24.6336 42.3273 23.213C42.3675 22.8894 42.4479 22.7473 42.8137 22.7631C43.489 22.7947 44.1642 22.7829 44.8395 22.7671C45.1249 22.7592 45.1972 22.846 45.145 23.1183C45.0847 23.4419 45.0646 23.7733 45.0244 24.1008C45.0566 24.1719 45.0445 24.2626 45.1329 24.3021C45.4264 23.9075 45.6876 23.4892 46.0534 23.1498C46.4754 22.7631 46.9658 22.5777 47.5446 22.6132C47.7657 22.629 47.8581 22.6882 47.7416 22.9368Z" fill="#02AB81"/>
<path d="M48.2097 3.0569C46.0955 2.757 44.4435 3.59751 43.2899 5.28643C41.6258 7.72116 41.3364 10.4163 42.1081 13.2101C42.5181 14.6939 43.5672 15.6804 45.0745 16.1223C46.8712 16.6472 48.6639 16.4735 50.4405 15.9803C50.5772 15.9448 50.6817 15.9014 50.7058 15.7475C50.8746 14.7412 51.0434 13.735 51.2123 12.7208C51.164 12.7208 51.1439 12.7169 51.1319 12.7248C50.9832 12.784 50.8385 12.8432 50.6897 12.9063C49.4638 13.3996 48.2017 13.6245 46.8752 13.4153C45.6734 13.2259 44.9941 12.4959 44.9338 11.3594C44.9137 10.9964 44.9861 10.8386 45.4202 10.8425C47.3174 10.8701 49.2146 10.8464 51.1118 10.8622C51.4173 10.8662 51.5258 10.7596 51.578 10.4913C51.7871 9.41797 51.9237 8.34464 51.8875 7.24763C51.8112 5.00626 50.4044 3.36864 48.2097 3.0569ZM48.8167 8.06841C48.7684 8.28939 48.6358 8.24598 48.5031 8.24598C48.0047 8.24993 47.5063 8.24993 47.0079 8.24993V8.21836C46.5135 8.21836 46.0151 8.20652 45.5207 8.22231C45.2554 8.2302 45.2393 8.13944 45.3036 7.91846C45.4242 7.50807 45.577 7.11346 45.8221 6.76226C46.3326 6.03224 47.2048 5.75996 47.9726 6.08748C48.6318 6.36765 48.9975 7.24763 48.8167 8.06841Z" fill="#02AB81"/>
<path d="M56.5057 26.11C56.1641 23.837 54.496 22.4125 52.2451 22.5269C50.5408 22.6098 49.3108 23.5174 48.4748 24.9064C46.9876 27.3766 46.6942 30.0402 47.4579 32.7907C47.8759 34.2981 48.9049 35.3043 50.4604 35.7186C52.0561 36.1448 53.6398 35.9791 55.2034 35.4977C55.328 35.4582 55.4365 35.4306 55.4606 35.2688C55.6174 34.2625 55.7822 33.2602 55.955 32.1987C55.6817 32.3171 55.4807 32.4118 55.2757 32.4947C54.3432 32.8814 53.3745 33.0748 52.3616 32.9998C50.8865 32.8854 50.1348 32.1553 50.0987 30.8689C50.0866 30.4743 50.2072 30.3638 50.6091 30.3717C52.3455 30.3914 54.0779 30.3796 55.8144 30.3796C56.0234 30.3796 56.2042 30.4112 56.2605 30.1034C56.4977 28.7814 56.7067 27.4595 56.5057 26.11ZM52.8801 27.7673H52.0119C51.5617 27.7673 51.1156 27.7594 50.6654 27.7673C50.4242 27.7752 50.3599 27.6963 50.4202 27.4595C50.5649 26.9228 50.7578 26.4059 51.1477 25.9916C51.61 25.5062 52.1807 25.3563 52.8158 25.5654C53.4228 25.7666 53.6559 26.2639 53.7122 26.8479C53.8046 27.7673 53.7966 27.7673 52.8801 27.7673Z" fill="#02AB81"/>
<path d="M64.7176 32.4911C65.2441 32.3491 65.7184 32.0965 66.2611 31.8716C66.245 32.7989 66.044 33.6631 65.9234 34.5313C65.7908 35.4862 65.7667 35.4823 64.81 35.7032C63.8936 35.9124 62.9691 35.9913 62.0406 35.8137C60.1233 35.4467 58.8492 34.2708 58.2945 32.5069C57.1248 28.7818 57.5308 25.1948 59.8098 21.9512C61.3412 19.7651 63.8052 19.0232 66.3977 19.7572C66.9203 19.9032 67.6076 19.915 67.893 20.3175C68.1623 20.7042 67.8246 21.3119 67.7724 21.8249C67.7081 22.4484 67.5875 23.0679 67.487 23.7269C66.7836 23.4152 66.1244 23.064 65.3687 22.9416C64.1669 22.7522 63.1822 23.1153 62.3863 23.9913C61.506 24.9541 61.1403 26.1419 60.9594 27.3889C60.8147 28.3951 60.7986 29.4014 61.0599 30.3958C61.5221 32.1794 62.9048 32.9686 64.7176 32.4911Z" fill="#02AB81"/>
<path d="M61.9178 2.64642C63.5296 0.43267 66.2628 -0.423627 68.9318 0.290612C69.4583 0.428724 69.9969 0.539214 70.4953 0.756248C70.636 0.815439 70.7968 0.839115 70.7606 1.07588C70.5797 2.12948 70.419 3.18703 70.2421 4.30771C69.4744 3.94862 68.7589 3.63688 67.9711 3.5185C66.6768 3.32909 65.5876 3.69212 64.7153 4.64313C63.5698 5.89798 63.2201 7.433 63.1598 9.05878C63.1357 9.67437 63.1678 10.286 63.3407 10.8858C63.8712 12.7247 65.2781 13.5297 67.1753 13.0798C67.7862 12.9338 68.3489 12.6694 68.988 12.405C68.8273 13.4192 68.6383 14.3741 68.5419 15.3409C68.4856 15.8973 68.2484 16.0986 67.7139 16.2091C66.504 16.4616 65.2941 16.5958 64.0843 16.3156C62.1509 15.8658 60.8526 14.6425 60.306 12.8194C59.2247 9.20478 59.6548 5.74803 61.9178 2.64642Z" fill="#02AB81"/>
<path d="M76.8858 25.3874C77.4044 26.6264 77.4968 27.9208 77.4084 29.2427C77.3199 30.5883 77.1029 31.9023 76.4799 33.1217C75.676 34.6962 74.4139 35.6669 72.6292 35.951C72.5528 35.9668 72.4684 35.951 72.4322 36.0457C72.4403 35.8129 72.6453 35.8366 72.7819 35.809C74.9123 35.3709 76.1664 34.0095 76.7773 32.0483C77.3883 30.0872 77.5732 28.0865 76.9863 26.0779C76.4759 24.3259 75.4107 23.0276 73.4934 22.7672C71.1661 22.4476 69.3815 23.3315 68.1515 25.4387C67.4079 26.7212 67.0944 28.1378 67.0582 29.6136C67.0301 30.8843 67.1024 32.1352 67.6048 33.3308C68.1073 34.5225 68.9594 35.3394 70.2255 35.73C70.4104 35.7892 70.6597 35.7695 70.6958 36.0457C70.6637 35.9234 70.5471 35.9392 70.4627 35.9194C68.8549 35.5564 67.834 34.5304 67.3677 33.0349C66.5598 30.4265 66.7326 27.8497 68.0188 25.415C69.1885 23.2052 71.4796 22.1674 73.827 22.6922C75.3464 23.0316 76.307 24.0102 76.8858 25.3874Z" fill="#02AB81"/>
<path d="M77.1253 3.1669C75.3728 2.82754 73.6766 3.15506 72.0045 3.65622C71.892 3.69173 71.7915 3.73514 71.7714 3.86536C71.6307 4.76506 71.494 5.66477 71.3453 6.62366C71.7151 6.52501 71.9925 6.44214 72.2738 6.37111C73.4314 6.0791 74.6051 5.94099 75.8029 6.11462C76.6792 6.24484 76.9726 6.65128 76.8882 7.51942C76.852 7.91797 76.7354 8.03635 76.2973 7.98111C75.1558 7.8351 74.0183 7.94165 72.921 8.29679C70.2641 9.15309 68.9176 12.0969 70.0269 14.6302C70.4048 15.4865 71.0278 16.1337 71.9764 16.3113C73.4073 16.5757 74.7177 16.2876 75.8029 15.2537C75.8833 15.1787 75.9195 15.0288 76.0803 15.0446C76.0803 15.2853 76.1004 15.5181 76.0762 15.7509C76.0441 16.0627 76.1205 16.2008 76.4822 16.181C77.1052 16.1495 77.7363 16.1495 78.3593 16.181C78.713 16.2008 78.8135 16.0903 78.8617 15.7549C79.115 13.8647 79.4004 11.9785 79.6697 10.0883C79.8345 8.93606 80.0796 7.78775 80.0515 6.61577C80.0033 4.72165 79.0064 3.52994 77.1253 3.1669ZM76.3094 11.205C76.1888 11.9193 75.9396 12.5704 75.401 13.0913C74.9026 13.5648 74.3117 13.7739 73.6404 13.5766C73.1822 13.4425 72.9611 13.0636 72.9089 12.6098C72.8285 11.8838 73.0134 11.2642 73.6766 10.846C74.2675 10.475 74.9468 10.4474 75.5135 10.3961C76.446 10.3922 76.4501 10.4 76.3094 11.205Z" fill="#02AB81"/>
<path d="M80.2616 15.8345C80.9087 11.774 81.5438 7.71347 82.1708 3.64901C82.207 3.42409 82.2713 3.31754 82.5246 3.32149C83.3124 3.33333 84.1002 3.33333 84.884 3.31754C85.1613 3.3136 85.2136 3.42014 85.1694 3.65691C85.093 4.10676 85.0327 4.55661 84.9483 5.12879C85.3101 4.67499 85.5834 4.30801 85.8848 3.96865C86.3792 3.4162 86.9982 3.13603 87.7619 3.18338C88.0111 3.19916 88.0674 3.28203 87.9509 3.50301C87.4203 4.5211 87.0947 5.60232 86.8777 6.71906C86.8415 6.89663 86.7731 6.98344 86.5641 6.9795C85.8406 6.96766 85.4186 7.38594 85.1573 8.00153C84.6267 9.24849 84.4378 10.5783 84.2087 11.8963C83.9876 13.1827 83.7947 14.477 83.6058 15.7674C83.5616 16.0712 83.4651 16.1936 83.1315 16.1817C82.2794 16.1581 81.4272 16.166 80.5751 16.1778C80.3018 16.1857 80.2174 16.1186 80.2616 15.8345Z" fill="#02AB81"/>
<path d="M89.6397 19.6696C88.9001 19.6894 88.1565 19.7012 87.421 19.6657C87.0351 19.6499 86.9427 19.7959 86.8944 20.1392C86.7216 21.4454 86.5126 22.7476 86.3076 24.1248C86.1588 23.9472 86.0624 23.8249 85.9659 23.7104C85.4554 23.1185 84.8686 22.645 84.0687 22.4911C82.6981 22.2228 81.6048 22.7357 80.7084 23.6986C79.0524 25.4783 78.4816 27.6604 78.4012 30.0044C78.353 31.3461 78.5218 32.6483 79.1931 33.8518C80.3266 35.8959 82.7905 36.2747 84.5189 34.6766C84.6234 34.5818 84.6917 34.428 84.8967 34.3964C84.8646 34.6489 84.8525 34.8699 84.8043 35.083C84.7319 35.3947 84.8324 35.4973 85.162 35.4855C85.8694 35.4618 86.5769 35.4579 87.2803 35.4855C87.6179 35.5013 87.7144 35.375 87.7586 35.0712C88.4861 30.0636 89.2257 25.06 89.9693 20.0564C90.0095 19.7683 89.9573 19.6618 89.6397 19.6696ZM84.9128 31.1882C84.7601 31.4723 84.5792 31.7288 84.338 31.9459C83.3613 32.8337 82.0751 32.5141 81.7736 31.2474C81.3837 29.5782 81.5646 27.9564 82.5051 26.4687C82.6498 26.2399 82.8428 26.0504 83.0759 25.9005C83.9562 25.3362 84.9409 25.6322 85.3268 26.5911C85.5439 27.1277 85.5841 27.692 85.568 28.2642C85.5439 29.2823 85.4032 30.2727 84.9128 31.1882Z" fill="#02AB81"/>
<path d="M99.1327 25.9003C98.6625 23.4853 96.6648 22.1239 94.2692 22.6093C92.6493 22.9329 91.5922 23.9904 90.8606 25.3755C89.7472 27.4945 89.5021 29.7596 89.9362 32.0838C90.2617 33.8477 91.2144 35.1696 93.0593 35.6944C94.6872 36.1561 96.299 35.9746 97.8947 35.4971C98.0595 35.4498 98.1359 35.359 98.16 35.2051C98.3087 34.2423 98.4575 33.2794 98.6182 32.2101C98.3409 32.3324 98.152 32.4153 97.9631 32.4902C96.8577 32.9361 95.7202 33.1453 94.5264 32.9243C93.3889 32.7112 92.79 31.9812 92.7619 30.8368C92.7538 30.4619 92.8704 30.3633 93.2482 30.3712C94.9846 30.3909 96.721 30.3791 98.4534 30.3791C98.6584 30.3791 98.8755 30.4304 98.9318 30.1265C99.189 28.7296 99.4061 27.3209 99.1327 25.9003ZM95.8649 27.7747C95.483 27.7352 95.0932 27.7668 94.7113 27.7668C94.2611 27.7668 93.8109 27.7549 93.3648 27.7707C93.0874 27.7786 93.0231 27.6681 93.0955 27.4314C93.2 27.0841 93.3085 26.7408 93.4934 26.4212C93.9436 25.6438 94.7033 25.3084 95.467 25.553C96.086 25.7503 96.4517 26.4606 96.4075 27.2972C96.3874 27.676 96.2588 27.8141 95.8649 27.7747Z" fill="#02AB81"/>
<path d="M99.0325 0.353678C98.1522 0.365516 97.2679 0.36157 96.3836 0.353678C96.1585 0.349731 96.0822 0.424707 96.054 0.641741C95.9777 1.2376 95.8691 1.82556 95.7767 2.41747C95.6521 3.19485 95.5235 3.97617 95.3868 4.83247C94.7839 4.09061 94.181 3.50659 93.3208 3.27377C91.709 2.84365 90.3785 3.37242 89.2691 4.50889C87.8985 5.92158 87.2594 7.66969 87.0062 9.56775C86.7891 11.1541 86.8534 12.7167 87.5729 14.1925C88.3929 15.8815 89.9726 16.6431 91.8175 16.2524C92.5933 16.0867 93.2042 15.6368 93.8594 15.1554C93.8313 15.3724 93.8192 15.5934 93.771 15.8065C93.7026 16.1024 93.7951 16.1893 94.1046 16.1814C94.8763 16.1577 95.6481 16.1498 96.4198 16.1853C96.8097 16.2011 96.8901 16.0472 96.9423 15.7118C97.3684 12.9377 97.8106 10.1676 98.2487 7.39741C98.6064 5.15999 98.9521 2.91468 99.3179 0.677255C99.358 0.416815 99.2978 0.349731 99.0325 0.353678ZM93.7669 12.0775C93.3811 12.7167 92.8063 13.1271 92.0024 13.1271C91.3553 13.1271 90.9051 12.8351 90.6398 12.2629C90.3825 11.7026 90.3423 11.1067 90.3544 10.7161C90.3584 9.5204 90.5232 8.56545 90.9774 7.67364C91.1543 7.33427 91.3794 7.03043 91.6728 6.77788C92.6857 5.91369 94.0724 6.26489 94.4101 7.53158C94.8361 9.11395 94.6271 10.6608 93.7669 12.0775Z" fill="#02AB81"/>
<path d="M101.875 33.0157C101.879 33.2011 101.794 33.2879 101.618 33.2564C101.179 33.1814 101.167 33.4339 101.175 33.7496C101.192 34.2074 101.171 34.6651 101.184 35.1189C101.192 35.328 101.115 35.3912 100.91 35.3912C100.693 35.3912 100.629 35.3044 100.637 35.1071C100.645 34.8585 100.641 34.6059 100.641 34.3534C100.641 34.1955 100.633 34.0377 100.641 33.8798C100.657 33.5247 100.697 33.1617 100.13 33.2564C99.9535 33.2879 99.9214 33.1617 99.9214 33.0196C99.9214 32.8775 99.9455 32.771 100.122 32.771H101.662C101.835 32.771 101.867 32.8696 101.875 33.0157Z" fill="#02AB81"/>
<path d="M100.722 12.2749C99.6366 12.271 98.7684 13.1352 98.7523 14.244C98.7322 15.4239 99.5763 16.3354 100.694 16.3473C101.779 16.3591 102.671 15.4476 102.679 14.3229C102.683 13.1944 101.815 12.2789 100.722 12.2749ZM100.722 15.8224C99.8898 15.8303 99.2346 15.1555 99.2346 14.2992C99.2346 13.4706 99.8858 12.8037 100.698 12.7997C101.518 12.7919 102.197 13.4864 102.189 14.3229C102.181 15.1477 101.526 15.8185 100.722 15.8224ZM100.814 13.4114C100.637 13.4074 100.461 13.4232 100.288 13.4074C100.075 13.3877 100.01 13.4706 100.018 13.6758C100.03 14.0664 100.014 14.461 100.026 14.8517C100.03 14.9938 99.9139 15.2147 100.231 15.2147C100.533 15.2147 100.436 15.0095 100.461 14.8556C100.481 14.7294 100.388 14.5321 100.609 14.5202C100.794 14.5123 100.806 14.7096 100.838 14.832C100.919 15.1437 101.076 15.3055 101.413 15.1832C101.457 14.8556 101.043 14.6544 101.305 14.2953C101.634 13.8455 101.385 13.4272 100.814 13.4114ZM100.666 14.1809C100.497 14.1967 100.44 14.1217 100.445 13.9678C100.453 13.8257 100.477 13.7192 100.662 13.7507C100.798 13.7784 100.955 13.7705 100.975 13.9638C100.943 14.1375 100.818 14.169 100.666 14.1809Z" fill="#02AB81"/>
<path d="M104.459 35.0828C104.459 35.2446 104.475 35.3867 104.226 35.3906C103.989 35.3906 103.973 35.2722 103.973 35.0947C103.981 34.5975 103.977 34.1003 103.916 33.5991C103.816 34.0726 103.707 34.5422 103.611 35.0158C103.575 35.1973 103.595 35.3788 103.301 35.3946C102.964 35.4104 102.992 35.1736 102.952 34.996C102.859 34.5896 102.787 34.1792 102.626 33.7767C102.626 34.2226 102.622 34.6685 102.626 35.1144C102.63 35.2683 102.626 35.3827 102.409 35.3867C102.188 35.3906 102.136 35.3078 102.14 35.1105C102.148 34.4357 102.144 33.757 102.144 33.0782C102.144 32.9125 102.14 32.7389 102.381 32.7744C102.574 32.8059 102.851 32.6402 102.924 32.9914C103.028 33.4926 103.141 33.9898 103.249 34.4909C103.285 34.487 103.318 34.487 103.354 34.483C103.454 34.0095 103.579 33.536 103.651 33.0545C103.715 32.6481 104.013 32.7902 104.242 32.7783C104.539 32.7586 104.455 32.9914 104.455 33.1453C104.463 33.7885 104.459 34.4357 104.459 35.0828Z" fill="#02AB81"/>
<path d="M76.8858 25.3874C76.307 24.0102 75.3464 23.0316 73.827 22.6922C71.4796 22.1674 69.1885 23.2052 68.0188 25.415C66.7326 27.8497 66.5598 30.4265 67.3677 33.0349C67.834 34.5304 68.8549 35.5564 70.4627 35.9194C70.5471 35.9392 70.6637 35.9234 70.6958 36.0457H71.0817C71.4354 35.9668 71.7891 35.9668 72.1428 36.0457H72.4322C72.4684 35.951 72.5528 35.9668 72.6292 35.951C74.4139 35.6669 75.676 34.6962 76.4799 33.1217C77.1029 31.9023 77.3199 30.5883 77.4084 29.2427C77.4968 27.9208 77.4044 26.6264 76.8858 25.3874ZM70.5029 31.9418C70.2256 31.3578 70.1371 30.7264 70.1452 30.099C70.1532 29.0888 70.322 28.0944 70.7802 27.171C70.9892 26.7567 71.2344 26.37 71.6042 26.0779C72.4363 25.4229 73.4291 25.6478 73.8712 26.5988C74.1526 27.1986 74.1928 27.8418 74.1807 28.4929C74.1566 29.5386 74.0481 30.5646 73.6059 31.5354C73.4532 31.8708 73.2603 32.1746 72.9869 32.4272C72.1187 33.2243 70.9973 33.0033 70.5029 31.9418Z" fill="#02AB81"/>
<path d="M10.6642 20.5695C10.403 21.4416 10.2261 22.3413 10.009 23.2568C8.91976 22.582 7.77421 22.3926 6.55631 22.5899C5.96545 22.6846 5.47507 22.9253 5.30223 23.537C5.11733 24.1841 5.26606 24.7563 5.80467 25.1982C6.17446 25.506 6.60052 25.731 7.02659 25.9519C9.35789 27.1792 9.93669 28.7655 9.67944 31.366C9.51867 32.9444 8.88761 34.2821 7.45667 35.1542C6.56033 35.6987 5.5635 35.9039 4.52245 35.9671C4.51441 35.9671 4.51039 35.971 4.50235 35.971V35.9671C4.22099 35.9671 3.93159 35.9671 3.64621 35.9631C2.53683 35.9 1.50784 35.533 0.466797 35.1936V34.8148C0.796394 33.9427 0.880803 33.0154 1.13001 32.1236C1.15011 32.0526 1.16217 31.9815 1.18628 31.871C2.25145 32.5892 3.397 32.8576 4.635 32.7352C6.01368 32.5971 6.77738 31.6106 6.4518 30.3952C6.32318 29.9256 6.00564 29.5902 5.61575 29.3298C5.25802 29.093 4.88822 28.8641 4.49833 28.6787C2.48056 27.6961 1.81332 26.0427 2.03841 23.9434C2.08665 23.5054 2.15498 23.0674 2.2836 22.6412C2.79408 20.9049 3.95169 19.8434 5.74839 19.4686C7.2557 19.1568 8.74291 19.2791 10.21 19.7487C10.6441 19.8868 10.8089 20.0841 10.6642 20.5695Z" fill="#02AB81"/>
<path d="M71.0796 36.0456C71.4333 35.8917 71.787 35.8917 72.1407 36.0456C71.787 36.0456 71.4333 36.0456 71.0796 36.0456Z" fill="#02AB81"/>
<path d="M4.52506 35.9673C4.5164 35.9673 4.51207 35.9716 4.50342 35.9716V35.9673H4.52506Z" fill="#02AB81"/>
<path d="M99.0325 0.353678C98.1522 0.365516 97.2679 0.36157 96.3836 0.353678C96.1585 0.349731 96.0822 0.424707 96.054 0.641741C95.9777 1.2376 95.8691 1.82556 95.7767 2.41747C95.6521 3.19485 95.5235 3.97617 95.3868 4.83247C94.7839 4.09061 94.181 3.50659 93.3208 3.27377C91.709 2.84365 90.3785 3.37242 89.2691 4.50889C87.8985 5.92158 87.2594 7.66969 87.0062 9.56775C86.7891 11.1541 86.8534 12.7167 87.5729 14.1925C88.3929 15.8815 89.9726 16.6431 91.8175 16.2524C92.5933 16.0867 93.2042 15.6368 93.8594 15.1554C93.8313 15.3724 93.8192 15.5934 93.771 15.8065C93.7026 16.1024 93.7951 16.1893 94.1046 16.1814C94.8763 16.1577 95.6481 16.1498 96.4198 16.1853C96.8097 16.2011 96.8901 16.0472 96.9423 15.7118C97.3684 12.9377 97.8106 10.1676 98.2487 7.39741C98.6064 5.15999 98.9521 2.91468 99.3179 0.677255C99.358 0.416815 99.2978 0.349731 99.0325 0.353678ZM93.7669 12.0775C93.3811 12.7167 92.8063 13.1271 92.0024 13.1271C91.3553 13.1271 90.9051 12.8351 90.6398 12.2629C90.3825 11.7026 90.3423 11.1067 90.3544 10.7161C90.3584 9.5204 90.5232 8.56545 90.9774 7.67364C91.1543 7.33427 91.3794 7.03043 91.6728 6.77788C92.6857 5.91369 94.0724 6.26489 94.4101 7.53158C94.8361 9.11395 94.6271 10.6608 93.7669 12.0775Z" fill="#02AB81"/>
<path d="M89.6397 19.6696C88.9001 19.6894 88.1565 19.7012 87.421 19.6657C87.0351 19.6499 86.9427 19.7959 86.8944 20.1392C86.7216 21.4454 86.5126 22.7476 86.3076 24.1248C86.1588 23.9472 86.0624 23.8249 85.9659 23.7104C85.4554 23.1185 84.8686 22.645 84.0687 22.4911C82.6981 22.2228 81.6048 22.7357 80.7084 23.6986C79.0524 25.4783 78.4816 27.6604 78.4012 30.0044C78.353 31.3461 78.5218 32.6483 79.1931 33.8518C80.3266 35.8959 82.7905 36.2747 84.5189 34.6766C84.6234 34.5818 84.6917 34.428 84.8967 34.3964C84.8646 34.6489 84.8525 34.8699 84.8043 35.083C84.7319 35.3947 84.8324 35.4973 85.162 35.4855C85.8694 35.4618 86.5769 35.4579 87.2803 35.4855C87.6179 35.5013 87.7144 35.375 87.7586 35.0712C88.4861 30.0636 89.2257 25.06 89.9693 20.0564C90.0095 19.7683 89.9573 19.6618 89.6397 19.6696ZM84.9128 31.1882C84.7601 31.4723 84.5792 31.7288 84.338 31.9459C83.3613 32.8337 82.0751 32.5141 81.7736 31.2474C81.3837 29.5782 81.5646 27.9564 82.5051 26.4687C82.6498 26.2399 82.8428 26.0504 83.0759 25.9005C83.9562 25.3362 84.9409 25.6322 85.3268 26.5911C85.5439 27.1277 85.5841 27.692 85.568 28.2642C85.5439 29.2823 85.4032 30.2727 84.9128 31.1882Z" fill="#02AB81"/>
<path d="M23.4349 3.17507C21.6663 2.82781 19.958 3.15139 18.2699 3.65649C18.1332 3.69595 18.0448 3.75514 18.0207 3.90509C17.9001 4.71798 17.7714 5.52693 17.6388 6.33587C17.5946 6.61604 17.7152 6.60815 17.9322 6.54107C18.4507 6.37928 18.9773 6.22933 19.5199 6.16619C20.4806 6.04781 21.4412 5.92153 22.3898 6.19776C23.0892 6.40295 23.4188 7.27898 23.0691 7.89851C22.9767 8.0682 22.8521 8.00506 22.7435 7.99322C22.0241 7.89457 21.3046 7.91824 20.5851 7.99717C17.4177 8.33653 15.6773 10.4358 15.9989 13.5414C16.1958 15.4631 17.5785 16.5562 19.532 16.3747C20.6454 16.2721 21.5618 15.8341 22.3496 14.9344C22.3496 15.2935 22.3818 15.5618 22.3416 15.8222C22.2934 16.134 22.4139 16.1892 22.6993 16.1813C23.3746 16.1616 24.0499 16.1616 24.7211 16.1813C24.9904 16.1853 25.0628 16.1024 25.099 15.8459C25.3321 14.1136 25.5974 12.3813 25.8426 10.6489C26.0275 9.30726 26.3249 7.98138 26.3088 6.6121C26.2807 4.77323 25.2638 3.53811 23.4349 3.17507ZM21.8995 12.8311C21.6422 13.1665 21.3166 13.4112 20.9107 13.5532C19.9138 13.8926 19.1702 13.3757 19.1662 12.3418C19.1662 11.4973 19.5481 10.937 20.356 10.6489C21.0111 10.4161 21.6945 10.349 22.3898 10.4358C22.5787 10.4595 22.6712 10.5029 22.6471 10.72C22.5586 11.4815 22.3818 12.2076 21.8995 12.8311Z" fill="#02AB81"/>
<path d="M77.1253 3.1669C75.3728 2.82754 73.6766 3.15506 72.0045 3.65622C71.892 3.69173 71.7915 3.73514 71.7714 3.86536C71.6307 4.76506 71.494 5.66477 71.3453 6.62366C71.7151 6.52501 71.9925 6.44214 72.2738 6.37111C73.4314 6.0791 74.6051 5.94099 75.8029 6.11462C76.6792 6.24484 76.9726 6.65128 76.8882 7.51942C76.852 7.91797 76.7354 8.03635 76.2973 7.98111C75.1558 7.8351 74.0183 7.94165 72.921 8.29679C70.2641 9.15309 68.9176 12.0969 70.0269 14.6302C70.4048 15.4865 71.0278 16.1337 71.9764 16.3113C73.4073 16.5757 74.7177 16.2876 75.8029 15.2537C75.8833 15.1787 75.9195 15.0288 76.0803 15.0446C76.0803 15.2853 76.1004 15.5181 76.0762 15.7509C76.0441 16.0627 76.1205 16.2008 76.4822 16.181C77.1052 16.1495 77.7363 16.1495 78.3593 16.181C78.713 16.2008 78.8135 16.0903 78.8617 15.7549C79.115 13.8647 79.4004 11.9785 79.6697 10.0883C79.8345 8.93606 80.0796 7.78775 80.0515 6.61577C80.0033 4.72165 79.0064 3.52994 77.1253 3.1669ZM76.3094 11.205C76.1888 11.9193 75.9396 12.5704 75.401 13.0913C74.9026 13.5648 74.3117 13.7739 73.6404 13.5766C73.1822 13.4425 72.9611 13.0636 72.9089 12.6098C72.8285 11.8838 73.0134 11.2642 73.6766 10.846C74.2675 10.475 74.9468 10.4474 75.5135 10.3961C76.446 10.3922 76.4501 10.4 76.3094 11.205Z" fill="#02AB81"/>
<path d="M48.2097 3.0569C46.0955 2.757 44.4435 3.59751 43.2899 5.28643C41.6258 7.72116 41.3364 10.4163 42.1081 13.2101C42.5181 14.6939 43.5672 15.6804 45.0745 16.1223C46.8712 16.6472 48.6639 16.4735 50.4405 15.9803C50.5772 15.9448 50.6817 15.9014 50.7058 15.7475C50.8746 14.7412 51.0434 13.735 51.2123 12.7208C51.164 12.7208 51.1439 12.7169 51.1319 12.7248C50.9832 12.784 50.8385 12.8432 50.6897 12.9063C49.4638 13.3996 48.2017 13.6245 46.8752 13.4153C45.6734 13.2259 44.9941 12.4959 44.9338 11.3594C44.9137 10.9964 44.9861 10.8386 45.4202 10.8425C47.3174 10.8701 49.2146 10.8464 51.1118 10.8622C51.4173 10.8662 51.5258 10.7596 51.578 10.4913C51.7871 9.41797 51.9237 8.34464 51.8875 7.24763C51.8112 5.00626 50.4044 3.36864 48.2097 3.0569ZM48.8167 8.06841C48.7684 8.28939 48.6358 8.24598 48.5031 8.24598C48.0047 8.24993 47.5063 8.24993 47.0079 8.24993V8.21836C46.5135 8.21836 46.0151 8.20652 45.5207 8.22231C45.2554 8.2302 45.2393 8.13944 45.3036 7.91846C45.4242 7.50807 45.577 7.11346 45.8221 6.76226C46.3326 6.03224 47.2048 5.75996 47.9726 6.08748C48.6318 6.36765 48.9975 7.24763 48.8167 8.06841Z" fill="#02AB81"/>
<path d="M40.8516 23.1071C40.317 26.5639 39.7985 30.0246 39.284 33.4853C39.1996 34.0614 39.1433 34.6415 39.095 35.2255C39.079 35.4662 38.9785 35.5412 38.7373 35.5372C37.9817 35.5254 37.226 35.5254 36.4703 35.5372C36.205 35.5412 36.0925 35.4859 36.1407 35.19C36.2211 34.677 36.2613 34.1601 36.3296 33.5405C35.8875 34.0969 35.5458 34.5862 35.0876 34.9887C34.4566 35.5372 33.721 35.8174 32.893 35.8371C31.9484 35.8608 31.2249 35.4465 30.7265 34.6612C29.9547 33.4537 29.8382 32.1002 29.9507 30.7388C30.1638 28.162 30.6461 25.6168 30.9636 23.0519C30.9878 22.8625 31.0601 22.7835 31.2691 22.7835C32.1976 22.7914 33.1301 22.7914 34.0627 22.7835C34.3078 22.7835 34.2998 22.8861 34.2717 23.0755C33.9461 25.2419 33.6286 27.4083 33.311 29.5787C33.2427 30.0443 33.1904 30.5178 33.2507 30.9914C33.3793 32.0055 34.2234 32.4396 35.1479 31.9582C35.7026 31.6701 36.0121 31.1768 36.2653 30.6402C36.6874 29.7365 36.7678 28.7539 36.9205 27.795C37.1657 26.2521 37.3948 24.7092 37.6199 23.1663C37.6601 22.8901 37.7566 22.7678 38.0741 22.7796C38.8901 22.8033 39.71 22.7914 40.53 22.7835C40.7752 22.7796 40.8998 22.7914 40.8516 23.1071Z" fill="#02AB81"/>
<path d="M20.1394 26.1571C19.8179 23.8605 18.1377 22.4044 15.8708 22.5267C14.0861 22.6174 12.8401 23.6079 12 25.068C10.6414 27.4435 10.3681 29.9966 11.0353 32.6207C11.4332 34.1794 12.4381 35.2607 14.0539 35.7066C15.6698 36.1485 17.2655 35.9788 18.8452 35.4974C19.0059 35.4461 19.0743 35.3711 19.1024 35.2054C19.2511 34.2268 19.4159 33.2482 19.5888 32.1867C19.3717 32.2893 19.2431 32.3485 19.1145 32.4076C18.1337 32.8457 17.1088 33.0745 16.0275 32.9996C14.5524 32.897 13.8289 32.2261 13.7163 30.9002C13.6882 30.5372 13.7565 30.3636 14.1946 30.3675C15.9471 30.3912 17.6996 30.3794 19.4521 30.3794C19.6611 30.3794 19.842 30.4149 19.8983 30.1031C20.1274 28.797 20.3243 27.4908 20.1394 26.1571ZM16.5259 27.7513H15.6617C15.2116 27.7513 14.7654 27.7434 14.3152 27.7552C14.0419 27.7631 13.9896 27.6724 14.058 27.4238C14.2067 26.9029 14.3916 26.4096 14.7694 26.0032C15.2276 25.506 15.7984 25.3757 16.4295 25.5652C17.0645 25.7585 17.2856 26.2833 17.3419 26.8792C17.4303 27.7513 17.4183 27.7513 16.5259 27.7513Z" fill="#02AB81"/>
<path d="M56.5057 26.11C56.1641 23.837 54.496 22.4125 52.2451 22.5269C50.5408 22.6098 49.3108 23.5174 48.4748 24.9064C46.9876 27.3766 46.6942 30.0402 47.4579 32.7907C47.8759 34.2981 48.9049 35.3043 50.4604 35.7186C52.0561 36.1448 53.6398 35.9791 55.2034 35.4977C55.328 35.4582 55.4365 35.4306 55.4606 35.2688C55.6174 34.2625 55.7822 33.2602 55.955 32.1987C55.6817 32.3171 55.4807 32.4118 55.2757 32.4947C54.3432 32.8814 53.3745 33.0748 52.3616 32.9998C50.8865 32.8854 50.1348 32.1553 50.0987 30.8689C50.0866 30.4743 50.2072 30.3638 50.6091 30.3717C52.3455 30.3914 54.0779 30.3796 55.8144 30.3796C56.0234 30.3796 56.2042 30.4112 56.2605 30.1034C56.4977 28.7814 56.7067 27.4595 56.5057 26.11ZM52.8801 27.7673H52.0119C51.5617 27.7673 51.1156 27.7594 50.6654 27.7673C50.4242 27.7752 50.3599 27.6963 50.4202 27.4595C50.5649 26.9228 50.7578 26.4059 51.1477 25.9916C51.61 25.5062 52.1807 25.3563 52.8158 25.5654C53.4228 25.7666 53.6559 26.2639 53.7122 26.8479C53.8046 27.7673 53.7966 27.7673 52.8801 27.7673Z" fill="#02AB81"/>
<path d="M99.1327 25.9003C98.6625 23.4853 96.6648 22.1239 94.2692 22.6093C92.6493 22.9329 91.5922 23.9904 90.8606 25.3755C89.7472 27.4945 89.5021 29.7596 89.9362 32.0838C90.2617 33.8477 91.2144 35.1696 93.0593 35.6944C94.6872 36.1561 96.299 35.9746 97.8947 35.4971C98.0595 35.4498 98.1359 35.359 98.16 35.2051C98.3087 34.2423 98.4575 33.2794 98.6182 32.2101C98.3409 32.3324 98.152 32.4153 97.9631 32.4902C96.8577 32.9361 95.7202 33.1453 94.5264 32.9243C93.3889 32.7112 92.79 31.9812 92.7619 30.8368C92.7538 30.4619 92.8704 30.3633 93.2482 30.3712C94.9846 30.3909 96.721 30.3791 98.4534 30.3791C98.6584 30.3791 98.8755 30.4304 98.9318 30.1265C99.189 28.7296 99.4061 27.3209 99.1327 25.9003ZM95.8649 27.7747C95.483 27.7352 95.0932 27.7668 94.7113 27.7668C94.2611 27.7668 93.8109 27.7549 93.3648 27.7707C93.0874 27.7786 93.0231 27.6681 93.0955 27.4314C93.2 27.0841 93.3085 26.7408 93.4934 26.4212C93.9436 25.6438 94.7033 25.3084 95.467 25.553C96.086 25.7503 96.4517 26.4606 96.4075 27.2972C96.3874 27.676 96.2588 27.8141 95.8649 27.7747Z" fill="#02AB81"/>
<path d="M63.1598 9.05878C63.1357 9.67437 63.1678 10.286 63.3407 10.8858C63.8712 12.7247 65.2781 13.5297 67.1753 13.0798C67.7862 12.9338 68.3489 12.6694 68.988 12.405C68.8273 13.4192 68.6383 14.3741 68.5419 15.3409C68.4856 15.8973 68.2484 16.0986 67.7139 16.2091C66.504 16.4616 65.2941 16.5958 64.0843 16.3156C62.1509 15.8658 60.8526 14.6425 60.306 12.8194C59.2247 9.20478 59.6548 5.74803 61.9178 2.64642C63.5296 0.43267 66.2628 -0.423627 68.9318 0.290612C69.4583 0.428724 69.9969 0.539214 70.4953 0.756248C70.636 0.815439 70.7968 0.839115 70.7606 1.07588C70.5797 2.12948 70.419 3.18703 70.2421 4.30771C69.4744 3.94862 68.7589 3.63688 67.9711 3.5185C66.6768 3.32909 65.5876 3.69212 64.7153 4.64313C63.5698 5.89798 63.2201 7.433 63.1598 9.05878Z" fill="#02AB81"/>
<path d="M67.7724 21.8249C67.7081 22.4484 67.5875 23.0679 67.487 23.7269C66.7836 23.4152 66.1244 23.064 65.3687 22.9416C64.1669 22.7522 63.1822 23.1153 62.3863 23.9913C61.506 24.9541 61.1403 26.1419 60.9594 27.3889C60.8147 28.3951 60.7986 29.4014 61.0599 30.3958C61.5221 32.1794 62.9048 32.9686 64.7176 32.4911C65.2441 32.3491 65.7184 32.0965 66.2611 31.8716C66.245 32.7989 66.044 33.6631 65.9234 34.5313C65.7908 35.4862 65.7667 35.4823 64.81 35.7032C63.8936 35.9124 62.9691 35.9913 62.0406 35.8137C60.1233 35.4467 58.8492 34.2708 58.2945 32.5069C57.1248 28.7818 57.5308 25.1948 59.8098 21.9512C61.3412 19.7651 63.8052 19.0232 66.3977 19.7572C66.9203 19.9032 67.6076 19.915 67.893 20.3175C68.1623 20.7042 67.8246 21.3119 67.7724 21.8249Z" fill="#02AB81"/>
<path d="M35.1143 3.62922C34.9696 4.41843 34.845 5.21554 34.7365 6.0087C34.7044 6.24941 34.6199 6.27308 34.3989 6.24546C33.6673 6.15075 32.9318 6.08367 32.1882 6.1034C31.8626 6.11129 31.5491 6.15075 31.2597 6.30465C30.6407 6.63217 30.5563 7.47663 31.119 7.87913C31.4405 8.10801 31.8103 8.28163 32.1681 8.45526C34.0813 9.40232 34.7285 10.5151 34.5637 12.5907C34.3788 14.911 33.0725 16.154 30.6125 16.3435C30.2106 16.375 29.8086 16.3829 29.5152 16.3987C28.4179 16.3356 27.4211 16.3 26.4443 16.083C26.167 16.0238 26.1147 15.9331 26.1589 15.6766C26.2916 14.9347 26.4122 14.185 26.5046 13.4352C26.5448 13.1156 26.6131 13.0051 26.9669 13.1314C27.8833 13.4549 28.8399 13.5615 29.8127 13.522C30.1342 13.5102 30.4517 13.4747 30.7492 13.3405C31.5089 12.9972 31.6254 12.0422 30.9341 11.5845C30.4196 11.2451 29.8408 11.0005 29.3062 10.6808C27.0071 9.32339 26.6493 5.97318 28.6189 4.16588C29.5675 3.29775 30.7653 3.08466 32.0033 3.0452C32.9519 3.01757 33.8924 3.11623 34.833 3.2425C35.1143 3.27802 35.1586 3.37272 35.1143 3.62922Z" fill="#02AB81"/>
<path d="M29.7241 23.6556C29.507 24.5869 29.3101 25.5261 29.097 26.4929C28.6067 26.2561 28.1726 25.9957 27.6621 25.8891C26.5849 25.6603 25.6805 25.9602 25.0856 26.8401C24.1893 28.1542 24.0003 29.6339 24.4787 31.1335C24.9248 32.5264 26.1467 32.9921 27.6741 32.4593C27.9153 32.3765 28.1444 32.266 28.47 32.1279C28.3213 33.2328 28.1806 34.2627 28.0399 35.2887C28.0279 35.3913 27.9475 35.4386 27.8631 35.4899C26.3598 36.3699 23.6667 35.9674 22.5051 34.6889C21.6972 33.801 21.2631 32.7435 21.0822 31.5873C20.7245 29.334 21.03 27.1795 22.268 25.2222C23.3613 23.5017 24.9208 22.5152 27.0592 22.5823C27.9435 22.6139 28.7473 22.9177 29.5352 23.2847C29.6959 23.3636 29.7723 23.4544 29.7241 23.6556Z" fill="#02AB81"/>
<path d="M41.7543 3.62517C41.6216 4.49726 41.493 5.36934 41.3724 6.24536C41.3483 6.42294 41.276 6.49791 41.0951 6.48213C41.0308 6.47818 40.9665 6.47818 40.9022 6.48213C40.4922 6.5137 39.9616 6.3085 39.6963 6.57289C39.4672 6.80571 39.5195 7.31475 39.4551 7.70146C39.2341 9.07075 39.013 10.44 38.796 11.8093C38.7638 12.0106 38.7477 12.2158 38.7558 12.421C38.7678 12.9142 39.005 13.1826 39.5034 13.2417C39.7727 13.2733 40.0541 13.2812 40.3193 13.2378C40.6409 13.1826 40.7494 13.2417 40.6891 13.5811C40.5565 14.2953 40.456 15.0135 40.3435 15.7317C40.3193 15.8777 40.3234 16.0198 40.1063 16.0869C39.226 16.3591 38.3297 16.5367 37.4052 16.4104C36.2315 16.2487 35.5241 15.4358 35.3794 14.2204C35.2669 13.2615 35.4558 12.3342 35.6045 11.4029C36.1069 8.21445 36.6254 5.02603 37.1319 1.83366C37.1801 1.5377 37.2485 1.37197 37.6343 1.38775C38.5749 1.42327 39.5195 1.39959 40.4962 1.39959C40.3957 1.90863 40.3193 2.37427 40.2108 2.83201C40.1264 3.19111 40.1545 3.3963 40.6168 3.32922C40.8981 3.28976 41.1916 3.33316 41.481 3.32133C41.7221 3.30949 41.7905 3.3963 41.7543 3.62517Z" fill="#02AB81"/>
<path d="M87.9509 3.50301C87.4203 4.5211 87.0947 5.60232 86.8777 6.71906C86.8415 6.89663 86.7731 6.98344 86.5641 6.9795C85.8406 6.96766 85.4186 7.38594 85.1573 8.00153C84.6267 9.24849 84.4378 10.5783 84.2087 11.8963C83.9876 13.1827 83.7947 14.477 83.6058 15.7674C83.5616 16.0712 83.4651 16.1936 83.1315 16.1817C82.2794 16.1581 81.4272 16.166 80.5751 16.1778C80.3018 16.1857 80.2174 16.1186 80.2616 15.8345C80.9087 11.774 81.5438 7.71347 82.1708 3.64901C82.207 3.42409 82.2713 3.31754 82.5246 3.32149C83.3124 3.33333 84.1002 3.33333 84.884 3.31754C85.1613 3.3136 85.2136 3.42014 85.1694 3.65691C85.093 4.10676 85.0327 4.55661 84.9483 5.12879C85.3101 4.67499 85.5834 4.30801 85.8848 3.96865C86.3792 3.4162 86.9982 3.13603 87.7619 3.18338C88.0111 3.19916 88.0674 3.28203 87.9509 3.50301Z" fill="#02AB81"/>
<path d="M47.7416 22.9368C47.2633 23.9548 46.9457 25.0282 46.7568 26.1331C46.7287 26.3106 46.6563 26.4054 46.4433 26.4054C45.7278 26.4132 45.354 26.8592 45.1209 27.459C44.6546 28.6467 44.4778 29.8976 44.2728 31.1406C44.0517 32.5099 43.8668 33.8832 43.6739 35.2564C43.6377 35.5208 43.5533 35.6392 43.2558 35.6313C42.4841 35.6115 41.7124 35.6155 40.9406 35.6313C40.6311 35.6392 40.5306 35.576 40.5789 35.2367C40.9728 32.652 41.3386 30.0594 41.7124 27.4708C41.9174 26.0542 42.1384 24.6336 42.3273 23.213C42.3675 22.8894 42.4479 22.7473 42.8137 22.7631C43.489 22.7947 44.1642 22.7829 44.8395 22.7671C45.1249 22.7592 45.1972 22.846 45.145 23.1183C45.0847 23.4419 45.0646 23.7733 45.0244 24.1008C45.0164 24.1916 44.8717 24.3534 45.1329 24.3021C45.4264 23.9075 45.6876 23.4892 46.0534 23.1498C46.4754 22.7631 46.9658 22.5777 47.5446 22.6132C47.7657 22.629 47.8581 22.6882 47.7416 22.9368Z" fill="#02AB81"/>
<path d="M100.722 12.2749C99.6366 12.271 98.7684 13.1352 98.7523 14.244C98.7322 15.4239 99.5763 16.3354 100.694 16.3473C101.779 16.3591 102.671 15.4476 102.679 14.3229C102.683 13.1944 101.815 12.2789 100.722 12.2749ZM100.722 15.8224C99.8898 15.8303 99.2346 15.1555 99.2346 14.2992C99.2346 13.4706 99.8858 12.8037 100.698 12.7997C101.518 12.7919 102.197 13.4864 102.189 14.3229C102.181 15.1477 101.526 15.8185 100.722 15.8224ZM100.814 13.4114C100.637 13.4074 100.461 13.4232 100.288 13.4074C100.075 13.3877 100.01 13.4706 100.018 13.6758C100.03 14.0664 100.014 14.461 100.026 14.8517C100.03 14.9938 99.9139 15.2147 100.231 15.2147C100.533 15.2147 100.436 15.0095 100.461 14.8556C100.481 14.7294 100.388 14.5321 100.609 14.5202C100.794 14.5123 100.806 14.7096 100.838 14.832C100.919 15.1437 101.076 15.3055 101.413 15.1832C101.457 14.8556 101.043 14.6544 101.305 14.2953C101.634 13.8455 101.385 13.4272 100.814 13.4114ZM100.666 14.1809C100.497 14.1967 100.44 14.1217 100.445 13.9678C100.453 13.8257 100.477 13.7192 100.662 13.7507C100.798 13.7784 100.955 13.7705 100.975 13.9638C100.943 14.1375 100.818 14.169 100.666 14.1809Z" fill="#02AB81"/>
<path d="M104.459 35.0828C104.459 35.2446 104.475 35.3867 104.226 35.3906C103.989 35.3906 103.973 35.2722 103.973 35.0947C103.981 34.5975 103.977 34.1003 103.916 33.5991C103.816 34.0726 103.707 34.5422 103.611 35.0158C103.575 35.1973 103.595 35.3788 103.301 35.3946C102.964 35.4104 102.992 35.1736 102.952 34.996C102.859 34.5896 102.787 34.1792 102.626 33.7767C102.626 34.2226 102.622 34.6685 102.626 35.1144C102.63 35.2683 102.626 35.3827 102.409 35.3867C102.188 35.3906 102.136 35.3078 102.14 35.1105C102.148 34.4357 102.144 33.757 102.144 33.0782C102.144 32.9125 102.14 32.7389 102.381 32.7744C102.574 32.8059 102.851 32.6402 102.924 32.9914C103.028 33.4926 103.141 33.9898 103.249 34.4909C103.285 34.487 103.318 34.487 103.354 34.483C103.454 34.0095 103.579 33.536 103.651 33.0545C103.715 32.6481 104.013 32.7902 104.242 32.7783C104.539 32.7586 104.455 32.9914 104.455 33.1453C104.463 33.7885 104.459 34.4357 104.459 35.0828Z" fill="#02AB81"/>
<path d="M101.875 33.0157C101.879 33.2011 101.794 33.2879 101.618 33.2564C101.179 33.1814 101.167 33.4339 101.175 33.7496C101.192 34.2074 101.171 34.6651 101.184 35.1189C101.192 35.328 101.115 35.3912 100.91 35.3912C100.693 35.3912 100.629 35.3044 100.637 35.1071C100.645 34.8585 100.641 34.6059 100.641 34.3534C100.641 34.1955 100.633 34.0377 100.641 33.8798C100.657 33.5247 100.697 33.1617 100.13 33.2564C99.9535 33.2879 99.9214 33.1617 99.9214 33.0196C99.9214 32.8775 99.9455 32.771 100.122 32.771H101.662C101.835 32.771 101.867 32.8696 101.875 33.0157Z" fill="#02AB81"/>
<path d="M45.1306 24.3023C45.1145 24.3931 45.0783 24.472 44.9738 24.5194C44.9014 24.3655 44.9416 24.2313 45.022 24.1011C45.0542 24.1721 45.0421 24.2629 45.1306 24.3023Z" fill="#02AB81"/>
<path d="M59.7005 3.18328C59.1539 3.15566 58.6595 3.28588 58.2173 3.6213C57.7109 4.00406 57.3973 4.54468 56.9994 5.01426C56.9914 4.90377 56.9874 4.79722 56.9833 4.68673C57.0275 4.34343 57.0436 3.99223 57.128 3.65681C57.2044 3.34507 57.0718 3.31745 56.8145 3.32139C56.0589 3.32929 55.3032 3.33718 54.5515 3.31745C54.2662 3.30956 54.1576 3.40032 54.1174 3.67259C53.4864 7.73705 52.8513 11.8015 52.2042 15.866C52.164 16.1382 52.2444 16.1816 52.4936 16.1777C53.3738 16.1659 54.2581 16.1659 55.1424 16.1777C55.3997 16.1816 55.5082 16.1146 55.5484 15.8502C55.7293 14.5716 55.9142 13.2931 56.1352 12.0185C56.3724 10.669 56.5613 9.30758 57.0919 8.02906C57.3571 7.39374 57.7872 6.96362 58.5349 6.9794C58.7439 6.98335 58.8001 6.90837 58.8363 6.71896C59.0534 5.60222 59.387 4.51705 59.9055 3.49502C60.0341 3.24247 59.9256 3.19512 59.7005 3.18328Z" fill="#02AB81"/>
<path d="M16.3665 0.349333C14.9396 0.365118 13.5087 0.365118 12.0777 0.349333C11.7723 0.345387 11.6396 0.428255 11.5472 0.728156C10.8237 2.9932 10.0801 5.25035 9.34048 7.50751C9.08323 8.30067 8.82197 9.08988 8.5607 9.88304C8.50041 9.87515 8.4361 9.86726 8.3758 9.85936C8.3758 6.83273 8.36777 3.80609 8.38384 0.779455C8.38786 0.404578 8.26728 0.345387 7.92562 0.349333C6.67155 0.369064 5.41747 0.376956 4.16339 0.345387C3.72527 0.333549 3.6087 0.479554 3.54439 0.882053C2.99774 4.36643 2.431 7.85081 1.86827 11.3352C1.6271 12.811 1.38593 14.2869 1.14476 15.7666C1.10055 16.0271 1.08045 16.1968 1.4623 16.181C2.2662 16.1494 3.07009 16.1652 3.87399 16.177C4.11918 16.181 4.19555 16.0942 4.23172 15.8574C4.80651 12.2941 5.39335 8.73473 5.9802 5.17538C6.03245 5.14381 6.0847 5.11619 6.13695 5.08462C6.19323 7.40096 6.2495 9.71731 6.29773 12.0336C6.32587 13.2451 6.35401 14.4605 6.35803 15.6719C6.36205 16.0744 6.49067 16.2283 6.91673 16.181C7.31466 16.1415 7.72465 16.1376 8.11856 16.181C8.5607 16.2362 8.72148 16.0508 8.8501 15.664C10.068 12.1007 11.302 8.54532 12.5319 4.98597L12.6405 5.09251C12.4877 6.12244 12.335 7.15236 12.1782 8.17834C11.7843 10.7157 11.3944 13.2569 10.9925 15.7943C10.9402 16.1218 11.0488 16.1928 11.3583 16.181C11.921 16.1573 12.4837 16.1731 13.0464 16.1731C14.2724 16.1731 14.2563 16.1691 14.4452 14.9616C15.1969 10.2303 15.9565 5.5029 16.7283 0.775509C16.7846 0.424309 16.7162 0.345387 16.3665 0.349333Z" fill="#02AB81"/>
<path d="M101.302 14.2955C101.631 13.8456 101.382 13.4273 100.811 13.4116C100.634 13.4076 100.458 13.4234 100.285 13.4076C100.072 13.3879 100.007 13.4708 100.015 13.6759C100.028 14.0666 100.011 14.4612 100.024 14.8519C100.028 14.9939 99.911 15.2149 100.229 15.2149C100.53 15.2149 100.434 15.0097 100.458 14.8558C100.478 14.7295 100.385 14.5322 100.606 14.5204C100.791 14.5125 100.803 14.7098 100.835 14.8321C100.916 15.1439 101.073 15.3057 101.41 15.1833C101.454 14.8558 101.04 14.6546 101.302 14.2955ZM100.663 14.181C100.494 14.1968 100.438 14.1219 100.442 13.968C100.45 13.8259 100.474 13.7194 100.659 13.7509C100.795 13.7785 100.952 13.7707 100.972 13.964C100.94 14.1376 100.815 14.1692 100.663 14.181Z" fill="#02AB81"/>
<path d="M101.302 14.2955C101.631 13.8456 101.382 13.4273 100.811 13.4116C100.634 13.4076 100.458 13.4234 100.285 13.4076C100.072 13.3879 100.007 13.4708 100.015 13.6759C100.028 14.0666 100.011 14.4612 100.024 14.8519C100.028 14.9939 99.911 15.2149 100.229 15.2149C100.53 15.2149 100.434 15.0097 100.458 14.8558C100.478 14.7295 100.385 14.5322 100.606 14.5204C100.791 14.5125 100.803 14.7098 100.835 14.8321C100.916 15.1439 101.073 15.3057 101.41 15.1833C101.454 14.8558 101.04 14.6546 101.302 14.2955ZM100.663 14.181C100.494 14.1968 100.438 14.1219 100.442 13.968C100.45 13.8259 100.474 13.7194 100.659 13.7509C100.795 13.7785 100.952 13.7707 100.972 13.964C100.94 14.1376 100.815 14.1692 100.663 14.181Z" fill="#02AB81"/>
</svg>
