<svg width="81" height="81" viewBox="0 0 81 81" fill="none" xmlns="http://www.w3.org/2000/svg">
<path d="M62.0222 62.1698L62.0223 62.1697C67.8175 55.6286 71.1935 48.058 71.1764 39.0933V39.071V39.0477V39.0245V39.0012V38.978V38.9548V38.9315V38.9083V38.885V38.8618V38.8385V38.8153V38.792V38.7688V38.7456V38.7223V38.6991V38.6758V38.6526V38.6294V38.6061V38.5829V38.5597V38.5364V38.5132V38.4899V38.4667V38.4435V38.4202V38.397V38.3738V38.3505V38.3273V38.3041V38.2808V38.2576V38.2344V38.2111V38.1879V38.1647V38.1414V38.1182V38.095V38.0717V38.0485V38.0253V38.0021V37.9788V37.9556V37.9324V37.9091V37.8859V37.8627V37.8395V37.8162V37.793V37.7698V37.7465V37.7233V37.7001V37.6769V37.6536V37.6304V37.6072V37.584V37.5607V37.5375V37.5143V37.4911V37.4679V37.4446V37.4214V37.3982V37.375V37.3517V37.3285V37.3053V37.2821V37.2589V37.2356V37.2124V37.1892V37.166V37.1428V37.1195V37.0963V37.0731V37.0499V37.0267V37.0035V36.9802V36.957V36.9338V36.9106V36.8874V36.8642V36.8409V36.8177V36.7945V36.7713V36.7481V36.7249V36.7017V36.6784V36.6552V36.632V36.6088V36.5856V36.5624V36.5392V36.516V36.4927V36.4695V36.4463V36.4231V36.3999V36.3767V36.3535V36.3303V36.3071V36.2838V36.2606V36.2374V36.2142V36.191V36.1678V36.1446V36.1214V36.0982V36.075V36.0518V36.0285V36.0053V35.9821V35.9589V35.9357V35.9125V35.8893V35.8661V35.8429V35.8197V35.7965V35.7733V35.7501V35.7269V35.7037V35.6804V35.6572V35.634V35.6108V35.5876V35.5644V35.5412V35.518V35.4948V35.4716V35.4484V35.4252V35.402V35.3788V35.3556V35.3324V35.3092V35.286V35.2628V35.2396V35.2164V35.1932V35.17V35.1468V35.1236V35.1004V35.0772V35.054V35.0308V35.0076V34.9844V34.9612V34.938V34.9148V34.8916V34.8684V34.8452V34.822V34.7988V34.7756V34.7524V34.7292V34.706V34.6828V34.6596V34.6364V34.6132V34.59V34.5668V34.5436V34.5204V34.4972V34.474V34.4508V34.4276V34.4044V34.3812V34.358V34.3348V34.3116V34.2884V34.2652V34.242V34.2188V34.1956V34.1724V34.1492V34.126V34.1028V34.0796V34.0564V34.0332V34.01V33.9868V33.9636V33.9404V33.9172V33.894V33.8708V33.8476V33.8244V33.8012V33.778V33.7548V33.7316V33.7085V33.6853V33.6621V33.6389V33.6157V33.5925V33.5693V33.5461V33.5229V33.4997V33.4765V33.4533V33.4301V33.4069V33.3837V33.3605V33.3373V33.3141V33.2909V33.2677V33.2445V33.2213V33.1981V33.1749V33.1517V33.1285V33.1054V33.0822V33.059V33.0358V33.0126V32.9894V32.9662V32.943V32.9198V32.8966V32.8734V32.8502V32.827V32.8038V32.7806V32.7574V32.7342V32.711V32.6878V32.6646V32.6414V32.6182V32.595V32.5718V32.5486V32.5254V32.5022V32.479V32.4559V32.4327V32.4095V32.3863V32.3631V32.3399V32.3167V32.2935V32.2703V32.2471V32.2239V32.2007V32.1775V32.1543V32.1311V32.1079V32.0847V32.0615V32.0383V32.0151V31.9919V31.9687V31.9455V31.9223V31.8991V31.8759V31.8527V31.8295V31.8063V31.7831V31.7599V31.7367V31.7135V31.6903V31.6671V31.6439V31.6207V31.5975V31.5743V31.5511V31.5279V31.5047V31.4815V31.4583V31.4351V31.4119V31.3887V31.3655V31.3423V31.3191V31.2959V31.2727V31.2495V31.2263V31.2031V31.1799V31.1567V31.1335V31.1103V31.0871V31.0639V31.0407V31.0175V30.9943V30.9711V30.9479V30.9247V30.9015V30.8783V30.8551V30.8319V30.8087V30.7855V30.7623V30.7391V30.7159V30.6927V30.6694V30.6462V30.623V30.5998V30.5766V30.5534V30.5302V30.507V30.4838V30.4606V30.4374V30.4142V30.391V30.3678V30.3446V30.3214V30.2981V30.2749V30.2517V30.2285V30.2053V30.1821V30.1589V30.1357V30.1125V30.0893V30.0661V30.0429V30.0196V29.9964V29.9732V29.95V29.9268V29.9036V29.8804V29.8572V29.834V29.8107V29.7875V29.7643V29.7411V29.7179V29.6947V29.6715V29.6483V29.625V29.6018V29.5786V29.5554V29.5322V29.509V29.4858V29.4625V29.4393V29.4161V29.3929V29.3697V29.3465V29.3232V29.3V29.2768V29.2536V29.2304V29.2072V29.1839V29.1607V29.1375V29.1143V29.0911V29.0678V29.0446V29.0214V28.9982V28.975V28.9517V28.9285V28.9053V28.8821V28.8589V28.8356V28.8124V28.7892V28.766V28.7427V28.7195V28.6963V28.6731V28.6498V28.6266V28.6034V28.5802V28.5569V28.5337V28.5105V28.4873V28.464V28.4408V28.4176V28.3943V28.3711V28.3479V28.3247V28.3014V28.2782V28.255V28.2317V28.2085V28.1853V28.1621V28.1388V28.1156V28.0924V28.0691V28.0459V28.0227V27.9994V27.9762V27.953V27.9297V27.9065V27.8832V27.86V27.8368V27.8135V27.7903V27.7671V27.7438V27.7206V27.6974V27.6741V27.6509V27.6276V27.6044V27.5812V27.5579V27.5347V27.5114V27.4882V27.465V27.4417V27.4185V27.3952V27.372V27.3487V27.3255V27.3022V27.279V27.2558V27.2325V27.2093C71.1764 26.0753 71.1753 24.9418 71.1743 23.8085C71.1711 20.4103 71.1679 17.0145 71.1932 13.618V13.6143C71.1932 13.2938 71.1516 12.9764 70.99 12.6893C70.8249 12.396 70.5704 12.1963 70.2649 12.0409C62.3028 7.90474 53.85 5.59661 44.9794 4.87339L44.9779 4.87327C40.1336 4.49363 35.3098 4.75278 30.5246 5.528L30.5244 5.52804C23.6368 6.64754 17.0679 8.74948 10.8542 11.9382L10.8541 11.9381L10.851 11.9398C10.5191 12.1131 10.2226 12.3258 10.0192 12.6435C9.81351 12.9648 9.74023 13.3345 9.74023 13.7511L9.74024 13.7531C9.77392 22.0975 9.79076 30.4582 9.75708 38.8013C9.72294 45.9323 11.7417 52.4126 15.828 58.2101C21.9748 66.9568 30.3776 72.7512 39.8618 77.033C40.0951 77.1421 40.3544 77.1578 40.5662 77.1415C40.7863 77.1245 41.0107 77.0687 41.2003 76.9845L41.2004 76.9845C49.1013 73.473 56.2051 68.7317 62.0222 62.1698ZM12.9299 40.2649L12.9298 40.2638C12.8687 37.3098 12.8787 34.3493 12.8887 31.3858C12.8925 30.2733 12.8963 29.1604 12.8963 28.0472V28.0468C12.8963 23.6697 12.8963 19.2743 12.8794 14.8788C12.8795 14.6271 12.9195 14.5061 12.9647 14.433C13.0089 14.3616 13.0963 14.2741 13.3186 14.1683L13.3199 14.1677C19.9434 10.9923 26.8439 8.92392 34.141 8.19495L34.1419 8.19486C45.6371 7.02443 56.5627 8.99081 67.0622 13.8962L67.0632 13.8967C67.5167 14.1074 67.7475 14.3027 67.8794 14.514C68.0123 14.7269 68.0876 15.0241 68.0877 15.5282C68.0877 15.5286 68.0877 15.5291 68.0877 15.5295L68.0876 15.548C68.0371 23.4405 67.9867 31.321 68.0709 39.2192C68.1369 46.4431 65.6584 52.6958 61.2726 58.2447C55.7773 65.1931 48.7096 70.0909 40.7634 73.7948C40.6959 73.8214 40.5886 73.8423 40.4642 73.8408C40.3346 73.8393 40.2295 73.814 40.1686 73.7849L40.1626 73.7821C33.1376 70.5387 26.8451 66.2659 21.5916 60.5261C17.6626 56.2159 14.7824 51.3335 13.5249 45.5886C13.1455 43.847 12.963 42.0503 12.9299 40.2649Z" fill="#02AB81" stroke="#02AB81"/>
<path d="M40.7446 37.0422C40.7446 30.6295 40.7446 24.2851 40.7446 17.9579C43.5239 17.9579 46.2694 17.9408 49.015 17.975C49.5877 17.975 50.1772 18.1289 50.7499 18.2828C55.4831 19.6167 57.6728 23.8234 57.2686 28.3551C56.8643 33.0065 54.3546 35.9307 50.2109 36.8883C49.8572 36.9738 49.4866 37.0593 49.1329 37.0593C46.3537 37.0422 43.5913 37.0422 40.7446 37.0422ZM44.2145 34.2719C45.562 34.2719 46.8421 34.2719 48.1223 34.2719C50.4973 34.2548 52.4175 32.921 53.2428 30.6637C53.9671 28.68 53.9671 26.645 53.3439 24.6271C52.7712 22.7632 51.5753 21.3438 49.6719 20.9847C47.9033 20.6427 46.0673 20.7111 44.2145 20.5914C44.2145 25.2428 44.2145 29.6718 44.2145 34.2719Z" fill="#02AB81"/>
<path d="M24.9111 32.3054C25.2817 32.1344 27.404 31.3649 27.404 31.3649C27.404 31.3649 27.8083 32.0489 28.2294 32.7842C29.1895 34.4601 30.8739 34.9902 32.5583 34.4259C34.3943 33.8103 35.2702 31.6043 34.3774 29.8771C33.9395 29.0392 33.131 28.7656 32.2888 28.5946C31.6824 28.4749 31.076 28.4407 30.3517 28.3381C30.3517 27.7395 30.3686 26.5596 30.3686 26.5596V26.115C30.3686 26.115 31.3792 26.0637 31.6487 26.0295C33.67 25.7901 34.6975 24.4049 34.2932 22.387C34.0911 21.4123 33.5352 20.7625 32.5583 20.506C31.3118 20.1639 30.2338 20.4376 29.3411 21.3952C29.1727 21.5833 29.0379 21.8056 28.92 22.0279C28.4484 22.9343 28.1283 23.6696 28.1283 23.6696C28.1283 23.6696 27.0166 23.4986 26.1576 23.3276C25.9386 23.2763 25.7196 23.2421 25.5007 23.1908C25.8712 19.3602 29.1558 17.0174 33.0805 17.7528C36.2808 18.3684 37.9147 20.6941 37.342 23.8406C37.123 25.0376 36.4998 25.9269 35.4386 26.5083C35.2028 26.6451 34.9501 26.7819 34.6975 26.9187C34.7985 26.97 35.2196 27.2094 35.3881 27.2949C37.0388 28.1328 37.881 29.518 37.8473 31.5188C37.7968 33.8274 36.7861 35.5887 34.7143 36.5806C32.693 37.5553 30.5875 37.5895 28.4989 36.7858C26.4608 36.0504 25.5512 34.3062 24.9111 32.3054Z" fill="#02AB81"/>
<path d="M48.9478 47.6278C48.9478 47.6278 48.9478 49.1498 48.9478 49.9877C48.4425 49.9877 47.9877 49.9877 47.4824 49.9877C47.4824 47.7304 47.4824 45.5245 47.4824 43.1475C48.6278 43.2159 49.7058 43.2159 50.7838 43.3698C51.5081 43.4724 52.064 43.9341 52.1987 44.7549C52.3503 45.5758 52.1482 46.2769 51.4913 46.807C51.3397 46.9267 51.1881 47.0293 51.0702 47.1319C51.6429 48.0724 52.7546 50.0219 52.7546 50.0219H51.2555C51.2555 50.0219 50.8344 49.526 50.5649 49.0472C50.3627 48.671 50.1943 48.2777 49.9248 47.9527C49.7227 47.7133 49.5205 47.6278 49.5205 47.6278H48.9478ZM48.9984 44.4813C48.9984 45.4731 48.9984 45.5245 48.9984 46.4479C49.9585 46.4992 50.228 46.3111 50.6154 45.9691C50.8175 45.7981 50.8344 45.0285 50.6491 44.8575C50.2448 44.4984 49.8237 44.43 48.9984 44.4813Z" fill="#02AB81"/>
<path d="M44.7872 43.2671C45.2925 43.2671 45.7136 43.2671 46.2358 43.2671C46.2358 44.8575 46.3368 46.4136 46.2021 47.9698C46.0842 49.3378 44.8545 50.1587 43.3049 50.1245C41.8563 50.0902 40.7952 49.201 40.593 47.833C40.5425 47.5252 40.5593 47.2002 40.5593 46.8924C40.5593 45.6954 40.5593 44.5154 40.5593 43.2671C41.0815 43.2671 41.5026 43.2671 42.0248 43.2671C42.0248 44.618 41.9742 45.9177 42.0584 47.2173C42.0921 47.7133 42.2943 48.3289 42.648 48.6196C42.9512 48.8761 43.6586 48.9103 44.0292 48.7222C44.3829 48.5341 44.7198 47.9527 44.7535 47.508C44.8377 46.1229 44.7872 44.7206 44.7872 43.2671Z" fill="#02AB81"/>
<path d="M57.8579 43.2158C57.8579 43.6433 57.8579 43.934 57.8579 44.3444C57.2852 44.3444 55.6513 44.3957 55.1123 44.3273C55.0955 44.8916 55.146 45.7467 55.1628 46.0374C55.8198 46.0374 56.4767 46.0374 57.1504 46.0374C57.1504 46.482 57.1504 46.8069 57.1504 47.2173C56.4767 47.2173 55.8366 47.2173 55.1628 47.2173C55.1628 47.7987 55.1628 48.2947 55.1628 48.9103C56.0556 48.9103 56.9146 48.9103 57.8073 48.9103C57.8073 49.3207 57.8073 49.6114 57.8073 50.056C56.5104 50.056 55.2134 50.0731 53.8995 50.0218C53.7816 50.0218 53.5795 49.6456 53.5795 49.4575C53.5627 47.5764 53.5458 45.6954 53.5795 43.8143C53.5795 43.6091 53.8827 43.25 54.068 43.2329C55.3313 43.1816 56.5609 43.2158 57.8579 43.2158Z" fill="#02AB81"/>
<path d="M30.7394 46.0716C31.1436 46.0716 30.4362 46.0716 30.7394 46.0716C31.0425 46.0716 32.4238 46.0716 32.8112 46.0716C32.8112 46.4478 32.8112 46.7899 32.8112 47.2174C32.1374 47.2174 31.43 47.2174 30.7394 47.2174C30.7394 47.7817 30.7394 48.2947 30.7394 48.9103C31.6152 48.9103 33.4175 48.9103 33.4175 48.9103V50.0732C33.4175 50.0732 30.4362 50.0732 29.3076 50.0732C29.3076 47.7475 29.3076 45.5415 29.3076 43.2158C30.6046 43.2158 33.687 43.25 33.687 43.25V44.0709V44.3445C33.687 44.3445 31.2784 44.3445 30.7394 44.3445C30.7562 44.5326 30.7225 45.7809 30.7394 46.0716Z" fill="#02AB81"/>
<path d="M39.7679 49.0644C38.6899 50.3811 36.5844 50.5179 35.2705 49.3893C33.9062 48.2264 33.7546 45.7126 34.9674 44.2762C36.1464 42.891 38.4204 42.7371 39.8353 43.9855C39.6331 44.5327 38.9762 44.8576 38.9762 44.8576C38.9762 44.8576 38.6225 44.6353 38.4204 44.5156C37.6119 44.0539 36.6012 44.413 36.0959 45.1312C35.4727 46.0204 35.5064 47.4398 36.1801 48.2435C36.7697 48.9617 37.6455 49.0986 38.5383 48.6368C38.6899 48.5513 39.0436 48.3119 39.0436 48.3119C39.0436 48.3119 39.3131 48.5171 39.7679 49.0644Z" fill="#02AB81"/>
<path d="M28.2295 43.8311C28.1622 44.1389 27.6905 44.8058 27.4884 44.7716C27.2189 44.669 26.0398 44.1389 25.585 44.4638C25.2145 44.7545 25.1808 45.3018 25.8882 45.6951C26.1914 45.8661 26.562 45.9516 26.8989 46.0884C28.0442 46.4988 28.4822 47.1144 28.398 48.1405C28.3137 49.1494 27.5895 49.936 26.5788 50.0899C25.5682 50.2439 24.6418 50.0044 23.8501 49.3375C24.2207 48.3115 24.288 48.2944 25.1976 48.7219C25.4503 48.8416 25.7535 48.9271 25.9893 48.9442C26.9494 49.0297 27.32 47.8498 26.3598 47.388C26.0735 47.2512 25.7366 47.1657 25.4166 47.046C24.3217 46.6527 23.9343 46.0542 24.0522 44.9084C24.1364 44.0363 24.827 43.3181 25.7703 43.1813C26.6294 43.0616 27.4884 43.1813 28.2295 43.8311Z" fill="#02AB81"/>
</svg>
