<svg width="22" height="16" viewBox="0 0 22 16" fill="none" xmlns="http://www.w3.org/2000/svg">
<path d="M11 0.397217C6 0.397217 1.73 3.50722 0 7.89722C1.73 12.2872 6 15.3972 11 15.3972C16 15.3972 20.27 12.2872 22 7.89722C20.27 3.50722 16 0.397217 11 0.397217ZM11 12.8972C8.24 12.8972 6 10.6572 6 7.89722C6 5.13722 8.24 2.89722 11 2.89722C13.76 2.89722 16 5.13722 16 7.89722C16 10.6572 13.76 12.8972 11 12.8972ZM11 4.89722C9.34 4.89722 8 6.23722 8 7.89722C8 9.55722 9.34 10.8972 11 10.8972C12.66 10.8972 14 9.55722 14 7.89722C14 6.23722 12.66 4.89722 11 4.89722Z" fill="black" fill-opacity="0.6"/>
</svg>
