<svg width="13" height="20" xmlns="http://www.w3.org/2000/svg" xmlns:xlink="http://www.w3.org/1999/xlink" xmlns:svgjs="http://svgjs.com/svgjs" viewBox="0.187 0 12.626 20" fill="#fff"><svg xmlns="http://www.w3.org/2000/svg" width="13" height="20" viewBox="2.01 1.018 11.974 18.968"><path paint-order="stroke fill markers" fill-rule="evenodd" d="M13.703 7.719a.957.957 0 0 1-1.355 0L8.995 4.365v14.621a.999.999 0 1 1-1.996 0V4.366L3.646 7.718A.96.96 0 0 1 2.29 6.363L7.121 1.53c.044-.083.088-.168.158-.238a.95.95 0 0 1 .718-.273.948.948 0 0 1 .718.273c.07.07.114.155.158.238l4.83 4.833a.959.959 0 0 1 0 1.356z"/></svg></svg>