<svg width="125" height="29" viewBox="0 0 125 29" fill="none" xmlns="http://www.w3.org/2000/svg">
<path d="M33.5953 9.84297C32.6554 10.8597 32.1794 12.3971 32.1794 14.4307C32.1794 16.4642 32.6554 17.9832 33.5953 18.9938C34.1257 19.5254 34.7605 19.9371 35.4582 20.2021C36.1559 20.467 36.9008 20.5792 37.6441 20.5312H42.3677V17.8301H37.6441C37.2538 17.8691 36.8598 17.8214 36.4894 17.6902C36.1191 17.5591 35.7812 17.3477 35.4992 17.0706C34.9872 16.2938 34.7532 15.3618 34.8365 14.4307C34.8365 13.2056 35.0594 12.293 35.5052 11.7724C35.7855 11.4943 36.1221 11.2818 36.4915 11.1496C36.8609 11.0173 37.2543 10.9686 37.6441 11.0067H42.3677V8.3117H37.6441C36.9014 8.26413 36.1571 8.37587 35.4595 8.63967C34.762 8.90348 34.1269 9.31345 33.5953 9.84297Z" fill="#138265"/>
<path d="M52.2427 11.7725C51.9332 11.4578 51.5586 11.2172 51.1461 11.0682C50.6567 10.8939 50.1403 10.8109 49.6218 10.8231H43.9764V13.2732H49.6279C49.7699 13.2556 49.914 13.2684 50.0509 13.3105C50.1878 13.3527 50.3146 13.4234 50.4232 13.5182C50.5577 13.701 50.622 13.9276 50.6039 14.1552V14.4737H46.7419C46.2371 14.4641 45.7336 14.5302 45.2477 14.6697C44.855 14.7896 44.4943 14.9991 44.1933 15.2822C43.9198 15.5444 43.713 15.8702 43.5908 16.2316C43.4684 16.6278 43.4094 17.0414 43.4161 17.4566C43.3955 17.8666 43.4546 18.2767 43.5901 18.6635C43.7255 19.0502 43.9346 19.4061 44.2054 19.7106C44.5481 20.0155 44.9478 20.2469 45.3805 20.3911C45.8132 20.5353 46.2701 20.5892 46.7238 20.5498H50.881C51.2201 20.558 51.5587 20.5189 51.8872 20.4334C52.1623 20.3548 52.4106 20.2 52.6042 19.9863C52.7874 19.7859 52.9126 19.5378 52.9657 19.2696C53.0258 18.9694 53.0541 18.6634 53.05 18.357V14.1368C53.0541 13.7028 52.991 13.2708 52.8633 12.8567C52.7413 12.4515 52.5289 12.0805 52.2427 11.7725ZM50.6039 16.6175V17.965C50.6086 17.9975 50.6086 18.0305 50.6039 18.063C50.5585 18.0752 50.5107 18.0752 50.4653 18.063H46.7298C46.4752 18.0911 46.2193 18.0212 46.0129 17.867C45.9463 17.7915 45.895 17.7034 45.8619 17.6078C45.8288 17.5122 45.8146 17.4108 45.8201 17.3096C45.8125 17.2124 45.8253 17.1147 45.8575 17.0229C45.8896 16.931 45.9406 16.8472 46.0068 16.7767C46.2328 16.6316 46.4999 16.5669 46.766 16.593L50.6039 16.6175Z" fill="#138265"/>
<path d="M60.9186 10.7985H58.4363C57.9389 10.7649 57.4404 10.843 56.976 11.0271C56.5116 11.2113 56.0928 11.4971 55.7492 11.8643C55.0809 12.7624 54.7575 13.8773 54.8394 15.0003V24.1573H57.2976V20.5312H60.9126C61.4709 20.5515 62.0273 20.453 62.546 20.2421C63.0648 20.0311 63.5345 19.7124 63.9251 19.3062C64.7083 18.51 65.0638 17.2849 65.0638 15.6986C65.0638 14.1122 64.6842 12.881 63.9371 12.0725C63.5508 11.6558 63.0821 11.3269 62.5619 11.1073C62.0417 10.8877 61.4816 10.7825 60.9186 10.7985ZM62.6176 15.6986C62.6795 16.3631 62.5204 17.0295 62.1658 17.5912C61.9801 17.7813 61.755 17.9267 61.5068 18.0168C61.2587 18.1069 60.9939 18.1393 60.7318 18.1118H57.3217V15.086C57.2708 14.5693 57.4009 14.0509 57.6892 13.6222C57.8692 13.4744 58.0768 13.3651 58.2994 13.3009C58.522 13.2367 58.755 13.2189 58.9846 13.2485H60.7318C60.9944 13.2205 61.2599 13.2533 61.5083 13.3445C61.7566 13.4357 61.9814 13.583 62.1658 13.7753C62.5249 14.3465 62.6841 15.024 62.6176 15.6986Z" fill="#138265"/>
<path d="M69.0042 10.8232H66.552V20.5314H69.0042V10.8232Z" fill="#138265"/>
<path d="M69.0222 7.42361H66.552V10.2105H69.0222V7.42361Z" fill="#138265"/>
<path d="M73.6794 8.68552H71.2091V10.7987H70.0042V13.2487H71.2091V17.0769C71.199 17.6064 71.2537 18.1352 71.3718 18.651C71.4624 19.0588 71.6507 19.4376 71.9201 19.7535C72.1798 20.044 72.5134 20.256 72.8841 20.366C73.3009 20.4887 73.7336 20.5465 74.1674 20.5375H76.1014V18.1916H74.5349C74.2946 18.216 74.054 18.1482 73.8601 18.0018C73.7939 17.9344 73.6794 17.7323 73.6794 17.181V13.2487H76.1376V10.7987H73.6794V8.68552Z" fill="#138265"/>
<path d="M85.8379 11.7725C85.5284 11.4578 85.1538 11.2172 84.7414 11.0682C84.2519 10.8939 83.7355 10.8109 83.217 10.8231H77.5475V13.2732H83.199C83.341 13.2549 83.4853 13.2672 83.6223 13.3094C83.7594 13.3517 83.8861 13.4228 83.9943 13.5182C84.1519 13.7003 84.234 13.9374 84.2232 14.1797V14.4737H80.3371C79.8323 14.4645 79.3289 14.5305 78.8429 14.6697C78.4502 14.7896 78.0895 14.9991 77.7885 15.2822C77.515 15.5444 77.3082 15.8702 77.186 16.2316C77.0636 16.6278 77.0047 17.0414 77.0113 17.4566C76.9907 17.8666 77.0498 18.2767 77.1853 18.6635C77.3207 19.0502 77.5298 19.4061 77.8006 19.7106C78.1442 20.016 78.5449 20.2476 78.9787 20.3918C79.4124 20.536 79.8704 20.5897 80.3251 20.5498H84.4763C84.8153 20.5584 85.1539 20.5193 85.4824 20.4334C85.754 20.3663 86.0021 20.2243 86.1994 20.023C86.3827 19.8226 86.5078 19.5746 86.5609 19.3064C86.621 19.0061 86.6493 18.7001 86.6453 18.3937V14.1368C86.6493 13.7028 86.5863 13.2708 86.4585 12.8567C86.3365 12.4515 86.1241 12.0805 85.8379 11.7725ZM84.2232 16.6175V17.965C84.2279 17.9975 84.2279 18.0305 84.2232 18.063C84.178 18.0764 84.1299 18.0764 84.0846 18.063H80.3492C80.0945 18.0905 79.8389 18.0206 79.6322 17.867C79.4999 17.7136 79.4328 17.5132 79.4454 17.3096C79.4382 17.2129 79.4505 17.1158 79.4816 17.0242C79.5127 16.9325 79.5619 16.8483 79.6262 16.7767C79.8522 16.6316 80.1192 16.5669 80.3853 16.593L84.2232 16.6175Z" fill="#138265"/>
<path d="M90.947 6.90915H88.4949V20.5313H90.947V6.90915Z" fill="#138265"/>
<path d="M102.081 9.45113C101.727 9.08571 101.3 8.80168 100.828 8.61812C100.262 8.40406 99.6609 8.30017 99.0567 8.31186H92.8992V11.0069H99.1411C99.3107 10.9893 99.482 11.0104 99.6425 11.0687C99.803 11.1269 99.9487 11.2209 100.069 11.3438C100.269 11.5849 100.374 11.8924 100.364 12.2074C100.365 12.3715 100.34 12.5347 100.292 12.6913C100.244 12.8344 100.17 12.9674 100.075 13.0833C99.9736 13.1981 99.8479 13.2882 99.7074 13.3467C99.517 13.428 99.3113 13.4657 99.1049 13.4569H95.02C94.7319 13.4334 94.4421 13.4678 94.1671 13.5581C93.8921 13.6485 93.6373 13.7931 93.4174 13.9837C93.229 14.2092 93.0863 14.4702 92.9973 14.7519C92.9084 15.0336 92.8751 15.3304 92.8992 15.6252V20.5253H95.5562V16.0662H99.0387C99.6592 16.0808 100.276 15.9597 100.846 15.711C101.325 15.4983 101.752 15.1828 102.099 14.7861C102.419 14.413 102.655 13.9742 102.792 13.4998C102.93 13.0474 103.001 12.5768 103.003 12.1033C103.003 11.6181 102.926 11.1362 102.774 10.6761C102.633 10.2216 102.397 9.80361 102.081 9.45113Z" fill="#3F4043"/>
<path d="M112.221 11.7725C111.912 11.4578 111.537 11.2172 111.125 11.0682C110.635 10.8939 110.119 10.8109 109.6 10.8231H103.931V13.2732H109.582C109.724 13.2556 109.868 13.2684 110.005 13.3105C110.142 13.3527 110.269 13.4234 110.378 13.5182C110.535 13.7003 110.617 13.9374 110.607 14.1797V14.4737H106.72C106.216 14.4641 105.712 14.5302 105.226 14.6697C104.833 14.7896 104.473 14.9991 104.172 15.2822C103.896 15.5426 103.689 15.869 103.569 16.2316C103.447 16.6278 103.388 17.0414 103.395 17.4566C103.374 17.8666 103.433 18.2767 103.569 18.6635C103.704 19.0502 103.913 19.4061 104.184 19.7106C104.527 20.0155 104.926 20.2469 105.359 20.3911C105.792 20.5353 106.249 20.5892 106.702 20.5498H110.854C111.193 20.558 111.531 20.5189 111.86 20.4334C112.13 20.3634 112.378 20.2218 112.577 20.023C112.76 19.8226 112.885 19.5746 112.938 19.3064C112.998 19.0061 113.027 18.7001 113.023 18.3937V14.1368C113.024 13.703 112.961 13.2715 112.836 12.8567C112.716 12.4521 112.505 12.0811 112.221 11.7725ZM110.607 16.6175V17.965C110.611 17.9975 110.611 18.0305 110.607 18.063C110.561 18.0739 110.514 18.0739 110.468 18.063H106.732C106.478 18.0911 106.222 18.0212 106.015 17.867C105.949 17.7915 105.898 17.7034 105.865 17.6078C105.831 17.5122 105.817 17.4108 105.823 17.3096C105.815 17.2124 105.828 17.1147 105.86 17.0229C105.892 16.931 105.943 16.8472 106.009 16.7767C106.235 16.6316 106.503 16.5669 106.769 16.593L110.607 16.6175Z" fill="#3F4043"/>
<path d="M121.867 10.7985L118.855 17.8913C118.803 17.8972 118.75 17.8972 118.698 17.8913C118.672 17.8444 118.65 17.7952 118.632 17.7443L115.86 10.7985H113.264L116.421 18.8468C116.541 19.2447 116.776 19.5967 117.096 19.8575C117.335 20.0245 117.613 20.1258 117.903 20.1515L116.222 24.1328H118.873L124.5 10.7985H121.867Z" fill="#3F4043"/>
<path d="M5.27178 9.82458V24.733L3.28956 23.5692H3.24739C2.43219 23.0815 1.75236 22.3911 1.27176 21.5629C0.791168 20.7347 0.525595 19.7958 0.5 18.8346V10.1125C0.528192 9.17981 0.78277 8.26873 1.24107 7.4603L5.27178 9.82458Z" fill="url(#paint0_linear_71_15746)"/>
<path d="M13.1946 14.4733V18.4484L9.80859 16.4639V12.4887L13.1946 14.4733Z" fill="url(#paint1_linear_71_15746)"/>
<path d="M13.2008 23.7713V28.4998C12.2708 28.5059 11.3545 28.272 10.5377 27.8199L9.77856 27.3728V21.7622L13.2008 23.7713Z" fill="url(#paint2_linear_71_15746)"/>
<path d="M25.1481 7.46022L21.1174 9.8245L13.2005 5.17557L5.27168 9.8245L1.24097 7.46022C1.73248 6.59922 2.4365 5.8835 3.28343 5.38382L10.3929 1.21264H10.4291C11.2742 0.737027 12.2259 0.491602 13.1918 0.500187C14.1578 0.508773 15.1051 0.771078 15.9419 1.26164L23.0514 5.43282C23.9138 5.90892 24.6372 6.60835 25.1481 7.46022Z" fill="url(#paint3_linear_71_15746)"/>
<path d="M16.5807 12.489L13.1946 14.4735L9.80859 12.489L13.1946 10.4984L16.5807 12.489Z" fill="url(#paint4_linear_71_15746)"/>
<path d="M25.9013 10.3023V11.8581L21.1174 14.4735V9.82458L25.1481 7.4603C25.6403 8.32399 25.9 9.3042 25.9013 10.3023Z" fill="url(#paint5_linear_71_15746)"/>
<path d="M25.9014 16.3109V18.6323C25.8988 19.6265 25.6391 20.6025 25.1484 21.4625C24.6578 22.3225 23.9534 23.0363 23.1058 23.5323L15.9964 27.7096C15.1468 28.2033 14.1853 28.463 13.2068 28.463V23.7712L25.9014 16.3109Z" fill="url(#paint6_linear_71_15746)"/>
<path d="M16.5806 12.4889V16.4641L13.1946 18.4486V14.4734L16.5806 12.4889Z" fill="url(#paint7_linear_71_15746)"/>
<defs>
<linearGradient id="paint0_linear_71_15746" x1="-3.63313" y1="21.2968" x2="12.7933" y2="9.30576" gradientUnits="userSpaceOnUse">
<stop offset="0.01" stop-color="#787A7D"/>
<stop offset="0.25" stop-color="#636567"/>
<stop offset="1" stop-color="#232426"/>
</linearGradient>
<linearGradient id="paint1_linear_71_15746" x1="-1.00623" y1="24.8981" x2="15.4201" y2="12.9132" gradientUnits="userSpaceOnUse">
<stop offset="0.01" stop-color="#787A7D"/>
<stop offset="0.25" stop-color="#636567"/>
<stop offset="1" stop-color="#232426"/>
</linearGradient>
<linearGradient id="paint2_linear_71_15746" x1="3.53669" y1="31.1275" x2="19.963" y2="19.1425" gradientUnits="userSpaceOnUse">
<stop offset="0.01" stop-color="#787A7D"/>
<stop offset="0.25" stop-color="#636567"/>
<stop offset="1" stop-color="#232426"/>
</linearGradient>
<linearGradient id="paint3_linear_71_15746" x1="13.08" y1="0.918639" x2="13.3167" y2="13.873" gradientUnits="userSpaceOnUse">
<stop stop-color="#177A60"/>
<stop offset="1" stop-color="#00AF83"/>
</linearGradient>
<linearGradient id="paint4_linear_71_15746" x1="12.9717" y1="0.079599" x2="13.2332" y2="14.2345" gradientUnits="userSpaceOnUse">
<stop stop-color="#177A60"/>
<stop offset="1" stop-color="#00AF83"/>
</linearGradient>
<linearGradient id="paint5_linear_71_15746" x1="23.6118" y1="10.4616" x2="16.8593" y2="34.4637" gradientUnits="userSpaceOnUse">
<stop stop-color="#177A60"/>
<stop offset="1" stop-color="#00AF83"/>
</linearGradient>
<linearGradient id="paint6_linear_71_15746" x1="23.0516" y1="8.71579" x2="17.8086" y2="27.3529" gradientUnits="userSpaceOnUse">
<stop stop-color="#177A60"/>
<stop offset="1" stop-color="#00AF83"/>
</linearGradient>
<linearGradient id="paint7_linear_71_15746" x1="17.1168" y1="7.29483" x2="11.7248" y2="26.4574" gradientUnits="userSpaceOnUse">
<stop stop-color="#177A60"/>
<stop offset="1" stop-color="#00AF83"/>
</linearGradient>
</defs>
</svg>
