<svg width="17" height="17" xmlns="http://www.w3.org/2000/svg" xmlns:xlink="http://www.w3.org/1999/xlink" xmlns:svgjs="http://svgjs.com/svgjs" fill="#fff"><svg xmlns="http://www.w3.org/2000/svg" width="17" height="17" viewBox="1.995 2 16.001 16.002"><path paint-order="stroke fill markers" fill-rule="evenodd" d="M17.95 6.703c-.04-.854-.176-1.435-.372-1.942a3.911 3.911 0 0 0-.923-1.418 3.916 3.916 0 0 0-1.416-.924c-.51-.196-1.09-.332-1.944-.371C12.442 2.008 12.17 2 9.998 2c-2.174 0-2.447.008-3.3.048-.85.039-1.434.175-1.942.371a3.922 3.922 0 0 0-1.418.924 3.96 3.96 0 0 0-.924 1.418c-.196.507-.331 1.088-.371 1.942-.037.853-.048 1.125-.048 3.297 0 2.174.01 2.446.05 3.299.038.853.173 1.434.372 1.942.2.533.515 1.018.92 1.418.401.405.885.723 1.419.924.508.196 1.092.332 1.943.371.852.04 1.125.047 3.3.047 2.171 0 2.443-.007 3.296-.047.853-.039 1.434-.175 1.944-.37a4.1 4.1 0 0 0 2.34-2.343c.195-.508.332-1.09.371-1.942.04-.853.047-1.125.047-3.299 0-2.172-.007-2.444-.047-3.297zm-3.682-.014a.96.96 0 1 1 .961-.96c0 .531-.432.96-.96.96zm-4.27 7.422a4.109 4.109 0 1 1 0-8.219 4.109 4.109 0 0 1 0 8.219zM12.664 10a2.667 2.667 0 1 1-5.334 0 2.667 2.667 0 0 1 5.334 0zm0 0z"/></svg></svg>