<svg width="18" height="15" xmlns="http://www.w3.org/2000/svg" xmlns:xlink="http://www.w3.org/1999/xlink" xmlns:svgjs="http://svgjs.com/svgjs" viewBox="0 0.107 18 14.787" fill="#fff"><svg xmlns="http://www.w3.org/2000/svg" width="18" height="15" viewBox="1.99 1.985 17.036 13.995"><path paint-order="stroke fill markers" fill-rule="evenodd" d="M19.008 2.928l-2.66 12.4c-.123.584-.824.845-1.316.493l-4.016-2.875-2.047 2.039c-.36.357-.98.212-1.134-.266l-1.479-4.571-3.958-1.14A.55.55 0 0 1 2.35 7.96L17.934 2.04c.593-.225 1.206.281 1.074.888zm-3.252 1.57L7.208 9.665a.376.376 0 0 0-.165.435l1.145 3.602c.025.075.138.064.148-.014l.278-2.415a.376.376 0 0 1 .128-.242l7.238-6.24c.173-.148-.028-.412-.224-.295z"/></svg></svg>