<svg width="16" height="14" xmlns="http://www.w3.org/2000/svg" xmlns:xlink="http://www.w3.org/1999/xlink" xmlns:svgjs="http://svgjs.com/svgjs" viewBox="0 0.057 16 13.885" fill="#fff"><svg xmlns="http://www.w3.org/2000/svg" width="16" height="14" viewBox="1.001 1.989 15.002 13.019"><path paint-order="stroke fill markers" fill-rule="evenodd" d="M14.47 5.23c.006.141.009.283.009.426 0 4.345-3.096 9.353-8.759 9.353a8.316 8.316 0 0 1-4.719-1.474 5.936 5.936 0 0 0 4.558-1.363c-1.348-.027-2.484-.977-2.877-2.284a2.943 2.943 0 0 0 1.392-.054c-1.41-.303-2.469-1.63-2.469-3.225v-.041c.415.245.889.395 1.394.41-.828-.588-1.37-1.594-1.37-2.736 0-.603.153-1.166.416-1.651 1.518 1.987 3.787 3.296 6.344 3.434a3.471 3.471 0 0 1-.078-.75c0-1.815 1.377-3.286 3.078-3.286.886 0 1.683.398 2.247 1.036a5.906 5.906 0 0 0 1.956-.797 3.284 3.284 0 0 1-1.356 1.818 5.72 5.72 0 0 0 1.767-.517A6.465 6.465 0 0 1 14.47 5.23zm0 0"/></svg></svg>