<svg width="30" height="9" xmlns="http://www.w3.org/2000/svg" xmlns:xlink="http://www.w3.org/1999/xlink" xmlns:svgjs="http://svgjs.com/svgjs" viewBox="0 0.368 30 8.264" fill="#008d68"><svg xmlns="http://www.w3.org/2000/svg" width="30" height="9" viewBox="1 2.006 28.991 7.986"><path paint-order="stroke fill markers" fill-rule="evenodd" d="M2 5h25a1 1 0 1 1 0 2H2a1 1 0 1 1 0-2zm26.352 1.718L25.28 3.644a.96.96 0 1 1 1.357-1.357L29.71 5.36a.96.96 0 0 1-1.358 1.358zm0-1.438L25.28 8.353a.96.96 0 1 0 1.357 1.357l3.073-3.073a.96.96 0 0 0-1.358-1.357z"/></svg></svg>