<svg width="520" height="564" xmlns="http://www.w3.org/2000/svg" xmlns:xlink="http://www.w3.org/1999/xlink" xmlns:svgjs="http://svgjs.com/svgjs" viewBox="0.123 0 519.755 564" fill="#fff" opacity=".329"><svg xmlns="http://www.w3.org/2000/svg" width="520" height="564" viewBox="1.155 1.828 518.012 562.109"><path paint-order="stroke fill markers" fill-rule="evenodd" d="M75.328 381.706c2.954 0 5.868.778 8.425 2.25l29.156 16.78c5.196 2.99 8.425 8.563 8.425 14.545v33.559c0 5.981-3.229 11.555-8.425 14.545l-29.156 16.78a16.91 16.91 0 0 1-8.425 2.25c-2.953 0-5.867-.778-8.425-2.25l-29.155-16.78c-5.197-2.99-8.425-8.564-8.425-14.545V415.28c0-5.982 3.228-11.555 8.425-14.546l29.155-16.779a16.913 16.913 0 0 1 8.425-2.25zm223.687.689c2.92 0 5.802.773 8.33 2.236l28.83 16.676c5.138 2.972 8.33 8.511 8.33 14.456v33.352c0 5.945-3.192 11.485-8.33 14.456l-28.83 16.677a16.66 16.66 0 0 1-8.33 2.236c-2.92 0-5.801-.773-8.33-2.236l-28.829-16.677c-5.139-2.971-8.33-8.51-8.33-14.456v-33.352c0-5.945 3.191-11.484 8.33-14.456l28.828-16.676a16.663 16.663 0 0 1 8.331-2.236zM130.84 282.153c2.952 0 5.863.774 8.419 2.24l29.132 16.698c5.192 2.976 8.418 8.524 8.418 14.476v33.398c0 5.954-3.226 11.5-8.418 14.476l-29.132 16.7a16.953 16.953 0 0 1-16.837 0l-29.132-16.7c-5.192-2.975-8.418-8.522-8.418-14.476v-33.398c0-5.952 3.226-11.5 8.418-14.476l29.132-16.699a16.955 16.955 0 0 1 8.418-2.239zm112.069.343c2.934 0 5.83.772 8.37 2.233l28.97 16.647c5.162 2.967 8.37 8.497 8.37 14.431v33.296c0 5.935-3.208 11.464-8.37 14.431l-28.97 16.648a16.824 16.824 0 0 1-8.37 2.232c-2.934 0-5.83-.772-8.372-2.232l-28.968-16.648c-5.163-2.967-8.37-8.496-8.37-14.431v-33.296c0-5.934 3.207-11.464 8.37-14.43l28.968-16.648a16.826 16.826 0 0 1 8.372-2.233zm111.439.343c2.918 0 5.797.769 8.324 2.225l28.806 16.596a16.652 16.652 0 0 1 8.324 14.387v33.192c0 5.917-3.19 11.43-8.324 14.387l-28.806 16.597a16.694 16.694 0 0 1-8.324 2.226c-2.918 0-5.797-.77-8.324-2.226l-28.806-16.597a16.65 16.65 0 0 1-8.324-14.387v-33.192c0-5.916 3.19-11.429 8.324-14.387l28.806-16.596a16.698 16.698 0 0 1 8.324-2.225zM73.697 182.734c2.965 0 5.89.773 8.459 2.236l29.273 16.67c5.218 2.971 8.459 8.508 8.459 14.45v33.342c0 5.943-3.241 11.48-8.46 14.451l-29.272 16.671a17.123 17.123 0 0 1-16.919 0l-29.272-16.67c-5.219-2.971-8.46-8.509-8.46-14.452v-33.341c0-5.943 3.241-11.48 8.46-14.451l29.272-16.67a17.118 17.118 0 0 1 8.46-2.236zm112.61.343c2.95 0 5.86.77 8.413 2.228l29.108 16.62c5.189 2.961 8.412 8.482 8.412 14.406v33.238c0 5.925-3.223 11.445-8.412 14.407l-29.108 16.619a16.986 16.986 0 0 1-16.824 0l-29.108-16.62c-5.189-2.96-8.412-8.48-8.412-14.406v-33.238c0-5.924 3.223-11.445 8.412-14.407l29.108-16.619a16.989 16.989 0 0 1 8.412-2.228zm223.33.681c2.915 0 5.792.766 8.317 2.215l28.783 16.517c5.13 2.944 8.317 8.43 8.317 14.318v33.034c0 5.888-3.188 11.375-8.317 14.318l-28.783 16.517a16.73 16.73 0 0 1-16.635 0l-28.782-16.517c-5.13-2.943-8.317-8.43-8.317-14.318v-33.034c0-5.888 3.186-11.374 8.317-14.318l28.782-16.517a16.739 16.739 0 0 1 8.318-2.215zM129.21 84.133c2.963 0 5.887.769 8.452 2.225l29.25 16.59c5.213 2.958 8.452 8.468 8.452 14.382v33.182c0 5.915-3.239 11.426-8.452 14.382l-29.25 16.591a17.16 17.16 0 0 1-16.904 0l-29.25-16.59c-5.213-2.957-8.452-8.468-8.452-14.383V117.33c0-5.914 3.239-11.424 8.452-14.382l29.25-16.59a17.16 17.16 0 0 1 8.452-2.225zm112.52.341c2.947 0 5.855.767 8.406 2.218l29.085 16.54c5.185 2.947 8.405 8.441 8.405 14.337v33.08c0 5.896-3.22 11.39-8.405 14.337l-29.085 16.54a17.032 17.032 0 0 1-16.81 0l-29.085-16.54c-5.185-2.947-8.405-8.441-8.405-14.338V117.57c0-5.896 3.22-11.39 8.405-14.338l29.085-16.54a17.032 17.032 0 0 1 8.405-2.217zm111.89.34c2.93 0 5.821.764 8.358 2.21l28.922 16.49c5.155 2.938 8.358 8.416 8.358 14.293v32.978c0 5.877-3.203 11.355-8.358 14.293l-28.922 16.49a16.898 16.898 0 0 1-16.716 0l-28.921-16.49c-5.156-2.938-8.358-8.416-8.358-14.293v-32.978c0-5.877 3.202-11.355 8.358-14.294l28.921-16.488a16.902 16.902 0 0 1 8.358-2.211zm-55.333 98.604c2.932 0 5.825.768 8.364 2.222l28.946 16.567c5.158 2.954 8.364 8.457 8.364 14.363v33.135c0 5.907-3.206 11.41-8.364 14.363l-28.946 16.568a16.859 16.859 0 0 1-16.729 0l-28.944-16.568c-5.16-2.953-8.365-8.456-8.365-14.363V216.57c0-5.906 3.205-11.41 8.365-14.363l28.944-16.567a16.865 16.865 0 0 1 8.365-2.222zm-137.07 269c1.826 0 3.628.483 5.21 1.395l18.024 10.405a10.443 10.443 0 0 1 5.21 9.019v20.808c0 3.709-1.997 7.165-5.21 9.02l-18.025 10.404a10.434 10.434 0 0 1-5.209 1.395c-1.826 0-3.627-.483-5.209-1.395l-18.024-10.405a10.442 10.442 0 0 1-5.21-9.019v-20.808c0-3.709 1.996-7.165 5.21-9.02l18.024-10.404a10.435 10.435 0 0 1 5.21-1.395zm-136.64 45.727c1.505 0 2.988.396 4.29 1.146l14.844 8.546A8.574 8.574 0 0 1 48 515.245v17.093a8.574 8.574 0 0 1-4.29 7.408l-14.843 8.546a8.607 8.607 0 0 1-8.579 0l-14.843-8.546a8.572 8.572 0 0 1-4.29-7.408v-17.093a8.573 8.573 0 0 1 4.29-7.408l14.843-8.546a8.605 8.605 0 0 1 4.29-1.146zm337.428-2.234c1.97 0 3.913.526 5.618 1.52l19.443 11.334c3.466 2.02 5.62 5.785 5.62 9.825v22.667c0 4.04-2.154 7.806-5.62 9.825l-19.443 11.334a11.168 11.168 0 0 1-5.618 1.52c-1.97 0-3.913-.525-5.62-1.52l-19.442-11.334c-3.466-2.02-5.618-5.784-5.618-9.825V518.59c0-4.04 2.152-7.805 5.618-9.825l19.443-11.334a11.173 11.173 0 0 1 5.619-1.52zM32.938 314.116c2.04 0 4.053.534 5.82 1.545L58.9 327.18c3.59 2.053 5.82 5.88 5.82 9.986v23.039c0 4.106-2.23 7.933-5.82 9.985l-20.142 11.52a11.736 11.736 0 0 1-11.641 0L6.975 370.19c-3.59-2.052-5.82-5.879-5.82-9.985v-23.04c0-4.105 2.23-7.932 5.82-9.985l20.142-11.52a11.743 11.743 0 0 1 5.82-1.544zm400.056 52.89c1.669 0 3.315.44 4.76 1.273l16.472 9.497a9.53 9.53 0 0 1 4.76 8.234v18.995a9.531 9.531 0 0 1-4.76 8.233l-16.472 9.498a9.54 9.54 0 0 1-9.52 0l-16.473-9.498a9.53 9.53 0 0 1-4.76-8.233V386.01a9.53 9.53 0 0 1 4.76-8.234l16.473-9.497a9.545 9.545 0 0 1 4.76-1.274zm52.707-99.393c2.148 0 4.268.569 6.128 1.645l21.21 12.267a12.317 12.317 0 0 1 6.128 10.634v24.533c0 4.373-2.348 8.447-6.129 10.633l-21.209 12.267a12.257 12.257 0 0 1-6.128 1.646c-2.149 0-4.269-.57-6.13-1.646l-21.208-12.267a12.315 12.315 0 0 1-6.129-10.633v-24.533c0-4.373 2.348-8.448 6.129-10.634l21.209-12.267a12.255 12.255 0 0 1 6.129-1.645zM32.94 105.543c1.898 0 3.77.491 5.414 1.42l18.733 10.592c3.34 1.888 5.414 5.406 5.414 9.181v21.184c0 3.776-2.075 7.293-5.414 9.18l-18.733 10.593a11.021 11.021 0 0 1-10.827 0L8.795 157.101c-3.34-1.888-5.413-5.405-5.413-9.181v-21.184c0-3.775 2.074-7.293 5.413-9.181l18.733-10.592a11.02 11.02 0 0 1 5.413-1.42zm435.043-6.689c1.754 0 3.485.457 5.004 1.321l17.317 9.851c3.087 1.756 5.005 5.028 5.005 8.54v19.702c0 3.512-1.918 6.784-5.005 8.54l-17.317 9.85a10.138 10.138 0 0 1-10.009 0l-17.317-9.85c-3.087-1.756-5.004-5.028-5.004-8.54v-19.702c0-3.512 1.917-6.784 5.004-8.54l17.317-9.851c1.52-.864 3.25-1.32 5.005-1.32zM187.409 1.828c2.365 0 4.698.613 6.745 1.773l23.344 13.228c4.16 2.358 6.746 6.751 6.746 11.467V54.75c0 4.716-2.585 9.11-6.746 11.467l-23.344 13.228a13.707 13.707 0 0 1-13.491 0L157.32 66.218c-4.161-2.357-6.745-6.75-6.745-11.467V28.296c0-4.716 2.584-9.11 6.745-11.467L180.663 3.6a13.706 13.706 0 0 1 6.746-1.773zm206.4 3.354c1.648 0 3.274.431 4.7 1.246l16.261 9.291c2.898 1.656 4.7 4.742 4.7 8.054v18.581c0 3.313-1.802 6.399-4.7 8.054L398.51 59.7a9.487 9.487 0 0 1-9.4 0l-16.26-9.29c-2.898-1.656-4.699-4.742-4.699-8.055V23.773c0-3.312 1.8-6.398 4.7-8.054l16.26-9.29a9.486 9.486 0 0 1 4.699-1.247z"/></svg></svg>