<svg width="93" height="100" xmlns="http://www.w3.org/2000/svg" xmlns:xlink="http://www.w3.org/1999/xlink" xmlns:svgjs="http://svgjs.com/svgjs" viewBox="0.026 0 92.948 100" fill="#fff"><svg xmlns="http://www.w3.org/2000/svg" width="93" height="100" viewBox="1.993 1.005 92.009 98.99"><path paint-order="stroke fill markers" fill-rule="evenodd" d="M47.997 1.005c2.953 0 5.867.765 8.425 2.212L85.577 19.71c5.196 2.94 8.425 8.418 8.425 14.297v32.985c0 5.88-3.229 11.358-8.425 14.297L56.422 97.783a17.146 17.146 0 0 1-16.85 0L10.418 81.289C5.22 78.35 1.993 72.872 1.993 66.992V34.007c0-5.88 3.228-11.358 8.425-14.297L39.572 3.217a17.148 17.148 0 0 1 8.425-2.212z"/></svg></svg>