<svg width="1070" height="905" xmlns="http://www.w3.org/2000/svg" xmlns:xlink="http://www.w3.org/1999/xlink" xmlns:svgjs="http://svgjs.com/svgjs" viewBox="0 0.141 1070.001 904.719" fill="#fff"><svg xmlns="http://www.w3.org/2000/svg" width="1070" height="905" viewBox="1.156 1.828 1068.01 903.036"><path paint-order="stroke fill markers" fill-rule="evenodd" d="M376.218 842.418c1.826 0 3.627.483 5.209 1.396l18.025 10.404a10.443 10.443 0 0 1 5.209 9.019v20.808c0 3.71-1.996 7.165-5.209 9.02l-18.025 10.404a10.434 10.434 0 0 1-5.21 1.395c-1.825 0-3.626-.482-5.208-1.395l-18.025-10.404a10.442 10.442 0 0 1-5.209-9.02v-20.808c0-3.709 1.996-7.165 5.21-9.02l18.024-10.403a10.436 10.436 0 0 1 5.209-1.396zm-351.64 2.727c1.504 0 2.988.396 4.29 1.146l14.843 8.546a8.574 8.574 0 0 1 4.29 7.408v17.093a8.573 8.573 0 0 1-4.29 7.408l-14.844 8.547a8.607 8.607 0 0 1-8.578 0l-14.843-8.547a8.572 8.572 0 0 1-4.29-7.408v-17.093a8.573 8.573 0 0 1 4.29-7.408l14.843-8.546a8.606 8.606 0 0 1 4.29-1.146zm741.427-84.234c1.97 0 3.913.526 5.619 1.52l19.443 11.334c3.465 2.02 5.618 5.785 5.618 9.825v22.667c0 4.04-2.153 7.806-5.618 9.825l-19.443 11.334a11.168 11.168 0 0 1-5.62 1.52c-1.969 0-3.911-.525-5.618-1.52l-19.442-11.334c-3.466-2.02-5.619-5.784-5.619-9.825V783.59c0-4.04 2.153-7.805 5.619-9.825l19.442-11.334a11.173 11.173 0 0 1 5.619-1.52zM78.938 446.116c2.04 0 4.054.534 5.82 1.545L104.9 459.18c3.59 2.053 5.82 5.88 5.82 9.986v23.039c0 4.106-2.23 7.933-5.82 9.985l-20.142 11.52a11.736 11.736 0 0 1-11.64 0l-20.143-11.52c-3.59-2.052-5.82-5.879-5.82-9.985v-23.04c0-4.105 2.23-7.932 5.82-9.985l20.143-11.52a11.743 11.743 0 0 1 5.82-1.544zm817.056 52.89c1.669 0 3.315.44 4.76 1.273l16.473 9.497a9.53 9.53 0 0 1 4.76 8.234v18.995a9.53 9.53 0 0 1-4.76 8.233l-16.473 9.498a9.54 9.54 0 0 1-9.52 0l-16.472-9.498a9.53 9.53 0 0 1-4.76-8.233V518.01a9.53 9.53 0 0 1 4.76-8.234l16.472-9.497a9.546 9.546 0 0 1 4.76-1.274zm139.707-99.393c2.148 0 4.268.569 6.128 1.645l21.21 12.267a12.317 12.317 0 0 1 6.128 10.634v24.533c0 4.373-2.348 8.447-6.129 10.633l-21.209 12.267a12.258 12.258 0 0 1-6.128 1.646c-2.149 0-4.268-.57-6.129-1.646l-21.209-12.267a12.315 12.315 0 0 1-6.129-10.633v-24.533c0-4.373 2.349-8.448 6.13-10.634l21.208-12.267a12.254 12.254 0 0 1 6.129-1.645zm-909.76-284.07c1.899 0 3.771.491 5.415 1.42l18.733 10.592c3.339 1.888 5.414 5.406 5.414 9.182v21.183c0 3.776-2.075 7.294-5.414 9.181l-18.733 10.592a11.018 11.018 0 0 1-10.828 0l-18.733-10.592c-3.339-1.887-5.413-5.405-5.413-9.181v-21.183c0-3.776 2.074-7.294 5.413-9.182l18.733-10.592a11.02 11.02 0 0 1 5.414-1.42zm773.043 30.311c1.754 0 3.485.457 5.004 1.321l17.318 9.851c3.086 1.756 5.004 5.028 5.004 8.54v19.702c0 3.512-1.918 6.784-5.004 8.54l-17.318 9.85a10.136 10.136 0 0 1-10.008 0l-17.318-9.85c-3.087-1.756-5.004-5.028-5.004-8.54v-19.702c0-3.512 1.917-6.784 5.004-8.54l17.318-9.85a10.135 10.135 0 0 1 5.004-1.322zM402.409 1.828c2.365 0 4.699.613 6.746 1.773L432.5 16.83c4.16 2.358 6.746 6.751 6.746 11.467V54.75c0 4.716-2.586 9.11-6.746 11.467l-23.344 13.228a13.708 13.708 0 0 1-13.491 0L372.32 66.218c-4.16-2.357-6.745-6.751-6.745-11.467V28.296c0-4.716 2.584-9.11 6.745-11.467L395.664 3.6a13.705 13.705 0 0 1 6.745-1.773zM826.81 14.182c1.648 0 3.273.431 4.7 1.246l16.26 9.291c2.899 1.656 4.7 4.742 4.7 8.054v18.581c0 3.313-1.801 6.399-4.7 8.055l-16.26 9.29a9.484 9.484 0 0 1-9.399 0l-16.26-9.29c-2.899-1.656-4.7-4.742-4.7-8.055v-18.58c0-3.313 1.801-6.4 4.7-8.055l16.26-9.29a9.486 9.486 0 0 1 4.7-1.247z"/></svg></svg>