<svg width="61" height="67" xmlns="http://www.w3.org/2000/svg" xmlns:xlink="http://www.w3.org/1999/xlink" xmlns:svgjs="http://svgjs.com/svgjs" viewBox="0.046 0 60.908 67" fill="#fff"><svg xmlns="http://www.w3.org/2000/svg" width="61" height="67" viewBox="1.993 1.995 60.002 66.004"><path paint-order="stroke fill markers" fill-rule="evenodd" d="M31.994 67.999a10.99 10.99 0 0 1-5.494-1.475L7.488 55.527a11.042 11.042 0 0 1-5.495-9.533V24c0-3.92 2.106-7.573 5.495-9.533L26.5 3.47a10.985 10.985 0 0 1 5.494-1.475c1.926 0 3.827.51 5.495 1.475L56.5 14.467A11.041 11.041 0 0 1 61.995 24v21.994c0 3.92-2.105 7.573-5.494 9.533L37.489 66.524A10.99 10.99 0 0 1 31.994 68z"/></svg></svg>
