<svg id="Слой_1" data-name="Слой 1" xmlns="http://www.w3.org/2000/svg" xmlns:xlink="http://www.w3.org/1999/xlink" width="156" height="35" viewBox="0 0 156 35">
  <defs>
    <style>
      .cls-1 {
        fill: #fff;
      }

      .cls-2 {
        fill: url(#Безымянный_градиент_14);
      }

      .cls-3 {
        fill: url(#Безымянный_градиент_14-2);
      }

      .cls-4 {
        fill: url(#Безымянный_градиент_14-3);
      }

      .cls-5 {
        fill: url(#Безымянный_градиент_14-4);
      }

      .cls-6 {
        fill: url(#Безымянный_градиент_14-5);
      }

      .cls-7 {
        fill: url(#Безымянный_градиент_14-6);
      }

      .cls-8 {
        fill: url(#Безымянный_градиент_14-7);
      }

      .cls-9 {
        fill: url(#Безымянный_градиент_14-8);
      }
    </style>
    <linearGradient id="Безымянный_градиент_14" data-name="Безымянный градиент 14" x1="8.01" y1="12.77" x2="-1.81" y2="27.06" gradientUnits="userSpaceOnUse">
      <stop offset="0" stop-color="#b5b5b5"/>
      <stop offset="1" stop-color="#fff"/>
    </linearGradient>
    <linearGradient id="Безымянный_градиент_14-2" x1="14.69" y1="17.36" x2="4.87" y2="31.65" xlink:href="#Безымянный_градиент_14"/>
    <linearGradient id="Безымянный_градиент_14-3" x1="20.26" y1="21.18" x2="10.44" y2="35.47" xlink:href="#Безымянный_градиент_14"/>
    <linearGradient id="Безымянный_градиент_14-4" x1="15.83" y1="0.58" x2="16.12" y2="16.62" xlink:href="#Безымянный_градиент_14"/>
    <linearGradient id="Безымянный_градиент_14-5" x1="15.7" y1="-0.45" x2="16.01" y2="17.06" xlink:href="#Безымянный_градиент_14"/>
    <linearGradient id="Безымянный_градиент_14-6" x1="29.96" y1="11.1" x2="16.44" y2="34.66" xlink:href="#Безымянный_градиент_14"/>
    <linearGradient id="Безымянный_градиент_14-7" x1="32.16" y1="12.36" x2="18.63" y2="35.92" xlink:href="#Безымянный_градиент_14"/>
    <linearGradient id="Безымянный_градиент_14-8" x1="24.28" y1="7.84" x2="10.76" y2="31.4" xlink:href="#Безымянный_градиент_14"/>
  </defs>
  <title>logo_footer</title>
  <g>
    <g>
      <path class="cls-1" d="M41.64,11.63c-1.18,1.25-1.78,3.16-1.78,5.67A8,8,0,0,0,41.64,23a6.68,6.68,0,0,0,5.1,1.9h5.94V21.51H46.74A3.38,3.38,0,0,1,44,20.57a5.06,5.06,0,0,1-.83-3.27A5,5,0,0,1,44,14a3.4,3.4,0,0,1,2.7-.95h5.94V9.73H46.74A6.68,6.68,0,0,0,41.64,11.63Z"/>
      <path class="cls-1" d="M65.09,14a3.64,3.64,0,0,0-1.37-.88,5.53,5.53,0,0,0-1.92-.3H54.67v3h7.11a1.35,1.35,0,0,1,1,.3,1.22,1.22,0,0,1,.29.83v.42H58.18a6.46,6.46,0,0,0-1.88.24,3.4,3.4,0,0,0-1.33.73,2.93,2.93,0,0,0-.76,1.18A4.86,4.86,0,0,0,54,21a3.89,3.89,0,0,0,1,2.79,4.24,4.24,0,0,0,3.17,1h5.22a4.56,4.56,0,0,0,1.27-.15,1.88,1.88,0,0,0,.9-.5,1.85,1.85,0,0,0,.46-.89,5.26,5.26,0,0,0,.1-1.13V16.94a5.39,5.39,0,0,0-.23-1.58A3.31,3.31,0,0,0,65.09,14Zm-2,6v1.67a.29.29,0,0,1,0,.12.31.31,0,0,1-.17,0h-4.7a1.26,1.26,0,0,1-.9-.24A.91.91,0,0,1,57,20.9a.86.86,0,0,1,.23-.66,1.44,1.44,0,0,1,.95-.23Z"/>
      <path class="cls-1" d="M76,12.84H72.92a4.27,4.27,0,0,0-3.38,1.32A5.73,5.73,0,0,0,68.4,18v11.3h3.08V24.86H76a5,5,0,0,0,3.83-1.51,6.37,6.37,0,0,0,1.42-4.5,6.36,6.36,0,0,0-1.42-4.49A5,5,0,0,0,76,12.84Zm2.14,6a3.7,3.7,0,0,1-.57,2.34,2.23,2.23,0,0,1-1.8.64h-4.3V18.15A2.71,2.71,0,0,1,72,16.34a2.13,2.13,0,0,1,1.63-.5h2.2a2.22,2.22,0,0,1,1.8.65A3.76,3.76,0,0,1,78.15,18.85Z"/>
      <rect class="cls-1" x="83.1" y="12.84" width="3.09" height="12.01"/>
      <rect class="cls-1" x="83.1" y="8.63" width="3.11" height="3.45"/>
      <path class="cls-1" d="M92.07,10.2H89v2.64H87.44v3H89v4.74a8.29,8.29,0,0,0,.2,2,3.23,3.23,0,0,0,.69,1.36,2.7,2.7,0,0,0,1.22.76,5.47,5.47,0,0,0,1.61.21h2.43V22h-2a1.2,1.2,0,0,1-.85-.23c-.09-.09-.23-.34-.23-1V15.84h3.08v-3H92.07Z"/>
      <path class="cls-1" d="M107.36,14a3.64,3.64,0,0,0-1.37-.88,5.59,5.59,0,0,0-1.93-.3H96.93v3H104a1.38,1.38,0,0,1,1,.3,1.21,1.21,0,0,1,.28.83v.42h-4.89a6.46,6.46,0,0,0-1.88.24,3.43,3.43,0,0,0-1.32.73,2.83,2.83,0,0,0-.76,1.18A4.58,4.58,0,0,0,96.26,21a3.88,3.88,0,0,0,1,2.79,4.26,4.26,0,0,0,3.17,1h5.23a4.48,4.48,0,0,0,1.26-.15,1.88,1.88,0,0,0,.9-.5,1.77,1.77,0,0,0,.46-.89,5.2,5.2,0,0,0,.11-1.13V16.94a5.39,5.39,0,0,0-.23-1.58A3.55,3.55,0,0,0,107.36,14Zm-2,6v1.67c0,.08,0,.12,0,.12a.31.31,0,0,1-.17,0h-4.7a1.29,1.29,0,0,1-.9-.24,1,1,0,0,1-.24-.69.9.9,0,0,1,.23-.66,1.45,1.45,0,0,1,1-.23Z"/>
      <rect class="cls-1" x="110.7" y="8" width="3.09" height="16.86"/>
      <path class="cls-1" d="M127.79,11.14a4.52,4.52,0,0,0-1.57-1A6.05,6.05,0,0,0,124,9.73h-7.74v3.34h7.84a1.45,1.45,0,0,1,1.17.41,1.56,1.56,0,0,1,.38,1.07,1.72,1.72,0,0,1-.1.6,1.57,1.57,0,0,1-.27.49,1.27,1.27,0,0,1-.46.33,2,2,0,0,1-.74.13h-5.14a2.76,2.76,0,0,0-2,.65,2.81,2.81,0,0,0-.65,2v6.08h3.34V19.33H124a5.4,5.4,0,0,0,2.3-.44,4.33,4.33,0,0,0,2.45-2.73,6.15,6.15,0,0,0,.26-1.73,5.56,5.56,0,0,0-.29-1.77A3.89,3.89,0,0,0,127.79,11.14Z"/>
      <path class="cls-1" d="M140.55,14a3.64,3.64,0,0,0-1.37-.88,5.59,5.59,0,0,0-1.93-.3h-7.13v3h7.11a1.38,1.38,0,0,1,1,.3,1.21,1.21,0,0,1,.28.83v.42h-4.89a6.46,6.46,0,0,0-1.88.24,3.43,3.43,0,0,0-1.32.73,2.83,2.83,0,0,0-.76,1.18,4.58,4.58,0,0,0-.22,1.49,3.88,3.88,0,0,0,1,2.79,4.26,4.26,0,0,0,3.17,1h5.23a4.48,4.48,0,0,0,1.26-.15,1.88,1.88,0,0,0,.9-.5,1.77,1.77,0,0,0,.46-.89,5.2,5.2,0,0,0,.11-1.13V16.94a5.39,5.39,0,0,0-.23-1.58A3.55,3.55,0,0,0,140.55,14Zm-2,6v1.67c0,.08,0,.12,0,.12a.31.31,0,0,1-.17,0h-4.7a1.29,1.29,0,0,1-.9-.24,1,1,0,0,1-.24-.69.9.9,0,0,1,.23-.66,1.45,1.45,0,0,1,1-.23Z"/>
      <path class="cls-1" d="M152.69,12.84l-3.79,8.78h0a.73.73,0,0,1-.21,0s0-.08-.08-.18l-3.47-8.58h-3.28l4,10a2.67,2.67,0,0,0,.86,1.25,2.16,2.16,0,0,0,1,.37l-2.11,4.92h3.33L156,12.84Z"/>
    </g>
    <g>
      <g>
        <path class="cls-2" d="M6,11.61V30.05l-2.5-1.43,0,0A7,7,0,0,1,0,22.76V12A7,7,0,0,1,.94,8.68Z"/>
        <polygon class="cls-3" points="15.98 17.36 15.98 22.28 11.71 19.82 11.71 14.9 15.98 17.36"/>
        <path class="cls-4" d="M16,28.86v5.86a7,7,0,0,1-3.35-.84h0l-1-.56V26.38Z"/>
      </g>
      <path class="cls-5" d="M31,8.68l-5.07,2.93L16,5.85,6,11.61.94,8.68A7,7,0,0,1,3.51,6.11h0l9-5.17h0l0,0,0,0a7.07,7.07,0,0,1,6.93.06l8.94,5.17A6.92,6.92,0,0,1,31,8.68Z"/>
      <polygon class="cls-6" points="20.24 14.9 15.98 17.36 11.71 14.9 15.98 12.44 20.24 14.9"/>
      <path class="cls-7" d="M32,12.2v1.93l-6,3.24V11.61L31,8.68A7,7,0,0,1,32,12.2Z"/>
      <path class="cls-8" d="M32,19.65v2.87a7,7,0,0,1-3.52,6.1l-8.94,5.16a7,7,0,0,1-3.51.94V28.86l16-9.21Z"/>
      <polygon class="cls-9" points="20.24 14.9 20.24 19.82 15.98 22.28 15.98 17.36 20.24 14.9"/>
    </g>
  </g>
</svg>
