<svg id="Слой_1" data-name="Слой 1" xmlns="http://www.w3.org/2000/svg" xmlns:xlink="http://www.w3.org/1999/xlink" width="207" height="46" viewBox="0 0 207 46">
  <defs>
    <style>
      .cls-1 {
        fill: #138265;
      }

      .cls-2 {
        fill: #3f4043;
      }

      .cls-3 {
        fill: url(#Безымянный_градиент_106);
      }

      .cls-4 {
        fill: url(#Безымянный_градиент_106-2);
      }

      .cls-5 {
        fill: url(#Безымянный_градиент_106-3);
      }

      .cls-6 {
        fill: url(#Безымянный_градиент_16);
      }

      .cls-7 {
        fill: url(#Безымянный_градиент_16-2);
      }

      .cls-8 {
        fill: url(#Безымянный_градиент_16-3);
      }

      .cls-9 {
        fill: url(#Безымянный_градиент_16-4);
      }

      .cls-10 {
        fill: url(#Безымянный_градиент_16-5);
      }
    </style>
    <linearGradient id="Безымянный_градиент_106" data-name="Безымянный градиент 106" x1="-6.02" y1="34.14" x2="20.93" y2="14.14" gradientUnits="userSpaceOnUse">
      <stop offset="0.01" stop-color="#787a7d"/>
      <stop offset="0.25" stop-color="#636567"/>
      <stop offset="1" stop-color="#232426"/>
    </linearGradient>
    <linearGradient id="Безымянный_градиент_106-2" x1="-1.66" y1="40.02" x2="25.29" y2="20.03" xlink:href="#Безымянный_градиент_106"/>
    <linearGradient id="Безымянный_градиент_106-3" x1="5.88" y1="50.19" x2="32.83" y2="30.2" xlink:href="#Безымянный_градиент_106"/>
    <linearGradient id="Безымянный_градиент_16" data-name="Безымянный градиент 16" x1="21.72" y1="0.87" x2="22.1" y2="22.02" gradientUnits="userSpaceOnUse">
      <stop offset="0" stop-color="#177a60"/>
      <stop offset="1" stop-color="#00af83"/>
    </linearGradient>
    <linearGradient id="Безымянный_градиент_16-2" x1="21.54" y1="-0.5" x2="21.96" y2="22.61" xlink:href="#Безымянный_градиент_16"/>
    <linearGradient id="Безымянный_градиент_16-3" x1="39.2" y1="16.45" x2="28.33" y2="55.73" xlink:href="#Безымянный_градиент_16"/>
    <linearGradient id="Безымянный_градиент_16-4" x1="38.27" y1="13.6" x2="29.83" y2="44.1" xlink:href="#Безымянный_градиент_16"/>
    <linearGradient id="Безымянный_градиент_16-5" x1="28.42" y1="11.28" x2="19.74" y2="42.64" xlink:href="#Безымянный_градиент_16"/>
  </defs>
  <title>Logo</title>
  <g>
    <g>
      <path class="cls-1" d="M55.77,15.44c-1.56,1.66-2.35,4.17-2.35,7.49s.79,5.8,2.35,7.45a8.78,8.78,0,0,0,6.72,2.51h7.84V28.48H62.49a4.49,4.49,0,0,1-3.56-1.24,6.66,6.66,0,0,1-1.1-4.31c0-2,.37-3.49,1.11-4.34a4.47,4.47,0,0,1,3.55-1.25h7.84v-4.4H62.49A8.81,8.81,0,0,0,55.77,15.44Z"/>
      <path class="cls-1" d="M86.72,18.59a4.89,4.89,0,0,0-1.82-1.15,7.15,7.15,0,0,0-2.53-.4H73v4h9.38a1.71,1.71,0,0,1,1.32.4A1.53,1.53,0,0,1,84,22.48V23H77.59a8.54,8.54,0,0,0-2.48.32,4.47,4.47,0,0,0-1.75,1,3.85,3.85,0,0,0-1,1.55,6.33,6.33,0,0,0-.29,2,5.1,5.1,0,0,0,1.31,3.68,5.62,5.62,0,0,0,4.18,1.37h6.9a6.14,6.14,0,0,0,1.67-.19A2.56,2.56,0,0,0,87.32,32a2.42,2.42,0,0,0,.6-1.17,7,7,0,0,0,.14-1.49V22.45a6.77,6.77,0,0,0-.31-2.09A4.49,4.49,0,0,0,86.72,18.59ZM84,26.5v2.2a.55.55,0,0,1,0,.16.45.45,0,0,1-.23,0h-6.2a1.7,1.7,0,0,1-1.19-.32,1.26,1.26,0,0,1-.32-.91,1.13,1.13,0,0,1,.31-.87,2,2,0,0,1,1.26-.3Z"/>
      <path class="cls-1" d="M101.12,17H97a5.64,5.64,0,0,0-4.46,1.74,7.56,7.56,0,0,0-1.51,5.12V38.81h4.08V32.89h6a6.66,6.66,0,0,0,5-2C107.41,29.59,108,27.59,108,25s-.63-4.6-1.87-5.92A6.63,6.63,0,0,0,101.12,17ZM103.94,25a4.87,4.87,0,0,1-.75,3.09,2.93,2.93,0,0,1-2.38.85H95.15V24a3.6,3.6,0,0,1,.61-2.39A2.85,2.85,0,0,1,97.91,21h2.9a2.9,2.9,0,0,1,2.38.86A4.92,4.92,0,0,1,103.94,25Z"/>
      <rect class="cls-1" x="110.47" y="17.04" width="4.07" height="15.85"/>
      <rect class="cls-1" x="110.47" y="11.49" width="4.1" height="4.55"/>
      <path class="cls-1" d="M122.3,13.55h-4.1V17h-2v4h2v6.25a10.44,10.44,0,0,0,.27,2.57,4.14,4.14,0,0,0,.91,1.8,3.48,3.48,0,0,0,1.6,1,7.14,7.14,0,0,0,2.13.28h3.21V29.07h-2.6a1.61,1.61,0,0,1-1.12-.31c-.11-.11-.3-.44-.3-1.34V21h4.08V17H122.3Z"/>
      <path class="cls-1" d="M142.48,18.59a4.89,4.89,0,0,0-1.82-1.15,7.15,7.15,0,0,0-2.53-.4h-9.41v4h9.38a1.69,1.69,0,0,1,1.32.4,1.53,1.53,0,0,1,.38,1.08V23h-6.45a8.58,8.58,0,0,0-2.48.32,4.47,4.47,0,0,0-1.75,1,3.85,3.85,0,0,0-1,1.55,6.33,6.33,0,0,0-.29,2,5.1,5.1,0,0,0,1.31,3.68,5.63,5.63,0,0,0,4.19,1.37h6.89a6.09,6.09,0,0,0,1.67-.19,2.52,2.52,0,0,0,1.19-.67,2.42,2.42,0,0,0,.6-1.17,7,7,0,0,0,.14-1.49V22.45a6.77,6.77,0,0,0-.31-2.09A4.49,4.49,0,0,0,142.48,18.59ZM139.8,26.5v2.2a.55.55,0,0,1,0,.16.41.41,0,0,1-.23,0h-6.2a1.71,1.71,0,0,1-1.19-.32,1.26,1.26,0,0,1-.31-.91,1.16,1.16,0,0,1,.3-.87,2,2,0,0,1,1.26-.3Z"/>
      <rect class="cls-1" x="146.89" y="10.65" width="4.07" height="22.24"/>
      <path class="cls-2" d="M169.44,14.8a5.87,5.87,0,0,0-2.08-1.36,8,8,0,0,0-2.94-.5H154.2v4.4h10.36a1.9,1.9,0,0,1,1.54.55,2.09,2.09,0,0,1,.49,1.41,2.61,2.61,0,0,1-.12.79,2,2,0,0,1-.36.64,1.67,1.67,0,0,1-.61.43,2.33,2.33,0,0,1-1,.18h-6.78a3.65,3.65,0,0,0-2.66.86,3.67,3.67,0,0,0-.86,2.68v8h4.41V25.6h5.78a7.19,7.19,0,0,0,3-.58,6,6,0,0,0,2.08-1.51,5.61,5.61,0,0,0,1.15-2.1,7.84,7.84,0,0,0,.35-2.28,7.34,7.34,0,0,0-.38-2.33A5.37,5.37,0,0,0,169.44,14.8Z"/>
      <path class="cls-2" d="M186.27,18.59a4.89,4.89,0,0,0-1.82-1.15,7.15,7.15,0,0,0-2.53-.4h-9.41v4h9.38a1.71,1.71,0,0,1,1.32.4,1.53,1.53,0,0,1,.38,1.08V23h-6.45a8.54,8.54,0,0,0-2.48.32,4.47,4.47,0,0,0-1.75,1,3.74,3.74,0,0,0-1,1.55,6.33,6.33,0,0,0-.29,2,5.1,5.1,0,0,0,1.31,3.68,5.62,5.62,0,0,0,4.18,1.37H184a6.14,6.14,0,0,0,1.67-.19,2.62,2.62,0,0,0,1.19-.67,2.42,2.42,0,0,0,.6-1.17,7,7,0,0,0,.14-1.49V22.45a7.09,7.09,0,0,0-.31-2.09A4.49,4.49,0,0,0,186.27,18.59Zm-2.68,7.91v2.2a.55.55,0,0,1,0,.16.5.5,0,0,1-.23,0h-6.2a1.7,1.7,0,0,1-1.19-.32,1.26,1.26,0,0,1-.32-.91,1.13,1.13,0,0,1,.31-.87,2,2,0,0,1,1.26-.3Z"/>
      <path class="cls-2" d="M202.28,17l-5,11.58h0a1.18,1.18,0,0,1-.26,0,1.48,1.48,0,0,1-.11-.24L192.31,17H188l5.24,13.14a3.4,3.4,0,0,0,1.12,1.65,2.8,2.8,0,0,0,1.34.48l-2.79,6.5h4.4L206.65,17Z"/>
    </g>
    <g>
      <g>
        <path class="cls-3" d="M8.76,15.41V39.75l-3.29-1.9-.07,0A9.26,9.26,0,0,1,.84,30.12V15.88a9.24,9.24,0,0,1,1.23-4.33Z"/>
        <polygon class="cls-4" points="21.91 23 21.91 29.49 16.29 26.25 16.29 19.76 21.91 23"/>
        <path class="cls-5" d="M21.92,38.18V45.9a9.12,9.12,0,0,1-4.42-1.11h0l-1.26-.73V34.9Z"/>
      </g>
      <path class="cls-6" d="M41.75,11.55l-6.69,3.86L21.92,7.82,8.76,15.41,2.07,11.55A9.34,9.34,0,0,1,5.46,8.16h0l11.8-6.81,0,0,.06,0,0,0a9.3,9.3,0,0,1,9.15.08l11.8,6.81A9.24,9.24,0,0,1,41.75,11.55Z"/>
      <polygon class="cls-7" points="27.53 19.76 21.91 23 16.29 19.76 21.91 16.51 27.53 19.76"/>
      <path class="cls-8" d="M43,16.19v2.54L35.06,23V15.41l6.69-3.86A9.28,9.28,0,0,1,43,16.19Z"/>
      <path class="cls-9" d="M43,26v3.79a9.26,9.26,0,0,1-4.64,8l-11.8,6.82a9.33,9.33,0,0,1-4.63,1.23V38.18L43,26Z"/>
      <polygon class="cls-10" points="27.53 19.76 27.53 26.25 21.91 29.49 21.91 23 27.53 19.76"/>
    </g>
  </g>
</svg>
