<svg width="51" height="51" xmlns="http://www.w3.org/2000/svg" xmlns:xlink="http://www.w3.org/1999/xlink" xmlns:svgjs="http://svgjs.com/svgjs" viewBox="1488 1963 51 51"><svg width="51" height="51" xmlns="http://www.w3.org/2000/svg" xmlns:xlink="http://www.w3.org/1999/xlink" xmlns:svgjs="http://svgjs.com/svgjs" viewBox="1488 1963 51 51" x="1488" y="1963"><svg width="51" height="51" xmlns="http://www.w3.org/2000/svg" xmlns:xlink="http://www.w3.org/1999/xlink" xmlns:svgjs="http://svgjs.com/svgjs" fill="#fff" x="1488" y="1963"><svg xmlns="http://www.w3.org/2000/svg" xmlns:xlink="http://www.w3.org/1999/xlink" width="51" height="51" viewBox="1 1 50 50"><path paint-order="stroke fill markers" fill-rule="evenodd" d="M26 1c13.807 0 25 11.193 25 25S39.807 51 26 51 1 39.807 1 26 12.193 1 26 1z"/></svg></svg><svg width="12" height="19" xmlns="http://www.w3.org/2000/svg" xmlns:xlink="http://www.w3.org/1999/xlink" xmlns:svgjs="http://svgjs.com/svgjs" viewBox="0.207 0 11.586 19" fill="#008d68" x="1509" y="1979"><svg xmlns="http://www.w3.org/2000/svg" width="12" height="19" viewBox="2 1.98 10.97 17.99"><path paint-order="stroke fill markers" fill-rule="evenodd" d="M2.462 2.423a1.467 1.467 0 0 0 0 2.138l7.813 7.483a1.63 1.63 0 0 0 2.233 0 1.468 1.468 0 0 0 0-2.138L4.694 2.423a1.626 1.626 0 0 0-2.232 0zm7.813 7.483l-7.813 7.483a1.467 1.467 0 0 0 0 2.138c.616.59 1.616.59 2.232 0l7.814-7.483a1.468 1.468 0 0 0 0-2.138 1.63 1.63 0 0 0-2.233 0z"/></svg></svg></svg></svg>