<svg width="32" height="39" xmlns="http://www.w3.org/2000/svg" xmlns:xlink="http://www.w3.org/1999/xlink" xmlns:svgjs="http://svgjs.com/svgjs" viewBox="0.176 0 31.649 39" fill="#008d68"><svg xmlns="http://www.w3.org/2000/svg" width="32" height="39" viewBox="2.118 1.999 30.837 38"><path paint-order="stroke fill markers" fill-rule="evenodd" d="M32.955 20.884c0-2.01-1.648-3.645-3.673-3.645-.586 0-1.14.137-1.632.381a3.676 3.676 0 0 0-3.47-2.452c-.721 0-1.395.209-1.963.566a3.68 3.68 0 0 0-3.138-1.753c-.507 0-.99.102-1.43.287V9.909c0-1.938-1.589-3.515-3.542-3.515-1.952 0-3.542 1.577-3.542 3.515v11.343a4.944 4.944 0 0 0-3.088-2.172 4.982 4.982 0 0 0-3.766.628l-1.067.662a1.108 1.108 0 0 0-.387 1.48c.048.086 4.77 8.604 6.684 12.678.033.07.066.138.1.205a9.293 9.293 0 0 0 3.494 3.848A9.56 9.56 0 0 0 17.553 40h5.687a9.62 9.62 0 0 0 6.786-2.771 9.48 9.48 0 0 0 2.856-6.71l.073-7.753v-.006-.005-1.87zm-4.508 14.762a7.381 7.381 0 0 1-5.207 2.126h-5.687c-2.76 0-5.308-1.572-6.494-4.007l-.085-.179C9.384 30.205 6.02 24.04 4.731 21.7l.17-.106a2.738 2.738 0 0 1 2.071-.345 2.723 2.723 0 0 1 1.71 1.211l2.053 3.268c.265.421.78.617 1.261.48.481-.136.813-.573.813-1.07V9.91c0-.71.582-1.289 1.298-1.289.716 0 1.299.579 1.299 1.289v12.845c0 .615.502 1.113 1.121 1.113.62 0 1.122-.498 1.122-1.113v-5.129c0-.782.641-1.418 1.43-1.418.788 0 1.43.636 1.43 1.418v5.13c0 .614.501 1.112 1.12 1.112.62 0 1.122-.498 1.122-1.113v-3.941c0-.783.641-1.42 1.43-1.42.788 0 1.43.637 1.43 1.42v3.941c0 .615.501 1.113 1.12 1.113.62 0 1.122-.498 1.122-1.113v-1.87c0-.782.64-1.419 1.43-1.419.788 0 1.43.637 1.43 1.42v1.863l-.074 7.75a7.276 7.276 0 0 1-2.192 5.148zM6.983 11.258c.619 0 1.121-.499 1.121-1.113 0-3.265 2.675-5.92 5.964-5.92 3.289 0 5.964 2.655 5.964 5.92 0 .614.502 1.113 1.122 1.113.62 0 1.121-.499 1.121-1.113 0-4.492-3.681-8.146-8.207-8.146-4.525 0-8.207 3.654-8.207 8.146 0 .614.502 1.113 1.122 1.113zm0 0"/></svg></svg>