<svg id="Слой_1" data-name="Слой 1" xmlns="http://www.w3.org/2000/svg" xmlns:xlink="http://www.w3.org/1999/xlink" width="80" height="80" viewBox="0 0 80 80">
  <defs>
    <style>
      .cls-1 {
        fill: url(#Безымянный_градиент_14);
      }

      .cls-2 {
        fill: url(#Безымянный_градиент_14-2);
      }

      .cls-3 {
        fill: url(#Безымянный_градиент_14-3);
      }

      .cls-4 {
        fill: url(#Безымянный_градиент_14-4);
      }

      .cls-5 {
        fill: url(#Безымянный_градиент_14-5);
      }

      .cls-6 {
        fill: url(#Безымянный_градиент_14-6);
      }

      .cls-7 {
        fill: url(#Безымянный_градиент_14-7);
      }

      .cls-8 {
        fill: url(#Безымянный_градиент_14-8);
      }
    </style>
    <linearGradient id="Безымянный_градиент_14" data-name="Безымянный градиент 14" x1="21.74" y1="29.52" x2="-0.76" y2="62.27" gradientUnits="userSpaceOnUse">
      <stop offset="0" stop-color="#b5b5b5"/>
      <stop offset="1" stop-color="#fff"/>
    </linearGradient>
    <linearGradient id="Безымянный_градиент_14-2" x1="37.05" y1="40.04" x2="14.55" y2="72.79" xlink:href="#Безымянный_градиент_14"/>
    <linearGradient id="Безымянный_градиент_14-3" x1="49.81" y1="48.81" x2="27.31" y2="81.56" xlink:href="#Безымянный_градиент_14"/>
    <linearGradient id="Безымянный_градиент_14-4" x1="39.66" y1="1.59" x2="40.33" y2="38.34" xlink:href="#Безымянный_градиент_14"/>
    <linearGradient id="Безымянный_градиент_14-5" x1="39.36" y1="-0.77" x2="40.08" y2="39.36" xlink:href="#Безымянный_градиент_14"/>
    <linearGradient id="Безымянный_градиент_14-6" x1="72.06" y1="25.69" x2="41.06" y2="79.69" xlink:href="#Безымянный_градиент_14"/>
    <linearGradient id="Безымянный_градиент_14-7" x1="77.09" y1="28.58" x2="46.09" y2="82.58" xlink:href="#Безымянный_градиент_14"/>
    <linearGradient id="Безымянный_градиент_14-8" x1="59.04" y1="18.21" x2="28.04" y2="72.21" xlink:href="#Безымянный_градиент_14"/>
  </defs>
  <title>Sign_logo</title>
  <g>
    <g>
      <path class="cls-1" d="M17.16,26.86V69.14l-5.73-3.3-.11-.07A16.07,16.07,0,0,1,3.38,52.42V27.68a16.19,16.19,0,0,1,2.15-7.53Z"/>
      <polygon class="cls-2" points="40 40.05 40 51.32 30.23 45.69 30.23 34.41 40 40.05"/>
      <path class="cls-3" d="M40,66.41V79.83a15.94,15.94,0,0,1-7.67-1.93h0l-2.19-1.28V60.71Z"/>
    </g>
    <path class="cls-4" d="M74.47,20.15,62.84,26.86,40,13.67,17.16,26.86,5.53,20.15a16.12,16.12,0,0,1,5.89-5.88h0L31.93,2.42s0,0,0,0l.11-.06.08-.05a16.15,16.15,0,0,1,15.9.14L68.55,14.26A16.08,16.08,0,0,1,74.47,20.15Z"/>
    <polygon class="cls-5" points="49.77 34.41 40 40.05 30.23 34.41 40 28.77 49.77 34.41"/>
    <path class="cls-6" d="M76.62,28.22v4.41L62.84,40.07V26.86l11.63-6.71A16.23,16.23,0,0,1,76.62,28.22Z"/>
    <path class="cls-7" d="M76.62,45.29v6.59a16.08,16.08,0,0,1-8.07,14L48.06,77.68A16.06,16.06,0,0,1,40,79.83V66.41L76.62,45.29Z"/>
    <polygon class="cls-8" points="49.77 34.41 49.77 45.69 40 51.32 40 40.05 49.77 34.41"/>
  </g>
</svg>
